<?xml version="1.0" encoding="utf-8"?>
<!-- Generator: Adobe Illustrator 16.0.0, SVG Export Plug-In . SVG Version: 6.00 Build 0)  -->
<!DOCTYPE svg PUBLIC "-//W3C//DTD SVG 1.1//EN" "http://www.w3.org/Graphics/SVG/1.1/DTD/svg11.dtd">
<svg version="1.1" id="Calque_1" xmlns="http://www.w3.org/2000/svg" xmlns:xlink="http://www.w3.org/1999/xlink" x="0px" y="0px"
	 width="952px" height="816px" viewBox="0 0 952 816" enable-background="new 0 0 952 816" xml:space="preserve">
<g>
	<defs>
		<rect id="SVGID_1_" width="952" height="816"/>
	</defs>
	<clipPath id="SVGID_2_">
		<use xlink:href="#SVGID_1_"  overflow="visible"/>
	</clipPath>
	<g clip-path="url(#SVGID_2_)">
		<path fill="#288E23" d="M1324.478,748.246c0,0-98.278,15.129-150.485-64.702c-46.066-83.631-260.593-140.287-260.593-140.287
			c-46.98-14.726-168.543,4.248-227.101,14.805l0.049-1.413c0,0-196.667-40.715-259.584-20.989c0,0-214.521,56.647-260.593,140.281
			c-52.206,79.826-114.911,46.249-150.484,64.694s-43.003,166.188,0,169.984c50.837,0,566.282,11.565,648.703,8.984l0.275,4.181
			c0,0,604.535-5.563,659.813-5.563C1367.48,914.423,1324.478,748.246,1324.478,748.246z"/>
		<g>
			<g>
				<path fill="#288E23" d="M887.763,552.875c0,127.476-103.343,230.8-230.802,230.8c-127.469,0-230.8-103.324-230.8-230.8
					c0-127.458,103.331-230.796,230.8-230.796C784.42,322.078,887.763,425.417,887.763,552.875z"/>
				<path fill="#282826" d="M713.385,460.885c0,0,32.832,48.502,100.111,22.939c18.129-8.431,18.129-8.431,18.129-8.431
					S756.682,440.788,713.385,460.885z"/>
				<path fill="#282826" d="M620.186,460.885c0,0-32.837,48.502-100.107,22.939c-18.133-8.431-18.133-8.431-18.133-8.431
					S576.894,440.788,620.186,460.885z"/>
				<path fill="#47261E" d="M751.198,125.543c0,0,40.208-37.977,40.952-49.146c-15.637,4.463-32.016,5.953-32.016,5.953
					s18.617-37.968,22.334-43.172c-33.5,0.741-55.104,23.08-64.025,13.399c-8.937-9.68-2.971-38.711-2.971-38.711
					s-36.482,8.186-49.886,26.793C653.669,25.77,636.554-1.029,636.554-1.029s-27.551,50.628-27.551,58.82
					c-8.938-7.452-17.122-20.851-17.122-20.851s-23.824,14.889-26.8,53.605c-11.913,6.698-55.095,8.932-66.26,11.919
					c4.459,15.624,52.112,38.708,34.995,42.426c-16.388,2.239-14.9,5.213-14.9,5.213s-8.93,2.978,0,8.196
					c2.976,7.442-11.899,23.815-22.329,23.815c14.147,2.238,17.123,4.469,27.543,8.936
					C552.418,186.584,733.336,181.375,751.198,125.543z"/>
				<path fill="#89523D" d="M933.606,476.941c-22.331-14.888-22.331-14.888-22.331-14.888s15.634-53.601,12.65-62.542
					c-4.473-8.931-8.939-12.654-8.939-12.654s-3.711-96.042-42.432-108.7c-24.574-16.378-32.75-57.325-31.266-87.847
					c-6.698-29.037-41.557-85.616-103.365-89.345C729.014,96.887,693,87.256,657,86.922v-0.013v0.008c0,0,0,0,0-0.008v0.013
					c-29,0.334-68.607,9.965-77.508,14.044c-61.813,3.729-93.904,60.308-100.61,89.345c1.496,30.522-6.372,71.468-30.933,87.847
					c-38.722,12.658-42.276,108.7-42.276,108.7s-4.378,3.724-8.85,12.654c-2.977,8.941,12.698,62.542,12.698,62.542
					s0.028,0-22.312,14.888c-14.139,27.543,25.324,58.811,25.324,58.811c53.606-81.885,178.445-72.205,217.159-76.677
					c10.405-0.09,51.012-0.09,61.392,0c38.728,4.472,163.697-5.208,217.303,76.677C908.388,535.752,947.754,504.485,933.606,476.941
					z"/>
				<path fill="#1B4C18" d="M545.985,532.132c0-11.467-13.886-20.759-31.024-20.759c-17.142,0-31.027,9.292-31.027,20.759
					c0,11.455,13.886,20.743,31.027,20.743C532.1,552.875,545.985,543.586,545.985,532.132z"/>
				<path fill="#1B4C18" d="M845.283,535.102c0-11.463-13.907-20.751-31.031-20.751c-17.146,0-31.039,9.288-31.039,20.751
					c0,11.458,13.893,20.75,31.039,20.75C831.376,555.852,845.283,546.56,845.283,535.102z"/>
				<path fill="#0F0F0F" d="M944.028,578.196c-2.98,17.863-25.318,28.283-46.159,34.24c58.073-49.133,38.717-81.893,31.267-102.729
					c-1.279,12.798-6.979,12.388-30.334,16.756c18.693-7.546,31.564-29.834,30.334-42.079c-2.973,11.91-32.748,14.889-44.662,20.859
					c-7.456,13.394-61.056,38.704-61.056,38.704s-18.361-1.99-18.361,32.258c0,34.246-83.396,85.867-83.396,85.867l-57.554,1.958
					l-57.273-1.958c0,0-83.072-51.621-83.072-85.867c0-34.248-18.364-32.258-18.364-32.258s-53.601-25.31-61.047-38.704
					c-11.917-5.97-41.702-8.949-44.671-20.859c-1.232,12.245,11.644,34.533,30.337,42.079c-23.352-4.369-29.056-3.958-30.337-16.756
					c-7.447,20.837-26.807,53.597,31.268,102.729c-20.852-5.957-43.195-16.377-46.164-34.24
					c-1.493,34.24-17.872,93.795,71.473,122.097c-22.348,2.979-53.613,4.459-64.036,8.932
					c14.879,19.35,77.403,69.978,116.111,75.937c-11.91,17.876-11.944,17.876-11.944,17.876s56.501,28.281,110.111-5.954
					c4.464-7.456,4.311-17.431,4.311-17.431S615.794,814,659.629,816h8.936c43.869-2,49.135-36.348,49.135-36.348
					s0,8.707,4.469,16.154c53.604,34.248,110.179,6.59,110.179,6.59s0,0.316-11.909-17.545
					c38.718-5.958,101.252-56.426,116.148-75.788c-10.423-4.468-41.698-5.882-64.031-8.853
					C961.895,671.919,945.522,612.437,944.028,578.196z"/>
				<g>
					<defs>
						<path id="SVGID_3_" d="M814.418,546.136c0,0-12.349-11.667-24.699-5.494C773.885,613.373,705.054,637,664.296,646h-0.258l0,0
							h0.592c-40.767-9-109.245-32.627-125.086-105.357c-12.345-6.174-24.72,6.883-24.72,6.883s2.167,149.668,149.757,149.668
							C812.176,697.193,814.418,546.136,814.418,546.136z"/>
					</defs>
					<clipPath id="SVGID_4_">
						<use xlink:href="#SVGID_3_"  overflow="visible"/>
					</clipPath>
					<g clip-path="url(#SVGID_4_)">
						<path fill="#FFFFFF" d="M815.898,546.136c0,0-12.342-11.667-24.693-5.494C775.356,613.373,706.554,637,665.779,646h-0.251l0,0
							h0.586c-40.758-9-109.241-32.627-125.077-105.357c-12.35-6.174-24.729,6.883-24.729,6.883s2.174,149.668,149.767,149.668
							C813.659,697.193,815.898,546.136,815.898,546.136z"/>
						<path fill="#FFFFFF" d="M666.074,697.377c-76.619,0-114.758-41.068-132.175-75.524C515.053,584.573,513,546.782,513,546.412
							v-0.285l1.467-0.212c0.364-0.407,9.318-9.837,19.373-9.837c2.398,0,5.025,0.542,7.193,1.633l0.482,0.163l0.161,0.347
							c16.315,74.937,88.379,99.806,124.221,102.497c35.98-2.699,108.244-27.583,124.564-102.497l0.087-0.347l0.324-0.163
							c2.189-1.101,4.54-1.652,6.984-1.652c9.998,0,18.252,9.193,18.595,9.586l0.204,0.208l-0.02,0.289
							c0,0.384-0.775,38.234-19.646,75.584C779.563,656.239,742.693,697.377,666.074,697.377z M517.063,546.673
							c0.099,3.593,1.628,39.305,19.464,74.556c17.235,34.062,53.71,74.663,129.547,74.663c75.832,0,112.317-40.672,129.569-74.797
							c17.853-35.303,19.396-71.078,19.505-74.683c-1.291-1.358-8.781-8.864-17.291-8.864c-2.078,0-4.104,0.451-5.996,1.341
							c-7.081,32.074-26.139,58.957-54.066,77.746C716.714,630.824,693,640.374,665,642.195v0.023l-0.042-0.042
							c-24.061-1.875-50.581-11.408-71.521-25.542c-27.81-18.789-46.126-45.659-53.187-77.746c-1.878-0.872-3.783-1.323-5.836-1.323
							C525.842,537.566,518.34,545.301,517.063,546.673z"/>
					</g>
					
						<rect x="630.779" y="665.456" transform="matrix(0.0218 0.9998 -0.9998 0.0218 1319.1552 -9.8875)" clip-path="url(#SVGID_4_)" fill="#A0A0A0" width="67.703" height="7.446"/>
					<polygon clip-path="url(#SVGID_4_)" fill="#A0A0A0" points="711.937,696.552 711.102,618.824 718.543,618.736 719.386,696.466 
											"/>
					
						<rect x="721.212" y="630.513" transform="matrix(0.0622 0.9981 -0.9981 0.0622 1344.1951 -162.136)" clip-path="url(#SVGID_4_)" fill="#A0A0A0" width="74.331" height="7.444"/>
					<polygon clip-path="url(#SVGID_4_)" fill="#A0A0A0" points="793.919,632.305 771.621,567.776 778.656,565.348 800.96,629.87 
											"/>
					<polygon clip-path="url(#SVGID_4_)" fill="#A0A0A0" points="820.573,579.447 781.988,546.66 786.806,540.978 825.386,573.771 
											"/>
					<polygon clip-path="url(#SVGID_4_)" fill="#A0A0A0" points="614.59,688.386 607.153,688.176 609.075,620.268 616.524,620.471 
											"/>
					<polygon clip-path="url(#SVGID_4_)" fill="#A0A0A0" points="570.384,668.855 562.962,668.291 568.529,593.971 575.958,594.534 
											"/>
					<polygon clip-path="url(#SVGID_4_)" fill="#A0A0A0" points="533.486,635.281 526.379,633.064 549.98,557.545 557.095,559.762 
											"/>
					<polygon clip-path="url(#SVGID_4_)" fill="#A0A0A0" points="506.885,582.462 501.89,576.938 541.727,540.887 546.731,546.412 
											"/>
				</g>
				<path fill="#0F0F0F" d="M792.15,518.133c0.993,13.9-24.32,20.349-32.756,23.332c-22.835,12.411-53.1-28.792-58.566-30.274
					c-17.416-2.224-28.305,3.016-35.107,10.837c-6.799-7.821-17.704-13.061-35.11-10.837c-5.461,1.481-35.733,42.685-58.57,30.274
					c-8.438-2.983-33.749-9.432-32.761-23.332c-1.985,6.453-6.447,92.813,65.513,91.827c7.776-2.452,40.485-2.583,60.929-28.374
					c20.438,25.791,53.139,25.922,60.915,28.374C798.6,610.946,794.135,524.586,792.15,518.133z"/>
				<g>
					<path fill="none" d="M911.275,462.054c0,0,15.634-53.601,12.65-62.542c-4.473-8.931-8.939-13.729-8.939-13.729
						s-0.09,0.217-0.402-7.783h-62.229l44.498-75.998c-0.162-0.333-0.323-0.103-0.478-0.423l-44.665,76.916L792.786,276h78.721
						c-23.743-13-31.68-56.319-30.218-86.401c-6.698-29.028-41.557-85.269-103.365-88.982C729.014,96.528,693,87.256,657,86.922
						v-0.013v0.008c0,0,0,0,0-0.008v0.013c-29,0.334-68.607,9.965-77.508,14.044c-61.813,3.729-93.904,59.605-100.61,88.633
						c1.471,30.083-5.809,73.401-29.568,86.401H553.28l-58.934,102.767l-55.494-95.792c-0.249,0.189-0.479-0.534-0.712-0.327
						L493.713,378h-87.459c-0.319,8-0.419,7.783-0.419,7.783s-4.461,4.261-8.931,13.192c-2.975,8.935,12.658,62.808,12.658,62.808
						s0,0.131-22.339,15.034c-14.135,27.543,25.319,58.869,25.319,58.869c53.607-81.885,178.437-72.179,217.157-76.638
						c10.39-0.09,51.003-0.088,61.387,0.002c38.719,4.477,163.697-5.2,217.303,76.689c0,0,39.366-31.262,25.219-58.8
						C911.275,462.054,911.275,462.054,911.275,462.054z M494.98,378l58.926-102.063L612.829,378H494.98z M554.547,276h117.846
						l-58.922,102.063L554.547,276z M614.114,378l58.914-102.063L731.953,378H614.114z M673.665,276h117.846l-58.915,102.063
						L673.665,276z M733.228,378l58.923-102.063L851.072,378H733.228z"/>
					<path fill="#47261E" d="M553.28,276H449.313c-0.338,0-0.687,1.213-1.033,1.449c-3.416,1.119-6.548,3.237-9.428,5.525
						l55.494,95.614L553.28,276z"/>
					<polygon fill="#47261E" points="554.547,276 613.471,378.063 672.393,276 					"/>
					<polygon fill="#47261E" points="673.665,276 732.596,378.063 791.511,276 					"/>
					<path fill="#47261E" d="M851.71,378.767l44.665-77.009c-5.913-11.566-13.668-21.166-23.82-24.478
						c-0.353-0.243-0.699-1.28-1.048-1.28h-78.721L851.71,378.767z"/>
					<path fill="#891F38" d="M405.834,379.411c0,0,510.168,20.886,509.152,7.446c-1.001-13.448-0.402-6.714-0.402-6.714
						l-507.566-8.391L405.834,379.411z"/>
					<path fill="#891F38" d="M438.14,281.732C414.085,301.761,407.747,359,406.253,378h87.459L438.14,281.732z"/>
					<polygon fill="#891F38" points="494.98,378 612.829,378 553.906,275.937 					"/>
					<polygon fill="#891F38" points="614.114,378 731.953,378 673.028,275.937 					"/>
					<polygon fill="#891F38" points="733.228,378 851.072,378 792.15,275.937 					"/>
					<path fill="#891F38" d="M914.584,378c-1.151-19-5.131-51.684-17.731-77.079L852.354,378H914.584z"/>
				</g>
				<path fill="#47261E" d="M911.275,462.054c0,0,0,0,22.331,14.888c14.147,27.543-25.219,58.811-25.219,58.811
					c-53.605-81.885-178.584-72.205-217.303-76.677c-10.384-0.09-50.997-0.09-61.387,0c-38.721,4.472-163.55-5.208-217.157,76.677
					c0,0-39.454-31.267-25.319-58.811c22.339-14.888,22.339-14.888,22.339-14.888S646.236,348.889,911.275,462.054z"/>
				<path fill="#0F0F0F" d="M633.111,486.708c0,0-117.89-39.394-135.932-45.641C538.536,424.812,603.758,409.837,633.111,486.708z"
					/>
				<path fill="#0F0F0F" d="M705.248,486.708c0,0,117.894-39.394,135.935-45.641C799.826,424.812,734.595,409.837,705.248,486.708z"
					/>
			</g>
		</g>
	</g>
</g>
</svg>
