<?xml version="1.0" encoding="utf-8"?>
<!-- Generator: Adobe Illustrator 16.0.0, SVG Export Plug-In . SVG Version: 6.00 Build 0)  -->
<!DOCTYPE svg PUBLIC "-//W3C//DTD SVG 1.1//EN" "http://www.w3.org/Graphics/SVG/1.1/DTD/svg11.dtd">
<svg version="1.1" id="Calque_1" xmlns="http://www.w3.org/2000/svg" xmlns:xlink="http://www.w3.org/1999/xlink" x="0px" y="0px"
	 width="1058.073px" height="853px" viewBox="0 0 1058.073 853" enable-background="new 0 0 1058.073 853" xml:space="preserve">
<g>
	<path fill="#560E22" d="M543.712,542.201c0,0,380.197-27.004,323.154,0.522c0.396,0.847,0.206,1.786,0.206,2.785v0.883
		c0,3.663-2.109,5.609-5.771,5.609h-0.884c-0.79,0-1.542,0.343-2.242,0.092c-0.52,1.25-1.516,3.084-3.503,5.267
		c-22.793,24.989-186.231,194.774-263.883,290.385c-77.905-15.827-146.891-79.909-146.891-79.909S531.584,571.348,543.712,542.201z"
		/>
	<path fill="#560E22" d="M329.528,539.373c0,0-379.742-27.004-322.701,0.521c-0.395,0.852,0.246,1.786,0.246,2.785v0.882
		c0,3.664,1.207,8.439,4.867,8.439h0.884c0.789,0,1.542-1.069,2.242-1.321c0.521,1.251,1.516,2.377,3.501,4.556
		c22.794,24.988,186.232,194.43,263.884,290.038c77.906-15.829,146.891-80.084,146.891-80.084S341.657,568.523,329.528,539.373z"/>
	<g>
		<g>
			<path fill="#EFD4AF" d="M662.512,573.233c0,128.774-104.402,233.159-233.166,233.159c-128.774,0-233.17-104.385-233.17-233.159
				c0-128.773,104.396-233.167,233.17-233.167C558.11,340.067,662.512,444.46,662.512,573.233z"/>
			<path fill="#636363" d="M413.397,476.854c0,0-44.866,66.255-136.752,31.332c-24.767-11.511-24.767-11.511-24.767-11.511
				S354.25,449.406,413.397,476.854z"/>
			<path fill="#636363" d="M463.933,476.854c0,0,44.861,66.255,136.752,31.332c24.769-11.511,24.769-11.511,24.769-11.511
				S523.075,449.406,463.933,476.854z"/>
			<path fill="#891F38" d="M524.557,141.515c0,0,40.611-38.365,41.363-49.647c-15.793,4.507-32.342,6.011-32.342,6.011
				s18.804-38.356,22.568-43.614c-33.846,0.752-55.67,23.314-64.688,13.533c-9.027-9.778-3.004-39.112-3.004-39.112
				s-36.851,8.278-50.396,27.074c-12.043-15.04-29.325-42.115-29.325-42.115S380.9,64.79,380.9,73.064
				C371.874,65.538,363.593,52,363.593,52s-24.065,15.045-27.073,54.157c-12.029,6.767-55.66,9.026-66.933,12.038
				c4.506,15.792,52.644,39.107,35.348,42.866c-16.553,2.259-15.045,5.263-15.045,5.263s-9.03,3.012,0,8.278
				c3.009,7.523-12.029,24.067-22.563,24.067c14.289,2.26,17.301,4.511,27.821,9.027
				C323.735,203.18,506.504,197.922,524.557,141.515z"/>
			<path fill="#4F4F4F" d="M708.831,496.514c-22.564-15.045-22.564-15.045-22.564-15.045s15.797-54.147,12.781-63.174
				c-4.516-9.026-9.03-12.79-9.03-12.79s-3.751-97.023-42.87-109.812c-24.819-16.545-33.08-57.912-31.586-88.749
				c-6.762-29.334-42.139-86.499-104.578-90.262c-8.996-4.12-46.91-13.85-81.91-14.185v-0.013v0.004c0,0,0,0,0-0.004v0.013
				c-27,0.335-69.152,10.065-78.145,14.185c-62.447,3.763-94.793,60.927-101.571,90.262c1.517,30.837-6.393,72.204-31.2,88.749
				c-39.122,12.789-42.692,109.812-42.692,109.812s-4.414,3.764-8.935,12.79c-3.008,9.026,12.838,63.174,12.838,63.174
				s0.02,0-22.543,15.045c-14.29,27.827,25.588,59.416,25.588,59.416c54.154-82.726,180.275-72.944,219.389-77.459
				c10.504-0.095,51.527-0.095,62.023,0c39.111,4.516,165.373-5.267,219.53,77.459C683.355,555.93,723.123,524.34,708.831,496.514z"
				/>
			<path fill="#EF2626" d="M317.234,552.266c0-11.581-14.028-20.959-31.342-20.959c-17.32,0-31.349,9.378-31.349,20.959
				c0,11.582,14.028,20.967,31.349,20.967C303.206,573.233,317.234,563.848,317.234,552.266z"/>
			<path fill="#EF2626" d="M619.599,555.27c0-11.574-14.041-20.964-31.351-20.964c-17.318,0-31.355,9.391-31.355,20.964
				c0,11.577,14.037,20.968,31.355,20.968C605.558,576.238,619.599,566.846,619.599,555.27z"/>
			<path fill="#161616" d="M719.354,598.813c-3.007,18.044-25.574,28.569-46.629,34.584c58.668-49.634,39.112-82.735,31.584-103.777
				c-1.286,12.928-7.043,12.511-30.641,16.926c18.883-7.626,31.884-30.141,30.641-42.51c-3.001,12.029-33.084,15.037-45.116,21.063
				c-7.532,13.542-61.684,39.104-61.684,39.104s-18.548-2.008-18.548,32.593c0,34.597-84.247,86.751-84.247,86.751l-58.146,1.977
				l-57.868-1.977c0,0-83.925-52.154-83.925-86.751c0-34.601-18.548-32.593-18.548-32.593s-54.152-25.562-61.675-39.104
				c-12.03-6.027-42.128-9.035-45.122-21.063c-1.252,12.369,11.758,34.883,30.642,42.51c-23.588-4.415-29.352-3.998-30.642-16.926
				c-7.529,21.042-27.089,54.143,31.581,103.777c-21.057-6.015-43.635-16.54-46.637-34.584
				c-1.508,34.584-18.055,94.751,72.208,123.341c-22.58,3.008-54.166,4.502-64.693,9.026
				c15.036,19.551,78.197,70.701,117.303,76.715c-12.027,18.058-12.068,18.058-12.068,18.058s57.076,28.577,111.237-6.02
				c4.516-7.525,4.36-19.123,4.36-19.123S387.761,832,432.044,836h9.026c44.316-4,49.637-35.189,49.637-35.189s0,9.553,4.516,17.075
				c54.152,34.6,111.307,7.044,111.307,7.044s0,0.509-12.032-17.543c39.116-6.015,102.294-56.91,117.34-76.457
				c-10.529-4.52-42.12-5.9-64.69-8.899C737.407,693.451,720.863,633.397,719.354,598.813z"/>
			<g>
				<defs>
					<path id="SVGID_1_" d="M588.417,566.42c0,0-12.476-11.946-24.953-5.71C547.467,634.197,477.936,658,436.759,667h-0.261l0,0h0.6
						c-41.189-9-110.369-32.803-126.374-106.29c-12.468-6.236-24.972,7.035-24.972,7.035s2.191,151.248,151.29,151.248
						C586.15,718.993,588.417,566.42,588.417,566.42z"/>
				</defs>
				<clipPath id="SVGID_2_">
					<use xlink:href="#SVGID_1_"  overflow="visible"/>
				</clipPath>
				<g clip-path="url(#SVGID_2_)">
					<path fill="#FFFFFF" d="M589.911,566.42c0,0-12.467-11.946-24.942-5.71C548.958,634.197,479.444,658,438.253,667h-0.251l0,0
						h0.591c-41.172-9-110.361-32.803-126.366-106.29c-12.463-6.236-24.975,7.035-24.975,7.035s2.194,151.248,151.306,151.248
						C587.643,718.993,589.911,566.42,589.911,566.42z"/>
					<path fill="#FFFFFF" d="M438.558,719.213c-77.41,0-113.862-41.489-131.454-76.298c-19.043-37.661-19.031-75.843-19.031-76.217
						v-0.287l-0.594-0.217c0.355-0.404,8.368-9.935,18.528-9.935c2.416,0,4.566,0.548,6.751,1.652l0.219,0.156l0.029,0.356
						c16.483,75.699,89.225,100.822,125.433,103.546c36.35-2.724,109.325-27.865,125.813-103.546l0.068-0.356l0.318-0.156
						c2.215-1.113,4.584-1.678,7.057-1.678c10.094,0,18.435,9.297,18.777,9.692l0.205,0.212l-0.016,0.287
						c-0.007,0.387-0.784,38.621-19.846,76.359C553.208,677.65,515.961,719.213,438.558,719.213z M288.013,566.967
						c0.104,3.625,1.643,39.703,19.665,75.313c17.421,34.412,54.257,75.433,130.88,75.433c76.608,0,113.46-41.093,130.895-75.568
						c18.034-35.661,19.6-71.804,19.708-75.447c-1.313-1.373-8.879-8.96-17.47-8.96c-2.103,0-4.15,0.465-6.067,1.365
						c-7.148,32.398-25.6,59.554-53.813,78.545c-21.305,14.333-47.738,23.971-72.738,25.814v0.025l-0.844-0.039
						c-24.318-1.904-51.497-11.526-72.662-25.801c-28.09-18.991-46.792-46.134-53.929-78.545c-1.895-0.887-3.924-1.338-5.996-1.338
						C296.983,557.764,289.304,565.572,288.013,566.967z"/>
				</g>
				<polygon clip-path="url(#SVGID_2_)" fill="#A0A0A0" points="434.083,725 432.587,656.62 440.106,656.446 441.601,724.835 				
					"/>
				<polygon clip-path="url(#SVGID_2_)" fill="#A0A0A0" points="484.892,718.378 484.041,639.851 491.564,639.768 492.411,718.287 
									"/>
				<polygon clip-path="url(#SVGID_2_)" fill="#A0A0A0" points="530.384,693.125 525.712,618.182 533.218,617.718 537.893,692.66 
									"/>
				<polygon clip-path="url(#SVGID_2_)" fill="#A0A0A0" points="567.715,653.474 545.182,588.288 552.297,585.828 574.824,651.015 
									"/>
				<polygon clip-path="url(#SVGID_2_)" fill="#A0A0A0" points="594.637,600.069 555.65,566.946 560.527,561.21 599.5,594.343 				
					"/>
				<polygon clip-path="url(#SVGID_2_)" fill="#A0A0A0" points="386.54,710.126 379.031,709.916 380.968,641.315 388.495,641.515 
									"/>
				<polygon clip-path="url(#SVGID_2_)" fill="#A0A0A0" points="341.883,690.396 334.381,689.826 340.014,614.744 347.511,615.313 
									"/>
				<polygon clip-path="url(#SVGID_2_)" fill="#A0A0A0" points="304.605,656.482 297.421,654.244 321.275,577.944 328.455,580.183 
									"/>
				
					<rect x="291.57" y="554.979" transform="matrix(0.6706 0.7418 -0.7418 0.6706 529.0734 -27.3461)" clip-path="url(#SVGID_2_)" fill="#A0A0A0" width="7.523" height="54.276"/>
			</g>
			<path fill="#161616" d="M565.92,538.129c1.004,14.045-24.567,20.56-33.089,23.571c-23.072,12.542-53.648-29.09-59.168-30.584
				c-17.592-2.251-28.591,3.042-35.466,10.95c-6.871-7.908-17.891-13.202-35.474-10.95c-5.52,1.495-36.097,43.127-59.172,30.584
				c-8.519-3.011-34.089-9.525-33.098-23.571c-2.004,6.523-6.515,93.764,66.19,92.768c7.852-2.481,40.896-2.61,61.553-28.669
				c20.646,26.059,53.683,26.188,61.536,28.669C572.433,631.894,567.931,544.652,565.92,538.129z"/>
			<g>
				<path fill="none" d="M686.266,481.469c0,0,15.797-54.147,12.781-63.174c-4.516-9.026-9.03-11.648-9.03-11.648
					S689.93,405,689.603,401h-62.864l44.952-79c-0.156-0.33-0.321-1.214-0.479-1.531l-45.121,76.887L566.563,293h79.531
					c-23.988-13-32.012-56.637-30.533-87.027c-6.762-29.329-42.139-86.021-104.578-89.775c-8.996-4.12-46.91-13.365-81.91-13.7
					v-0.013v0.004c0,0,0,0,0-0.004v0.013c-27,0.335-69.152,10.065-78.145,14.185c-62.447,3.763-94.793,59.961-101.571,89.29
					c1.484,30.391-5.784,74.027-29.781,87.027H324.6l-59.534,104.073l-56.067-96.642c-0.245,0.191-0.479,1.754-0.719,1.958
					L264.427,401h-88.356c-0.324,4-0.422,5.646-0.422,5.646s-4.515,3.188-9.026,12.216c-3.008,9.025,12.79,62.897,12.79,62.897
					s0-0.149-22.568,14.905C142.554,524.491,182.419,556,182.419,556c54.153-82.734,180.271-72.988,219.387-77.494
					c10.491-0.097,51.519-0.121,62.019-0.024c39.111,4.52,165.373-5.277,219.53,77.452c0,0,39.768-31.594,25.476-59.42
					C686.266,481.47,686.266,481.469,686.266,481.469z M265.707,401l59.532-103.104L384.766,401H265.707z M325.882,293h119.051
					l-59.522,103.112L325.882,293z M386.062,401l59.52-103.104L505.11,401H386.062z M446.225,293h119.052l-59.515,103.112
					L446.225,293z M506.395,401l59.525-103.104L625.447,401H506.395z"/>
				<path fill="#C6C6C6" d="M324.6,293H219.576c-0.348,0-0.695,1.487-1.051,1.718c-3.448,1.138-6.617,3.41-9.526,5.714
					l56.067,96.397L324.6,293z"/>
				<polygon fill="#C6C6C6" points="325.882,293 385.411,396.112 444.933,293 				"/>
				<polygon fill="#C6C6C6" points="446.225,293 505.762,396.112 565.277,293 				"/>
				<path fill="#C6C6C6" d="M626.091,397.073l45.121-77.668c-5.967-11.682-13.802-21.572-24.065-24.919
					c-0.348-0.247-0.705-1.486-1.053-1.486h-79.531L626.091,397.073z"/>
				<path fill="#891F38" d="M175.649,397.983c0,0,515.398,21.103,514.368,7.522c-1.013-13.582-0.414-6.78-0.414-6.78l-512.763-8.474
					L175.649,397.983z"/>
				<path fill="#891F38" d="M208.28,303.75C183.973,323.988,177.577,378,176.071,401h88.356L208.28,303.75z"/>
				<polygon fill="#891F38" points="265.707,401 384.766,401 325.239,297.896 				"/>
				<polygon fill="#891F38" points="386.062,401 505.11,401 445.582,297.896 				"/>
				<polygon fill="#891F38" points="506.395,401 625.447,401 565.92,297.896 				"/>
				<path fill="#891F38" d="M689.603,401c-1.153-23-5.179-52.21-17.912-77.863L626.739,401H689.603z"/>
			</g>
			<path fill="#0F0E05" d="M392.194,480.296c0,0-33.181,48.994-101.13,23.171c-18.317-8.518-18.317-8.518-18.317-8.518
				S348.454,459.993,392.194,480.296z"/>
			<path fill="#DDDDDD" d="M296.543,607.113c0,0,1.887,92.644,30.159,125.885C343.666,686.406,392.676,622.172,296.543,607.113z"/>
			<path fill="#DDDDDD" d="M574.85,608.51c0,0-1.887,95.775-30.16,130.142C527.729,690.483,478.721,624.075,574.85,608.51z"/>
			<path fill="#0F0E05" d="M486.343,480.296c0,0,33.177,48.994,101.144,23.171c18.314-8.518,18.314-8.518,18.314-8.518
				S530.088,459.993,486.343,480.296z"/>
			<path fill="#C6C6C6" d="M686.266,481.469c0,0,0,0,22.564,15.045c14.292,27.827-25.476,59.416-25.476,59.416
				c-54.157-82.726-180.419-72.944-219.53-77.459c-10.5-0.095-51.527-0.095-62.019,0c-39.116,4.516-165.233-5.267-219.387,77.459
				c0,0-39.865-31.589-25.575-59.416c22.568-15.045,22.568-15.045,22.568-15.045S418.507,367.15,686.266,481.469z"/>
		</g>
	</g>
	<path fill="#891F38" d="M282.451,845.044c0,0-99.072-226.414-121.174-261.197c-77.531-13.563-118.125-24.701-139.191-33.019
		c-0.083-0.044-18.716-11.256-21.275-17.336c0,0-2.366,2.004,0.989,5.84c1.124,4.082,3.52,10.409,8.618,19.352
		c0.011,0.009,0.021,0.018,0.033,0.027C62.468,661.245,282.451,845.044,282.451,845.044z"/>
	<path fill="#891F38" d="M590.79,847.873c0,0,99.075-226.414,121.174-261.197c77.531-13.563,118.125-24.702,139.189-33.02
		c0.086-0.047,18.717-11.255,21.277-17.335c0,0,2.363,2.004-0.991,5.841c-1.121,4.08-3.515,10.408-8.614,19.347
		c-0.012,0.013-0.025,0.017-0.033,0.026C810.772,664.074,590.79,847.873,590.79,847.873z"/>
</g>
</svg>
