<?xml version="1.0" encoding="utf-8"?>
<!-- Generator: Adobe Illustrator 16.0.0, SVG Export Plug-In . SVG Version: 6.00 Build 0)  -->
<!DOCTYPE svg PUBLIC "-//W3C//DTD SVG 1.1//EN" "http://www.w3.org/Graphics/SVG/1.1/DTD/svg11.dtd">
<svg version="1.1" id="Calque_1" xmlns="http://www.w3.org/2000/svg" xmlns:xlink="http://www.w3.org/1999/xlink" x="0px" y="0px"
	 width="201px" height="214px" viewBox="0 0 201 214" enable-background="new 0 0 201 214" xml:space="preserve">
<g>
	<defs>
		<rect id="SVGID_1_" width="201" height="214"/>
	</defs>
	<clipPath id="SVGID_2_">
		<use xlink:href="#SVGID_1_"  overflow="visible"/>
	</clipPath>
	<g clip-path="url(#SVGID_2_)">
		<path fill="#3D3D3D" d="M64.112,29.461c0.416,0.101,0.733,0.335,0.951,0.705c0.219,0.37,0.272,0.761,0.159,1.173
			c-0.1,0.416-0.335,0.733-0.705,0.952c-0.37,0.218-0.765,0.274-1.185,0.166l-1.944-0.5c-0.803,1.931-2.106,3.429-3.908,4.495
			c-2.233,1.32-4.613,1.659-7.141,1.016c-2.525-0.655-4.448-2.099-5.768-4.331c-1.325-2.24-1.663-4.621-1.016-7.141
			c0.655-2.525,2.099-4.448,4.332-5.768c2.24-1.325,4.62-1.663,7.141-1.016c2.521,0.647,4.443,2.091,5.768,4.332
			c0.986,1.667,1.417,3.463,1.293,5.389L64.112,29.461z M55.902,33.782c1.063-0.629,1.873-1.499,2.426-2.611l-1.53-0.393
			c-0.408-0.104-0.721-0.342-0.94-0.711c-0.218-0.37-0.277-0.762-0.177-1.178c0.112-0.413,0.354-0.728,0.723-0.947
			c0.369-0.218,0.758-0.275,1.167-0.17l1.429,0.376c-0.029-1.083-0.32-2.091-0.873-3.026c-0.888-1.501-2.178-2.469-3.87-2.903
			s-3.289-0.208-4.79,0.679c-1.501,0.888-2.469,2.178-2.903,3.87s-0.208,3.289,0.68,4.79c0.887,1.501,2.177,2.469,3.87,2.903
			S54.401,34.669,55.902,33.782z"/>
		<path fill="#3D3D3D" d="M73.236,9.063c0.399-0.133,0.787-0.106,1.164,0.082s0.632,0.481,0.766,0.88l3.362,10.047
			c0.589,1.762,0.469,3.474-0.36,5.138c-0.829,1.664-2.121,2.789-3.874,3.375c-1.762,0.589-3.474,0.469-5.138-0.36
			c-1.664-0.829-2.79-2.125-3.379-3.886l-3.362-10.047c-0.133-0.399-0.106-0.787,0.082-1.164s0.481-0.632,0.88-0.766
			c0.399-0.133,0.787-0.106,1.164,0.082c0.377,0.188,0.632,0.481,0.766,0.88l3.361,10.046c0.323,0.964,0.938,1.673,1.848,2.126
			c0.909,0.454,1.846,0.519,2.81,0.196c0.955-0.32,1.66-0.934,2.113-1.844c0.453-0.909,0.519-1.846,0.196-2.81l-3.361-10.046
			c-0.134-0.399-0.106-0.787,0.082-1.164C72.544,9.452,72.837,9.196,73.236,9.063z"/>
		<path fill="#3D3D3D" d="M85.671,25.516c-0.422,0.081-0.808-0.001-1.158-0.246c-0.357-0.235-0.576-0.563-0.657-0.985L80.899,8.885
			c-0.081-0.421,0.001-0.808,0.246-1.158C81.38,7.37,81.708,7.15,82.13,7.07c0.421-0.081,0.808,0.001,1.158,0.246
			c0.357,0.235,0.577,0.563,0.658,0.984L86.902,23.7c0.081,0.422-0.001,0.808-0.246,1.158
			C86.421,25.215,86.092,25.435,85.671,25.516z"/>
		<path fill="#3D3D3D" d="M98.986,23.914c-2.582,0.135-4.839-0.664-6.772-2.396c-1.925-1.742-2.955-3.903-3.09-6.485
			c-0.136-2.59,0.663-4.847,2.396-6.772c1.742-1.934,3.903-2.968,6.484-3.104c2.126-0.111,4.068,0.437,5.824,1.643
			c0.347,0.245,0.562,0.576,0.645,0.993c0.075,0.426-0.01,0.816-0.254,1.172c-0.245,0.355-0.576,0.569-0.993,0.644
			c-0.427,0.075-0.816-0.005-1.171-0.241c-1.166-0.808-2.462-1.174-3.888-1.1c-1.724,0.09-3.167,0.78-4.328,2.069
			c-1.161,1.289-1.696,2.8-1.605,4.533c0.09,1.724,0.78,3.166,2.069,4.327c1.29,1.161,2.796,1.696,4.52,1.606
			c1.627-0.085,3.008-0.702,4.142-1.849c0.299-0.305,0.664-0.46,1.094-0.465c0.43-0.004,0.798,0.147,1.104,0.456
			c0.305,0.3,0.46,0.665,0.465,1.095c0.006,0.43-0.143,0.797-0.441,1.103C103.477,22.862,101.41,23.787,98.986,23.914z"/>
		<path fill="#3D3D3D" d="M109.533,23.811c-0.416-0.056-0.757-0.256-1.02-0.601c-0.257-0.334-0.356-0.71-0.301-1.127l2.066-15.478
			c0.055-0.417,0.25-0.753,0.585-1.009c0.345-0.263,0.726-0.367,1.142-0.312c0.418,0.056,0.758,0.256,1.021,0.6
			c0.256,0.335,0.355,0.71,0.3,1.127l-0.915,6.853l8.498-6.835c0.327-0.266,0.705-0.378,1.133-0.339
			c0.418,0.047,0.759,0.239,1.023,0.574c0.266,0.327,0.375,0.7,0.328,1.118c-0.039,0.428-0.227,0.774-0.563,1.039l-7.133,5.745
			l5.589,7.708c0.245,0.351,0.335,0.734,0.271,1.15c-0.064,0.416-0.268,0.751-0.611,1.006c-0.332,0.239-0.703,0.331-1.111,0.276
			c-0.434-0.058-0.782-0.264-1.045-0.617l-5.498-7.589l-1.472,1.196l-0.56,4.195c-0.057,0.417-0.252,0.754-0.586,1.009
			C110.331,23.762,109.95,23.866,109.533,23.811z"/>
		<path fill="#3D3D3D" d="M131.916,8.983c0.412,0.118,0.72,0.366,0.922,0.743c0.213,0.371,0.26,0.763,0.143,1.175l-0.677,2.363
			c-0.118,0.413-0.366,0.725-0.746,0.935c-0.368,0.205-0.759,0.248-1.171,0.129c-0.414-0.118-0.727-0.362-0.939-0.733
			c-0.201-0.377-0.244-0.771-0.125-1.185l0.676-2.363c0.118-0.413,0.361-0.721,0.73-0.926
			C131.107,8.911,131.503,8.865,131.916,8.983z"/>
		<path fill="#3D3D3D" d="M144.583,33.549l-0.012-0.006l0.005-0.012l-3.322-15.037l-4.809,10.128
			c-0.184,0.388-0.479,0.651-0.883,0.788c-0.401,0.149-0.795,0.132-1.184-0.052c-0.388-0.184-0.65-0.479-0.788-0.883
			c-0.149-0.4-0.132-0.795,0.052-1.183l6.754-14.225c0.143-0.3,0.357-0.528,0.645-0.683c0.291-0.163,0.602-0.224,0.932-0.184
			c0.325,0.029,0.613,0.156,0.865,0.382c0.244,0.223,0.4,0.496,0.47,0.82l3.317,15.048l4.814-10.14
			c0.184-0.388,0.475-0.652,0.871-0.794c0.408-0.146,0.807-0.126,1.195,0.058c0.387,0.184,0.65,0.479,0.787,0.883
			c0.15,0.401,0.133,0.795-0.052,1.183l-6.765,14.248c-0.008,0.016-0.023,0.038-0.045,0.066c-0.016,0.032-0.025,0.051-0.029,0.059
			c-0.007,0.016-0.022,0.038-0.045,0.066c-0.016,0.032-0.031,0.053-0.046,0.065l-0.04,0.054c-0.027,0.036-0.046,0.056-0.058,0.06
			c-0.004,0.008-0.021,0.024-0.052,0.048c-0.023,0.028-0.043,0.048-0.058,0.06l-0.052,0.048l-0.064,0.042
			c-0.016,0.012-0.039,0.03-0.069,0.054l-0.052,0.019c-0.016,0.012-0.043,0.029-0.082,0.049l-0.059,0.031
			c-0.012,0.004-0.034,0.012-0.069,0.025c-0.039,0.021-0.063,0.028-0.07,0.025c-0.003,0.008-0.026,0.016-0.069,0.025
			c-0.035,0.012-0.063,0.019-0.082,0.019c0.031-0.004,0.025-0.002-0.018,0.006l-0.018,0.006c-0.086,0.018-0.164,0.029-0.234,0.034
			l-0.012-0.006c-0.079,0.002-0.155,0-0.23-0.007c-0.039,0.001-0.049,0.001-0.029,0c-0.074-0.006-0.148-0.022-0.225-0.048
			l-0.041-0.005c-0.074-0.026-0.145-0.054-0.207-0.084c-0.047-0.022-0.098-0.051-0.148-0.085c0.012,0.015,0.004,0.011-0.023-0.012
			c-0.045-0.03-0.08-0.057-0.108-0.08c0.005,0.012-0.01,0-0.042-0.034c-0.035-0.027-0.063-0.05-0.084-0.069
			c-0.008-0.004-0.02-0.019-0.035-0.046c-0.037-0.026-0.063-0.053-0.078-0.081c-0.016-0.008-0.028-0.023-0.037-0.046
			c-0.023-0.031-0.046-0.056-0.066-0.075c-0.016-0.027-0.025-0.046-0.029-0.058c-0.017-0.027-0.035-0.06-0.056-0.099
			c-0.017-0.027-0.026-0.047-0.03-0.058c-0.025-0.051-0.045-0.099-0.063-0.146l-0.006-0.018l0.006-0.012
			c-0.017-0.047-0.025-0.07-0.025-0.07S144.592,33.592,144.583,33.549z"/>
		<path fill="#3D3D3D" d="M163.369,23.764c0.353,0.245,0.564,0.578,0.634,1c0.082,0.42,0.001,0.806-0.244,1.159l-1.401,2.019
			c-0.246,0.353-0.582,0.567-1.008,0.645c-0.415,0.075-0.799-0.01-1.151-0.255c-0.353-0.245-0.57-0.577-0.651-0.997
			c-0.07-0.422,0.018-0.809,0.262-1.162l1.402-2.019c0.244-0.353,0.574-0.566,0.988-0.642
			C162.627,23.436,163.017,23.519,163.369,23.764z"/>
	</g>
	<path clip-path="url(#SVGID_2_)" d="M194.117,208H7.883C6.215,208,5,206.41,5,204.74v-42.85C5,160.223,6.215,159,7.883,159h34.484
		c-8.471-11-12.915-26.734-12.915-43.654c0-19.447,7.573-37.765,21.325-51.516c13.752-13.751,32.035-21.34,51.482-21.34
		c19.448,0,37.731,7.564,51.483,21.316c13.751,13.753,21.325,32.031,21.325,51.48c0,9.518-1.33,18.44-3.955,26.397
		c-2.088,6.33-5.003,12.316-8.695,17.316h31.699c1.668,0,2.883,1.223,2.883,2.891v42.85C197,206.41,195.785,208,194.117,208z
		 M11,203h180v-38h-34.882c-1.193,0-2.273-0.746-2.759-1.834c-0.486-1.09-0.286-2.386,0.512-3.272
		c10.055-11.199,15.154-26.212,15.154-44.603c0-36.815-29.951-66.771-66.766-66.771s-66.765,29.947-66.765,66.764
		c0,17.932,5.335,33.347,15.431,44.589c0.797,0.887,0.996,2.204,0.511,3.292c-0.485,1.09-1.567,1.835-2.759,1.835H11V203z"/>
	<circle clip-path="url(#SVGID_2_)" fill="#E2B774" cx="100.782" cy="127.006" r="42.575"/>
	<path clip-path="url(#SVGID_2_)" fill="#0F0E05" d="M111.191,110.035c0,0,6.058,8.947,18.469,4.232
		c3.344-1.555,3.344-1.555,3.344-1.555S119.178,106.328,111.191,110.035z"/>
	<path clip-path="url(#SVGID_2_)" fill="#0F0E05" d="M93.999,110.035c0,0-6.058,8.947-18.469,4.232
		c-3.344-1.555-3.344-1.555-3.344-1.555S86.012,106.328,93.999,110.035z"/>
	<path clip-path="url(#SVGID_2_)" fill="#E8862D" d="M118.168,48.172c0,0,7.416-7.004,7.553-9.064c-2.884,0.824-5.905,1.1-5.905,1.1
		s3.434-7.005,4.12-7.967c-6.18,0.138-10.163,4.258-11.811,2.473c-1.648-1.785-0.55-7.142-0.55-7.142s-6.729,1.511-9.202,4.944
		c-2.197-2.747-5.355-7.691-5.355-7.691s-5.082,9.34-5.082,10.85c-1.648-1.373-3.158-3.846-3.158-3.846s-4.396,2.748-4.945,9.889
		c-2.197,1.236-10.163,1.648-12.223,2.197c0.824,2.885,9.613,7.143,6.455,7.828c-3.021,0.412-2.747,0.962-2.747,0.962
		s-1.648,0.55,0,1.511c0.55,1.373-2.197,4.396-4.12,4.396c2.609,0.412,3.159,0.824,5.081,1.647
		C81.498,59.435,114.871,58.473,118.168,48.172z"/>
	<path clip-path="url(#SVGID_2_)" fill="#D63E3E" d="M151.815,112.996c-4.119-2.746-4.119-2.746-4.119-2.746
		s2.884-9.889,2.334-11.537c-0.824-1.646-1.647-2.334-1.647-2.334s-0.687-17.717-7.829-20.051
		c-4.532-3.021-6.043-10.576-5.769-16.207c-1.236-5.357-7.061-15.795-18.459-16.481C114.682,42.887,108,41.11,102,41.049v-0.002
		c0,0,0,0.001,0,0.002c0-0.001,0-0.002,0-0.002v0.002c-8,0.061-13.261,1.838-14.905,2.591
		c-11.399,0.687-17.623,11.124-18.859,16.481c0.274,5.631-1.327,13.185-5.858,16.207c-7.143,2.334-7.875,20.051-7.875,20.051
		s-0.846,0.688-1.67,2.334c-0.549,1.648,2.324,11.537,2.324,11.537s-0.007,0-4.127,2.746c-2.609,5.082,4.667,10.852,4.667,10.852
		c9.888-15.107,32.917-13.322,40.059-14.146c1.917-0.016,9.407-0.016,11.323,0c7.142,0.824,30.197-0.961,40.086,14.146
		C147.164,123.848,154.425,118.078,151.815,112.996z"/>
	<path clip-path="url(#SVGID_2_)" fill="#E8862D" d="M147.696,110.25c0,0,0,0,4.119,2.746c2.609,5.082-4.651,10.852-4.651,10.852
		c-9.889-15.107-32.944-13.322-40.086-14.146c-1.916-0.016-9.408-0.016-11.324,0c-7.143,0.824-30.172-0.961-40.061,14.146
		c0,0-7.279-5.77-4.67-10.852c4.121-2.746,4.121-2.746,4.121-2.746S98.803,89.375,147.696,110.25z"/>
	<ellipse clip-path="url(#SVGID_2_)" fill="#F45D5D" cx="74.588" cy="123.178" rx="5.725" ry="3.828"/>
	<ellipse clip-path="url(#SVGID_2_)" fill="#F45D5D" cx="129.798" cy="123.727" rx="5.726" ry="3.828"/>
	<path clip-path="url(#SVGID_2_)" fill="#3D3D3D" d="M153.738,131.676c-0.549,3.295-4.67,5.219-8.516,6.316
		c10.713-9.064,7.143-15.107,5.77-18.953c-0.236,2.363-1.289,2.289-5.596,3.094c3.447-1.391,5.821-5.504,5.596-7.762
		c-0.549,2.197-6.043,2.746-8.241,3.846c-1.373,2.471-11.262,7.141-11.262,7.141s-3.388-0.365-3.388,5.953
		c0,6.316-15.383,15.84-15.383,15.84l-10.617,0.359l-10.566-0.359c0,0-15.324-9.523-15.324-15.84c0-6.318-3.389-5.953-3.389-5.953
		s-9.889-4.67-11.262-7.141c-2.197-1.1-7.691-1.648-8.24-3.846c-0.227,2.258,2.148,6.371,5.596,7.762
		c-4.307-0.805-5.359-0.73-5.596-3.094c-1.373,3.846-4.944,9.889,5.768,18.953c-3.846-1.098-7.967-3.021-8.516-6.316
		c-0.274,6.316-3.297,17.305,13.184,22.523c-4.119,0.549-9.891,0.824-11.813,1.648c2.746,3.57,14.279,12.908,21.422,14.008
		c-2.198,3.297-2.205,3.297-2.205,3.297s10.424,5.219,20.313-1.098c0.824-1.375,0.795-2.484,0.795-2.484s0.921,5.43,9.008,7.43
		h1.647c8.093-2,9.063-7.43,9.063-7.43s0,1.241,0.824,2.614c9.889,6.318,20.326,1.032,20.326,1.032s0.002-0.032-2.197-3.327
		c7.143-1.1,18.679-10.453,21.426-14.023c-1.922-0.826-7.69-1.11-11.812-1.659C157.034,148.988,154.014,137.992,153.738,131.676z"/>
	<g clip-path="url(#SVGID_2_)">
		<defs>
			<path id="SVGID_3_" d="M129.827,125.762c0,0-2.276-2.244-4.554-1.105C122.351,138.074,109.654,144,102.135,144h-0.049l0,0h0.111
				c-7.52,0-20.152-5.926-23.076-19.344c-2.277-1.139-4.561,1.317-4.561,1.317s0.401,27.634,27.628,27.634
				C129.414,153.607,129.827,125.762,129.827,125.762z"/>
		</defs>
		<use xlink:href="#SVGID_3_"  overflow="visible" fill="#A0A0A0"/>
		<clipPath id="SVGID_4_">
			<use xlink:href="#SVGID_3_"  overflow="visible"/>
		</clipPath>
		<path clip-path="url(#SVGID_4_)" fill="#FFFFFF" stroke="#FFFFFF" stroke-miterlimit="10" d="M130.104,125.762
			c0,0-2.278-2.496-4.557-1.355c-2.922,13.418-15.618,18.094-23.137,19.094h-0.049l0,0h0.11c-7.519-1-20.153-5.676-23.075-19.094
			c-2.277-1.141-4.561,1.442-4.561,1.442s0.4,27.696,27.627,27.696S130.104,125.762,130.104,125.762z"/>
		<polygon clip-path="url(#SVGID_4_)" fill="#A0A0A0" points="101.646,153.563 101.375,142.229 102.748,142.203 103.02,153.536 		
			"/>
		<polygon clip-path="url(#SVGID_4_)" fill="#A0A0A0" points="110.925,152.882 110.77,141.558 112.142,141.546 112.298,152.871 		
			"/>
		<polygon clip-path="url(#SVGID_4_)" fill="#A0A0A0" points="119.233,149.625 118.379,135.218 119.75,135.129 120.604,149.534 		
			"/>
		<polygon clip-path="url(#SVGID_4_)" fill="#A0A0A0" points="125.838,141.033 122.206,131.057 123.353,130.682 126.983,140.656 		
			"/>
		<polygon clip-path="url(#SVGID_4_)" fill="#A0A0A0" points="129.624,131.239 125.138,127.207 125.699,126.509 130.186,130.541 		
			"/>
		<polygon clip-path="url(#SVGID_4_)" fill="#A0A0A0" points="92.966,152.771 91.593,152.727 91.949,139.436 93.322,139.477 		"/>
		<polygon clip-path="url(#SVGID_4_)" fill="#A0A0A0" points="84.812,148.4 83.442,148.302 84.469,135.277 85.839,135.373 		"/>
		<polygon clip-path="url(#SVGID_4_)" fill="#A0A0A0" points="78.366,139.843 77.164,139.502 81.157,127.865 82.358,128.208 		"/>
		<polygon clip-path="url(#SVGID_4_)" fill="#A0A0A0" points="75.225,131.051 74.611,130.307 79.5,125.454 80.112,126.197 		"/>
	</g>
	<path clip-path="url(#SVGID_2_)" fill="#3D3D3D" d="M125.721,120.596c0.184,2.564-4.486,3.754-6.043,4.305
		c-4.211,2.289-9.797-5.311-10.804-5.586c-3.212-0.41-5.222,0.557-6.477,2c-1.255-1.443-3.265-2.41-6.477-2
		c-1.007,0.275-6.593,7.875-10.804,5.586c-1.557-0.551-6.227-1.74-6.043-4.305c-0.367,1.191-1.191,17.123,12.086,16.939
		c1.434-0.453,7.467-0.475,11.237-5.234c3.771,4.76,9.805,4.781,11.237,5.234C126.911,137.719,126.088,121.787,125.721,120.596z"/>
	<g clip-path="url(#SVGID_2_)">
		<path fill="none" d="M147.696,110.25c0,0,2.884-9.889,2.334-11.537c-0.824-1.646-1.647-1.906-1.647-1.906S148.363,97,148.305,96
			h-11.479l8.209-14.648c-0.029-0.059-0.059-0.331-0.088-0.39l-8.239,14.567L125.84,77h14.521c-4.381-3-5.846-10.925-5.576-16.474
			c-1.236-5.356-7.061-15.997-18.459-16.683C114.682,43.089,108,41.11,102,41.049v-0.002c0,0,0,0.001,0,0.002
			c0-0.001,0-0.002,0-0.002v0.002c-8,0.061-13.261,1.838-14.905,2.591c-11.399,0.687-17.623,11.53-18.859,16.886
			C68.506,66.075,66.859,74,62.479,77h19.177l-10.87,18.422L60.546,77.485c-0.044,0.033-0.087,0.393-0.13,0.43L70.668,96H54.535
			c-0.061,1-0.078,0.807-0.078,0.807s-0.824,0.474-1.648,2.122c-0.549,1.646,2.336,11.429,2.336,11.429s0-0.054-4.121,2.694
			c-2.609,5.082,4.67,10.822,4.67,10.822c9.889-15.107,32.918-13.335,40.061-14.161c1.916-0.016,9.408-0.021,11.324-0.005
			c7.142,0.824,30.197-0.965,40.086,14.143c0,0,7.261-5.77,4.651-10.852C147.696,110.253,147.696,110.25,147.696,110.25z M70.902,96
			l10.87-18.826L92.643,96H70.902z M81.891,77h21.738L92.76,95.827L81.891,77z M92.877,96l10.869-18.826L114.616,96H92.877z
			 M103.864,77h21.739l-10.869,18.827L103.864,77z M114.852,96l10.869-18.826L136.591,96H114.852z"/>
		<path fill="#E8862D" d="M81.655,77H62.479c-0.064,0-0.127-0.313-0.193-0.268c-0.629,0.205-1.207,0.331-1.739,0.753l10.239,18.036
			L81.655,77z"/>
		<polygon fill="#E8862D" points="81.891,77 92.76,95.827 103.629,77 		"/>
		<polygon fill="#E8862D" points="103.864,77 114.734,95.827 125.604,77 		"/>
		<path fill="#E8862D" d="M136.708,95.422l8.239-14.472c-1.09-2.133-2.519-3.504-4.394-4.117C140.488,76.79,140.426,77,140.361,77
			H125.84L136.708,95.422z"/>
		<path fill="#891F38" d="M54.457,95.006c0,0,94.111,3.854,93.926,1.373c-0.187-2.48-0.078-1.236-0.078-1.236l-93.631-1.551
			L54.457,95.006z"/>
		<path fill="#891F38" d="M60.416,78.242C55.978,81.938,54.81,92,54.535,96h16.133L60.416,78.242z"/>
		<polygon fill="#891F38" points="70.902,96 92.643,96 81.772,77.174 		"/>
		<polygon fill="#891F38" points="92.877,96 114.616,96 103.746,77.174 		"/>
		<polygon fill="#891F38" points="114.852,96 136.591,96 125.721,77.174 		"/>
		<path fill="#891F38" d="M148.305,96c-0.211-3-0.945-9.534-3.27-14.219L136.826,96H148.305z"/>
	</g>
	<g clip-path="url(#SVGID_2_)">
		<path fill="#E8862D" d="M36.55,171.221c0.415,0.119,0.753,0.354,1.015,0.703c0.262,0.338,0.393,0.725,0.393,1.162v19.668
			c0,0.533-0.186,0.986-0.556,1.357c-0.382,0.383-0.84,0.572-1.375,0.572c-0.535,0-0.993-0.189-1.375-0.572
			c-0.371-0.371-0.556-0.824-0.556-1.357v-12.73l-6.104,10.078v0.018l-0.016,0.016l-0.017,0.018l-0.016,0.016
			c-0.033,0.055-0.055,0.094-0.065,0.115l-0.049,0.064c-0.043,0.045-0.071,0.072-0.082,0.082c-0.011,0.012-0.033,0.033-0.065,0.066
			c-0.033,0.031-0.055,0.055-0.066,0.064c-0.022,0.021-0.055,0.049-0.098,0.082l-0.049,0.049c-0.033,0.021-0.071,0.043-0.115,0.066
			c0,0.01-0.005,0.016-0.016,0.016l-0.017,0.016h-0.016c-0.022,0.023-0.06,0.045-0.115,0.066c-0.043,0.021-0.06,0.033-0.049,0.033
			c-0.011,0-0.044,0.01-0.098,0.031c-0.251,0.109-0.513,0.158-0.786,0.148h-0.033c0.022,0,0-0.006-0.065-0.018
			c-0.142-0.01-0.284-0.037-0.425-0.08c-0.055-0.012-0.077-0.018-0.065-0.018c0.021,0.012,0,0.006-0.065-0.016
			c-0.055-0.021-0.093-0.039-0.115-0.049c0.011,0,0-0.012-0.033-0.033c-0.055-0.021-0.098-0.043-0.131-0.066h-0.017l-0.016-0.016
			l-0.017-0.016c-0.043-0.023-0.082-0.051-0.114-0.082c0,0.01-0.017,0-0.049-0.033c-0.043-0.033-0.076-0.061-0.098-0.082
			c-0.011-0.01-0.033-0.033-0.065-0.064c-0.033-0.033-0.055-0.055-0.065-0.066c-0.011-0.021-0.038-0.049-0.082-0.082
			c-0.022-0.033-0.033-0.055-0.033-0.064c-0.022-0.021-0.049-0.061-0.082-0.115l-0.017-0.016c0-0.012-0.005-0.018-0.016-0.018
			v-0.016c0-0.012-0.006-0.018-0.017-0.018l-6.087-10.078v12.73c0,0.533-0.191,0.986-0.573,1.357
			c-0.382,0.383-0.84,0.572-1.374,0.572c-0.535,0-0.988-0.189-1.358-0.572c-0.382-0.371-0.573-0.824-0.573-1.357v-19.668
			c0-0.438,0.131-0.824,0.393-1.162c0.262-0.35,0.605-0.584,1.031-0.703c0.414-0.109,0.823-0.088,1.227,0.064
			c0.403,0.164,0.72,0.432,0.949,0.803l8.05,13.303l8.051-13.303c0.218-0.371,0.529-0.639,0.933-0.803
			c0.403-0.152,0.605-0.229,0.605-0.229S36.125,171.111,36.55,171.221z"/>
		<path fill="#E8862D" d="M59.612,171.221c0.523,0,0.971,0.186,1.342,0.555c0.371,0.371,0.556,0.818,0.556,1.342v13.189
			c0,2.313-0.818,4.287-2.454,5.924c-1.636,1.635-3.605,2.453-5.907,2.453c-2.313,0-4.287-0.818-5.923-2.453
			c-1.636-1.637-2.454-3.611-2.454-5.924v-13.189c0-0.523,0.185-0.971,0.556-1.342c0.371-0.369,0.818-0.555,1.342-0.555
			c0.523,0,0.971,0.186,1.342,0.555c0.371,0.371,0.556,0.818,0.556,1.342v13.189c0,1.266,0.447,2.346,1.342,3.24
			s1.974,1.342,3.24,1.342c1.254,0,2.329-0.447,3.224-1.342c0.894-0.895,1.342-1.975,1.342-3.24v-13.189
			c0-0.523,0.185-0.971,0.556-1.342C58.641,171.406,59.089,171.221,59.612,171.221z"/>
		<path fill="#E8862D" d="M78.748,194.619c-3.229,0-5.989-1.146-8.279-3.438c-2.291-2.289-3.437-5.049-3.437-8.279
			c0-3.229,1.146-5.982,3.437-8.262c2.291-2.291,5.05-3.438,8.279-3.438c2.651,0,5.023,0.809,7.118,2.422
			c0.426,0.328,0.676,0.758,0.753,1.293c0.065,0.523-0.065,0.998-0.393,1.424s-0.753,0.67-1.276,0.736
			c-0.535,0.076-1.015-0.049-1.44-0.377c-1.407-1.08-2.995-1.619-4.762-1.619c-2.16,0-4.009,0.764-5.547,2.291
			c-1.527,1.537-2.291,3.381-2.291,5.529c0,2.16,0.764,4.01,2.291,5.547c1.538,1.527,3.387,2.291,5.547,2.291
			c2.018,0,3.774-0.682,5.269-2.045c0.021-0.021,0.06-0.055,0.114-0.098l0.017-4.287H77.75c-0.545,0-1.004-0.186-1.375-0.557
			c-0.382-0.383-0.573-0.84-0.573-1.375c0-0.533,0.191-0.992,0.573-1.375c0.371-0.381,0.829-0.572,1.375-0.572h8.345
			c0.534,0,0.992,0.191,1.375,0.572c0.381,0.383,0.572,0.842,0.572,1.375l-0.049,10.375c0,0.533-0.191,0.986-0.573,1.357
			c-0.371,0.383-0.824,0.572-1.358,0.572h-0.017c-0.437,0-0.829-0.137-1.178-0.408c-0.338-0.262-0.562-0.596-0.671-0.998
			C82.484,194.172,80.667,194.619,78.748,194.619z"/>
		<path fill="#E8862D" d="M104.837,194.619c-3.229,0-5.989-1.146-8.279-3.438c-2.291-2.289-3.437-5.049-3.437-8.279
			c0-3.229,1.146-5.982,3.437-8.262c2.291-2.291,5.05-3.438,8.279-3.438c2.651,0,5.023,0.809,7.118,2.422
			c0.426,0.328,0.676,0.758,0.752,1.293c0.066,0.523-0.064,0.998-0.393,1.424c-0.326,0.426-0.752,0.67-1.275,0.736
			c-0.535,0.076-1.016-0.049-1.44-0.377c-1.407-1.08-2.995-1.619-4.762-1.619c-2.159,0-4.009,0.764-5.547,2.291
			c-1.527,1.537-2.291,3.381-2.291,5.529c0,2.16,0.764,4.01,2.291,5.547c1.538,1.527,3.388,2.291,5.547,2.291
			c2.019,0,3.774-0.682,5.269-2.045c0.021-0.021,0.061-0.055,0.115-0.098l0.016-4.287h-6.397c-0.546,0-1.004-0.186-1.374-0.557
			c-0.383-0.383-0.573-0.84-0.573-1.375c0-0.533,0.19-0.992,0.573-1.375c0.37-0.381,0.828-0.572,1.374-0.572h8.345
			c0.535,0,0.992,0.191,1.375,0.572c0.381,0.383,0.572,0.842,0.572,1.375l-0.049,10.375c0,0.533-0.191,0.986-0.572,1.357
			c-0.371,0.383-0.824,0.572-1.358,0.572h-0.017c-0.437,0-0.829-0.137-1.178-0.408c-0.338-0.262-0.563-0.596-0.672-0.998
			C108.573,194.172,106.757,194.619,104.837,194.619z"/>
		<path fill="#E8862D" d="M122.517,194.684c-0.534,0-0.987-0.189-1.358-0.572c-0.382-0.371-0.572-0.824-0.572-1.357v-19.521
			c0-0.535,0.19-0.986,0.572-1.357c0.371-0.383,0.824-0.574,1.358-0.574s0.987,0.191,1.358,0.574
			c0.381,0.371,0.572,0.822,0.572,1.357v19.521c0,0.533-0.191,0.986-0.572,1.357C123.504,194.494,123.051,194.684,122.517,194.684z"
			/>
		<path fill="#E8862D" d="M146.921,193.947h-0.017v-0.016l-11.765-15.137v13.959c0,0.533-0.19,0.986-0.573,1.357
			c-0.371,0.383-0.823,0.572-1.357,0.572c-0.535,0-0.988-0.189-1.358-0.572c-0.382-0.371-0.573-0.824-0.573-1.357V173.15
			c0-0.414,0.121-0.785,0.36-1.113c0.24-0.338,0.557-0.572,0.949-0.703c0.382-0.141,0.774-0.152,1.179-0.033
			c0.393,0.121,0.714,0.344,0.965,0.672l11.765,15.152V173.15c0-0.533,0.186-0.986,0.557-1.357c0.382-0.383,0.84-0.572,1.374-0.572
			c0.535,0,0.987,0.189,1.358,0.572c0.382,0.371,0.573,0.824,0.573,1.357v19.635c0,0.023-0.006,0.055-0.017,0.1
			c0,0.043,0,0.07,0,0.082c0,0.021-0.006,0.055-0.017,0.098c0,0.043-0.006,0.076-0.016,0.098l-0.018,0.082
			c-0.01,0.055-0.021,0.088-0.032,0.098c0,0.012-0.011,0.039-0.032,0.082c-0.012,0.045-0.022,0.076-0.033,0.098l-0.033,0.082
			l-0.049,0.082c-0.011,0.021-0.027,0.055-0.049,0.098l-0.049,0.051c-0.012,0.021-0.033,0.055-0.066,0.098l-0.049,0.064
			c-0.011,0.012-0.032,0.033-0.064,0.066c-0.033,0.043-0.055,0.064-0.066,0.064c0,0.012-0.021,0.033-0.064,0.066
			c-0.033,0.033-0.061,0.055-0.082,0.064c0.032-0.021,0.027-0.016-0.017,0.018l-0.017,0.016c-0.088,0.066-0.17,0.121-0.246,0.164
			h-0.016c-0.088,0.043-0.175,0.082-0.262,0.115c-0.044,0.021-0.055,0.027-0.033,0.016c-0.087,0.033-0.18,0.055-0.277,0.064
			l-0.05,0.018c-0.099,0.012-0.19,0.016-0.278,0.016c-0.064,0-0.137-0.004-0.213-0.016c0.022,0.012,0.012,0.012-0.032,0
			c-0.065-0.012-0.12-0.021-0.163-0.033c0.01,0.012-0.012,0.006-0.066-0.016c-0.055-0.012-0.098-0.021-0.131-0.033
			c-0.011,0-0.032-0.012-0.064-0.033c-0.055-0.01-0.099-0.027-0.131-0.049c-0.022,0-0.045-0.01-0.066-0.033
			c-0.043-0.021-0.082-0.037-0.114-0.049c-0.032-0.021-0.055-0.037-0.065-0.049c-0.033-0.021-0.07-0.049-0.114-0.082
			c-0.033-0.021-0.056-0.037-0.065-0.049c-0.055-0.043-0.104-0.088-0.147-0.131l-0.017-0.016v-0.018
			c-0.043-0.043-0.065-0.064-0.065-0.064S146.953,193.992,146.921,193.947z"/>
		<path fill="#E8862D" d="M161.72,171.221c0.534,0,0.987,0.189,1.358,0.572c0.381,0.371,0.572,0.824,0.572,1.357v3.061
			c0,0.533-0.191,0.992-0.572,1.373c-0.371,0.371-0.824,0.557-1.358,0.557s-0.993-0.186-1.374-0.557
			c-0.371-0.381-0.557-0.84-0.557-1.373v-3.061c0-0.533,0.186-0.986,0.557-1.357C160.727,171.41,161.186,171.221,161.72,171.221z"/>
		<path fill="#E8862D" d="M187.188,187.697c-0.087,1.953-0.867,3.605-2.34,4.957c-1.483,1.354-3.251,2.029-5.301,2.029
			c-1.778,0-3.371-0.381-4.778-1.145c-1.691-0.916-2.766-2.248-3.224-3.992c-0.131-0.514-0.065-0.998,0.196-1.457
			c0.272-0.459,0.665-0.752,1.179-0.883c0.512-0.131,0.998-0.066,1.456,0.195c0.458,0.273,0.753,0.666,0.884,1.178
			c0.196,0.732,0.73,1.305,1.604,1.719c0.785,0.359,1.68,0.539,2.684,0.539c1.024,0,1.903-0.32,2.634-0.965
			c0.742-0.633,1.135-1.418,1.179-2.355c0.021-0.568-0.181-1.074-0.605-1.521c-0.677-0.721-1.812-1.092-3.404-1.113h-0.016
			c-0.044,0-0.055,0-0.033,0c-0.011,0-0.021,0-0.032,0c-2.673-0.043-4.719-0.813-6.137-2.307c-1.167-1.244-1.712-2.689-1.636-4.336
			c0.087-1.965,0.867-3.623,2.34-4.975c1.473-1.354,3.239-2.029,5.302-2.029c1.777,0,3.37,0.381,4.777,1.145
			c1.691,0.918,2.766,2.248,3.224,3.994c0.131,0.512,0.06,0.998-0.213,1.455c-0.262,0.459-0.648,0.754-1.161,0.885
			c-0.514,0.131-0.998,0.064-1.457-0.197c-0.458-0.273-0.752-0.666-0.883-1.178c-0.196-0.73-0.736-1.305-1.62-1.719
			c-0.774-0.359-1.664-0.539-2.667-0.539c-1.025,0-1.909,0.322-2.651,0.965c-0.73,0.645-1.118,1.43-1.161,2.355
			c-0.022,0.568,0.18,1.08,0.605,1.539c0.676,0.709,1.811,1.074,3.403,1.096h0.082c2.672,0.045,4.718,0.818,6.136,2.324
			C186.719,184.594,187.264,186.039,187.188,187.697z"/>
	</g>
</g>
</svg>
