<?xml version="1.0" encoding="utf-8"?>
<!-- Generator: Adobe Illustrator 16.0.0, SVG Export Plug-In . SVG Version: 6.00 Build 0)  -->
<!DOCTYPE svg PUBLIC "-//W3C//DTD SVG 1.1//EN" "http://www.w3.org/Graphics/SVG/1.1/DTD/svg11.dtd">
<svg version="1.1" id="Calque_1" xmlns="http://www.w3.org/2000/svg" xmlns:xlink="http://www.w3.org/1999/xlink" x="0px" y="0px"
	 width="764px" height="451px" viewBox="0 0 764 451" enable-background="new 0 0 764 451" xml:space="preserve">
<g>
	<defs>
		<rect id="SVGID_1_" width="764" height="451"/>
	</defs>
	<clipPath id="SVGID_2_">
		<use xlink:href="#SVGID_1_"  overflow="visible"/>
	</clipPath>
	<g clip-path="url(#SVGID_2_)">
		<g>
			<path d="M72.494,143.8c-16.115,0-31.268-6.276-42.663-17.671C18.436,114.732,12.16,99.582,12.16,83.466
				s6.275-31.268,17.671-42.662c11.396-11.396,26.548-17.672,42.663-17.672s31.268,6.275,42.663,17.672
				c11.396,11.395,17.671,26.546,17.671,42.662s-6.275,31.267-17.671,42.663C103.762,137.523,88.609,143.8,72.494,143.8z
				 M72.494,27.87c-30.656,0-55.596,24.939-55.596,55.596c0,30.655,24.939,55.597,55.596,55.597s55.596-24.941,55.596-55.597
				C128.09,52.81,103.15,27.87,72.494,27.87z"/>
			<g>
				<circle fill="#E2B774" cx="71.533" cy="94.158" r="34.971"/>
				<path fill="#0F0E05" d="M80.082,80.22c0,0,4.976,7.349,15.169,3.476c2.747-1.277,2.747-1.277,2.747-1.277
					S86.643,77.175,80.082,80.22z"/>
				<path fill="#0F0E05" d="M65.961,80.22c0,0-4.976,7.349-15.168,3.476c-2.747-1.277-2.747-1.277-2.747-1.277
					S59.401,77.175,65.961,80.22z"/>
				<path fill="#E8862D" d="M85.813,29.409c0,0,6.091-5.754,6.204-7.446c-2.369,0.677-4.851,0.902-4.851,0.902
					s2.82-5.753,3.385-6.542c-5.076,0.112-8.35,3.497-9.702,2.03c-1.354-1.467-0.45-5.866-0.45-5.866s-5.527,1.241-7.559,4.061
					c-1.806-2.256-4.398-6.316-4.398-6.316s-4.175,7.671-4.175,8.912c-1.354-1.129-2.595-3.159-2.595-3.159
					s-3.609,2.256-4.061,8.122c-1.805,1.015-8.348,1.354-10.039,1.806c0.676,2.368,7.896,5.865,5.302,6.429
					c-2.482,0.339-2.257,0.79-2.257,0.79s-1.354,0.451,0,1.241c0.451,1.128-1.804,3.609-3.384,3.609
					c2.144,0.339,2.595,0.677,4.173,1.354C55.693,38.658,83.105,37.869,85.813,29.409z"/>
				<path fill="#D63E3E" d="M113.45,82.652c-3.384-2.256-3.384-2.256-3.384-2.256s2.369-8.121,1.917-9.476
					c-0.678-1.354-1.354-1.918-1.354-1.918s-0.563-14.552-6.43-16.47c-3.723-2.481-4.962-8.686-4.737-13.311
					c-1.015-4.399-6.065-12.973-15.431-13.537C82.682,25.067,77,23.607,72,23.558v-0.002v0.001c0,0,0,0,0-0.001v0.002
					c-5,0.05-10.625,1.51-11.975,2.128c-9.365,0.564-14.344,9.138-15.359,13.537c0.227,4.625-1.023,10.829-4.744,13.311
					c-5.867,1.918-6.435,16.47-6.435,16.47s-0.678,0.564-1.355,1.918c-0.451,1.354,1.917,9.476,1.917,9.476s0,0-3.385,2.256
					c-2.143,4.174,3.836,8.911,3.836,8.911c8.122-12.407,27.037-10.94,32.902-11.618c1.576-0.014,7.729-0.014,9.302,0
					c5.867,0.678,24.803-0.789,32.925,11.618C109.629,91.563,115.594,86.826,113.45,82.652z"/>
				<path fill="#E8862D" d="M110.066,80.396c0,0,0,0,3.384,2.256c2.144,4.174-3.821,8.911-3.821,8.911
					c-8.122-12.407-27.059-10.94-32.925-11.618c-1.574-0.014-7.728-0.014-9.302,0c-5.866,0.678-24.781-0.789-32.903,11.618
					c0,0-5.979-4.737-3.836-8.911c3.385-2.256,3.385-2.256,3.385-2.256S69.907,63.25,110.066,80.396z"/>
				<ellipse fill="#F45D5D" cx="50.018" cy="91.015" rx="4.701" ry="3.145"/>
				<ellipse fill="#F45D5D" cx="95.365" cy="91.465" rx="4.702" ry="3.145"/>
				<path fill="#3D3D3D" d="M115.029,97.995c-0.451,2.706-3.836,4.285-6.994,5.188c8.799-7.444,5.866-12.408,4.737-15.565
					c-0.193,1.939-1.057,1.877-4.596,2.539c2.832-1.144,4.782-4.521,4.596-6.376c-0.45,1.805-4.962,2.256-6.767,3.16
					c-1.13,2.03-9.252,5.864-9.252,5.864s-2.781-0.301-2.781,4.889c0,5.188-12.636,13.01-12.636,13.01L72.616,111l-8.679-0.297
					c0,0-12.587-7.821-12.587-13.01c0-5.189-2.782-4.889-2.782-4.889s-8.122-3.834-9.25-5.864c-1.805-0.904-6.318-1.355-6.768-3.16
					c-0.188,1.855,1.764,5.232,4.596,6.376c-3.538-0.662-4.402-0.6-4.596-2.539c-1.129,3.157-4.063,8.121,4.736,15.565
					c-3.158-0.902-6.544-2.481-6.994-5.188c-0.227,5.188-2.708,14.211,10.829,18.499c-3.386,0.451-8.123,0.676-9.702,1.354
					c2.255,2.933,11.728,10.604,17.593,11.506c-1.804,2.708-1.81,2.708-1.81,2.708s8.561,4.286,16.684-0.902
					c0.677-1.129,0.653-2.653,0.653-2.653S65.296,133,71.938,134h1.354c6.646-1,7.444-5.494,7.444-5.494s0,1.326,0.677,2.454
					c8.122,5.189,16.694,1.002,16.694,1.002s0,0.05-1.805-2.657c5.866-0.902,15.342-8.549,17.599-11.481
					c-1.579-0.678-6.317-0.892-9.702-1.341C117.736,112.195,115.255,103.183,115.029,97.995z"/>
				<g>
					<defs>
						<path id="SVGID_3_" d="M95.391,93.137c0,0-1.871-1.902-3.742-0.967C89.249,103.19,78.82,107,72.645,108h-0.039l0,0h0.09
							c-6.177-1-16.553-4.81-18.953-15.83c-1.87-0.936-3.745,1.11-3.745,1.11s0.328,22.712,22.69,22.712
							C95.051,115.992,95.391,93.137,95.391,93.137z"/>
					</defs>
					<clipPath id="SVGID_4_">
						<use xlink:href="#SVGID_3_"  overflow="visible"/>
					</clipPath>
					<g clip-path="url(#SVGID_4_)">
						<path fill="#FFFFFF" d="M95.615,93.137c0,0-1.87-1.902-3.741-0.967C89.473,103.19,79.047,107,72.869,108h-0.038l0,0h0.089
							c-6.175-1-16.552-4.81-18.952-15.83c-1.87-0.936-3.746,1.11-3.746,1.11s0.329,22.712,22.692,22.712
							C95.275,115.992,95.615,93.137,95.615,93.137z"/>
						<path fill="#FFFFFF" d="M72.914,116.053c-11.609,0-17.249-6.223-19.888-11.443C50.171,98.961,50,93.234,50,93.179v-0.043
							l0.083-0.032c0.054-0.062,1.342-1.49,2.865-1.49c0.363,0,0.727,0.082,1.055,0.247l0.055,0.024l0.016,0.053
							c2.472,11.354,13.386,15.122,18.818,15.53c5.451-0.409,16.399-4.18,18.872-15.53l0.011-0.053l0.05-0.024
							c0.332-0.167,0.688-0.251,1.058-0.251c1.515,0,2.766,1.394,2.817,1.453l0.03,0.032l-0.002,0.043
							c-0.001,0.058-0.118,5.793-2.977,11.452C90.109,109.819,84.523,116.053,72.914,116.053z M50.336,93.219
							c0.016,0.544,0.247,5.955,2.949,11.296c2.612,5.161,8.138,11.313,19.629,11.313c11.49,0,17.018-6.163,19.633-11.334
							c2.704-5.349,2.938-10.77,2.955-11.315c-0.196-0.206-1.331-1.344-2.62-1.344c-0.315,0-0.622,0.069-0.909,0.204
							c-1.072,4.859-3.836,8.933-8.067,11.78C80.711,105.969,77,107.415,73,107.691v0.004l-0.131-0.006
							c-3.646-0.285-7.726-1.729-10.899-3.87c-4.213-2.848-7.019-6.919-8.089-11.78c-0.284-0.133-0.589-0.2-0.9-0.2
							C51.682,91.839,50.529,93.01,50.336,93.219z"/>
					</g>
					
						<rect x="67.566" y="111.216" transform="matrix(0.0218 0.9998 -0.9998 0.0218 182.8643 36.6654)" clip-path="url(#SVGID_4_)" fill="#A0A0A0" width="10.258" height="1.128"/>
					
						<rect x="74.475" y="109.469" transform="matrix(0.0108 0.9999 -0.9999 0.0108 189.5239 28.4876)" clip-path="url(#SVGID_4_)" fill="#A0A0A0" width="11.778" height="1.128"/>
					
						<rect x="81.268" y="105.921" transform="matrix(0.0622 0.9981 -0.9981 0.0622 187.7759 13.1335)" clip-path="url(#SVGID_4_)" fill="#A0A0A0" width="11.262" height="1.128"/>
					
						<rect x="85.957" y="100.557" transform="matrix(0.3266 0.9452 -0.9452 0.3266 156.9378 -18.0392)" clip-path="url(#SVGID_4_)" fill="#A0A0A0" width="10.345" height="1.128"/>
					
						<rect x="89.929" y="94.705" transform="matrix(0.7621 0.6475 -0.6475 0.7621 83.9977 -38.0451)" clip-path="url(#SVGID_4_)" fill="#A0A0A0" width="7.672" height="1.129"/>
					
						<rect x="64.132" y="104.383" transform="matrix(0.9996 0.0286 -0.0286 0.9996 3.1573 -1.8045)" clip-path="url(#SVGID_4_)" fill="#A0A0A0" width="1.127" height="10.293"/>
					
						<rect x="57.711" y="100.411" transform="matrix(0.9972 0.0753 -0.0753 0.9972 8.1523 -4.0873)" clip-path="url(#SVGID_4_)" fill="#A0A0A0" width="1.128" height="11.292"/>
					
						<rect x="53.51" y="94.76" transform="matrix(0.9546 0.2977 -0.2977 0.9546 32.4503 -11.5304)" clip-path="url(#SVGID_4_)" fill="#A0A0A0" width="1.128" height="11.989"/>
					
						<rect x="50.869" y="91.421" transform="matrix(0.6707 0.7417 -0.7417 0.6707 87.7612 -6.7061)" clip-path="url(#SVGID_4_)" fill="#A0A0A0" width="1.128" height="8.14"/>
				</g>
				<path fill="#3D3D3D" d="M92.017,88.894c0.15,2.106-3.685,3.084-4.963,3.535c-3.46,1.881-8.046-4.362-8.874-4.587
					c-2.639-0.337-4.288,0.457-5.319,1.643c-1.03-1.186-2.683-1.979-5.319-1.643c-0.828,0.225-5.414,6.468-8.875,4.587
					c-1.278-0.451-5.113-1.429-4.964-3.535c-0.301,0.979-0.978,14.063,9.927,13.914c1.178-0.372,6.134-0.392,9.231-4.3
					c3.097,3.908,8.052,3.928,9.229,4.3C92.994,102.957,92.318,89.872,92.017,88.894z"/>
				<g>
					<path fill="none" d="M110.066,80.396c0,0,2.369-8.121,1.917-9.476c-0.678-1.354-1.354-1.911-1.354-1.911S110.615,69,110.567,68
						h-9.429l6.742-11.686c-0.024-0.049-0.049-0.1-0.072-0.147l-6.768,11.508L92.113,52h11.928c-3.598-2-4.801-8.43-4.579-12.988
						c-1.015-4.398-6.065-12.868-15.431-13.432C82.682,24.962,77,23.607,72,23.558v-0.002v0.001c0,0,0,0,0-0.001v0.002
						c-5,0.05-10.625,1.51-11.975,2.128c-9.365,0.564-14.344,8.928-15.359,13.326C44.889,43.57,43.671,50,40.071,52h15.752
						l-8.929,15.674l-8.409-14.462c-0.037,0.028-0.072,0.114-0.107,0.146L46.799,68H33.547c-0.049,1-0.063,1.01-0.063,1.01
						s-0.677,0.561-1.354,1.914c-0.451,1.354,1.918,9.475,1.918,9.475s0-0.002-3.385,2.256c-2.143,4.174,3.836,8.91,3.836,8.91
						c8.122-12.408,27.037-10.942,32.903-11.618c1.574-0.014,7.728-0.015,9.302-0.001c5.866,0.678,24.803-0.79,32.925,11.618
						c0,0,5.965-4.737,3.821-8.911C110.066,80.396,110.066,80.396,110.066,80.396z M46.99,68l8.929-15.464L64.847,68H46.99z
						 M56.016,52h17.855l-8.928,15.464L56.016,52z M65.041,68l8.927-15.464L82.896,68H65.041z M74.064,52H91.92l-8.927,15.464
						L74.064,52z M83.09,68l8.927-15.464L100.944,68H83.09z"/>
					<path fill="#E8862D" d="M55.823,52H40.071c-0.052,0-0.104,0.287-0.157,0.322c-0.518,0.17-0.992,0.543-1.429,0.89l8.409,14.409
						L55.823,52z"/>
					<polygon fill="#E8862D" points="56.016,52 64.943,67.464 73.871,52 					"/>
					<polygon fill="#E8862D" points="74.064,52 82.993,67.464 91.92,52 					"/>
					<path fill="#E8862D" d="M101.041,67.674l6.768-11.616c-0.896-1.752-2.07-3.284-3.609-3.786
						c-0.053-0.037-0.105-0.271-0.158-0.271H92.113L101.041,67.674z"/>
					<path fill="#891F38" d="M33.483,67.875c0,0,77.3,3.165,77.146,1.128c-0.151-2.037-0.062-1.017-0.062-1.017l-76.905-1.271
						L33.483,67.875z"/>
					<path fill="#891F38" d="M38.378,53.414C34.732,56.449,33.772,65,33.547,68h13.252L38.378,53.414z"/>
					<polygon fill="#891F38" points="46.99,68 64.847,68 55.919,52.536 					"/>
					<polygon fill="#891F38" points="65.041,68 82.896,68 73.968,52.536 					"/>
					<polygon fill="#891F38" points="83.09,68 100.944,68 92.017,52.536 					"/>
					<path fill="#891F38" d="M110.567,68c-0.174-3-0.777-7.831-2.687-11.679L101.139,68H110.567z"/>
				</g>
			</g>
		</g>
		<g>
			<g>
				<path fill="#3D3D3D" d="M188.683,105.425c0.752,0.73,1.128,1.622,1.128,2.675s-0.376,1.944-1.128,2.675
					c-0.73,0.752-1.622,1.128-2.675,1.128s-1.955-0.376-2.707-1.128l-3.48-3.48c-4.104,3.072-8.723,4.608-13.857,4.608
					c-6.359,0-11.806-2.256-16.339-6.768c-4.512-4.533-6.768-9.979-6.768-16.339c0-6.381,2.256-11.827,6.768-16.339
					c4.533-4.512,9.979-6.768,16.339-6.768c6.381,0,11.827,2.256,16.339,6.768s6.768,9.958,6.768,16.339
					c0,4.748-1.332,9.077-3.996,12.987L188.683,105.425z M165.963,104.297c3.029,0,5.822-0.827,8.379-2.481l-2.739-2.739
					c-0.73-0.73-1.096-1.622-1.096-2.675s0.365-1.955,1.096-2.707c0.752-0.73,1.654-1.096,2.707-1.096s1.944,0.365,2.675,1.096
					l2.546,2.578c1.289-2.32,1.934-4.813,1.934-7.477c0-4.275-1.515-7.928-4.544-10.957s-6.682-4.544-10.957-4.544
					s-7.928,1.515-10.957,4.544s-4.544,6.682-4.544,10.957s1.515,7.928,4.544,10.957S161.688,104.297,165.963,104.297z"/>
				<path fill="#3D3D3D" d="M226.229,65.689c1.031,0,1.912,0.365,2.643,1.096s1.096,1.611,1.096,2.643v25.975
					c0,4.555-1.611,8.443-4.834,11.666s-7.101,4.834-11.634,4.834c-4.555,0-8.443-1.611-11.666-4.834S197,99.957,197,95.402V69.428
					c0-1.031,0.365-1.912,1.096-2.643s1.611-1.096,2.643-1.096s1.912,0.365,2.643,1.096s1.096,1.611,1.096,2.643v25.975
					c0,2.492,0.881,4.619,2.643,6.381s3.889,2.643,6.381,2.643c2.471,0,4.587-0.881,6.349-2.643s2.643-3.889,2.643-6.381V69.428
					c0-1.031,0.365-1.912,1.096-2.643S225.198,65.689,226.229,65.689z"/>
				<path fill="#3D3D3D" d="M244.085,111.902c-1.053,0-1.944-0.376-2.675-1.128c-0.752-0.73-1.128-1.622-1.128-2.675V69.653
					c0-1.053,0.376-1.944,1.128-2.675c0.73-0.752,1.622-1.128,2.675-1.128s1.944,0.376,2.675,1.128
					c0.752,0.73,1.128,1.622,1.128,2.675V108.1c0,1.053-0.376,1.944-1.128,2.675C246.029,111.526,245.138,111.902,244.085,111.902z"
					/>
				<path fill="#3D3D3D" d="M279.183,111.902c-6.338,0-11.763-2.245-16.274-6.735c-4.49-4.512-6.735-9.937-6.735-16.274
					c0-6.359,2.245-11.784,6.735-16.274c4.512-4.512,9.937-6.768,16.274-6.768c5.221,0,9.904,1.59,14.051,4.77
					c0.816,0.645,1.3,1.482,1.45,2.514c0.129,1.053-0.129,1.998-0.773,2.836s-1.482,1.321-2.514,1.45
					c-1.053,0.129-1.998-0.118-2.836-0.741c-2.75-2.127-5.876-3.19-9.378-3.19c-4.232,0-7.853,1.504-10.86,4.512
					s-4.512,6.639-4.512,10.893c0,4.232,1.504,7.853,4.512,10.86s6.628,4.512,10.86,4.512c3.996,0,7.455-1.332,10.377-3.996
					c0.773-0.709,1.687-1.042,2.739-0.999s1.934,0.462,2.643,1.257c0.709,0.773,1.042,1.687,0.999,2.739s-0.451,1.934-1.225,2.643
					C290.312,109.904,285.134,111.902,279.183,111.902z"/>
				<path fill="#3D3D3D" d="M307.867,111.612c-1.031,0-1.923-0.376-2.675-1.128c-0.73-0.73-1.096-1.611-1.096-2.643V69.557
					c0-1.031,0.365-1.912,1.096-2.643c0.752-0.752,1.644-1.128,2.675-1.128s1.923,0.376,2.675,1.128
					c0.73,0.73,1.096,1.611,1.096,2.643v16.951l18.434-19.368c0.709-0.752,1.59-1.149,2.643-1.192
					c1.031-0.021,1.923,0.333,2.675,1.063c0.752,0.709,1.139,1.579,1.16,2.61c0.043,1.053-0.301,1.955-1.031,2.707l-15.469,16.274
					l16.081,16.919c0.709,0.773,1.053,1.676,1.031,2.707s-0.408,1.912-1.16,2.643c-0.73,0.688-1.601,1.031-2.61,1.031
					c-1.074,0-1.987-0.387-2.739-1.16l-15.823-16.661l-3.19,3.384v10.377c0,1.031-0.365,1.912-1.096,2.643
					C309.79,111.236,308.898,111.612,307.867,111.612z"/>
				<path fill="#3D3D3D" d="M350.602,65.689c1.053,0,1.944,0.376,2.675,1.128c0.752,0.73,1.128,1.622,1.128,2.675v6.026
					c0,1.053-0.376,1.955-1.128,2.707c-0.73,0.73-1.622,1.096-2.675,1.096s-1.955-0.365-2.707-1.096
					c-0.73-0.752-1.096-1.654-1.096-2.707v-6.026c0-1.053,0.365-1.944,1.096-2.675C348.646,66.065,349.549,65.689,350.602,65.689z"
					/>
				<path fill="#3D3D3D" d="M398.622,110.452h-0.032v-0.032l-23.171-29.81V108.1c0,1.053-0.376,1.944-1.128,2.675
					c-0.73,0.752-1.622,1.128-2.675,1.128s-1.944-0.376-2.675-1.128c-0.752-0.73-1.128-1.622-1.128-2.675V69.492
					c0-0.816,0.236-1.547,0.709-2.191c0.473-0.666,1.096-1.128,1.869-1.386c0.752-0.279,1.525-0.301,2.32-0.064
					c0.773,0.236,1.407,0.677,1.901,1.321l23.171,29.842V69.492c0-1.053,0.365-1.944,1.096-2.675
					c0.752-0.752,1.654-1.128,2.707-1.128s1.944,0.376,2.675,1.128c0.752,0.73,1.128,1.622,1.128,2.675v38.672
					c0,0.043-0.011,0.107-0.032,0.193c0,0.086,0,0.14,0,0.161c0,0.043-0.011,0.107-0.032,0.193c0,0.086-0.011,0.15-0.032,0.193
					l-0.032,0.161c-0.021,0.107-0.043,0.172-0.064,0.193c0,0.021-0.021,0.075-0.064,0.161c-0.021,0.086-0.043,0.15-0.064,0.193
					l-0.064,0.161l-0.097,0.161c-0.021,0.043-0.054,0.107-0.097,0.193l-0.097,0.097c-0.021,0.043-0.064,0.107-0.129,0.193
					l-0.097,0.129c-0.021,0.021-0.064,0.064-0.129,0.129c-0.064,0.086-0.107,0.129-0.129,0.129c0,0.021-0.043,0.064-0.129,0.129
					c-0.064,0.064-0.118,0.107-0.161,0.129c0.064-0.043,0.054-0.032-0.032,0.032l-0.032,0.032c-0.172,0.129-0.333,0.236-0.483,0.322
					h-0.032c-0.172,0.086-0.344,0.161-0.516,0.226c-0.086,0.043-0.107,0.054-0.064,0.032c-0.172,0.064-0.354,0.107-0.548,0.129
					l-0.097,0.032c-0.193,0.021-0.376,0.032-0.548,0.032c-0.129,0-0.269-0.011-0.419-0.032c0.043,0.021,0.021,0.021-0.064,0
					c-0.129-0.021-0.236-0.043-0.322-0.064c0.021,0.021-0.021,0.011-0.129-0.032c-0.107-0.021-0.193-0.043-0.258-0.064
					c-0.021,0-0.064-0.021-0.129-0.064c-0.107-0.021-0.193-0.054-0.258-0.097c-0.043,0-0.086-0.021-0.129-0.064
					c-0.086-0.043-0.161-0.075-0.226-0.097c-0.064-0.043-0.107-0.075-0.129-0.097c-0.064-0.043-0.14-0.097-0.226-0.161
					c-0.064-0.043-0.107-0.075-0.129-0.097c-0.107-0.086-0.204-0.172-0.29-0.258l-0.032-0.032v-0.032
					c-0.086-0.086-0.129-0.129-0.129-0.129S398.687,110.538,398.622,110.452z"/>
				<path fill="#3D3D3D" d="M422.697,65.689c1.053,0,1.944,0.376,2.675,1.128c0.752,0.73,1.128,1.622,1.128,2.675v6.026
					c0,1.053-0.376,1.955-1.128,2.707c-0.73,0.73-1.622,1.096-2.675,1.096s-1.955-0.365-2.707-1.096
					c-0.73-0.752-1.096-1.654-1.096-2.707v-6.026c0-1.053,0.365-1.944,1.096-2.675C420.742,66.065,421.645,65.689,422.697,65.689z"
					/>
				<path fill="#E8862D" d="M480.708,65.689c0.816,0.236,1.482,0.698,1.998,1.386c0.516,0.666,0.773,1.429,0.773,2.288V108.1
					c0,1.053-0.365,1.944-1.096,2.675c-0.752,0.752-1.654,1.128-2.707,1.128s-1.955-0.376-2.707-1.128
					c-0.73-0.73-1.096-1.622-1.096-2.675V83.027l-12.021,19.852v0.032l-0.032,0.032l-0.032,0.032l-0.032,0.032
					c-0.064,0.107-0.107,0.183-0.129,0.226l-0.097,0.129c-0.086,0.086-0.14,0.14-0.161,0.161s-0.064,0.064-0.129,0.129
					s-0.107,0.107-0.129,0.129c-0.043,0.043-0.107,0.097-0.193,0.161l-0.097,0.097c-0.064,0.043-0.14,0.086-0.226,0.129
					c0,0.021-0.011,0.032-0.032,0.032l-0.032,0.032H462.5c-0.043,0.043-0.118,0.086-0.226,0.129
					c-0.086,0.043-0.118,0.064-0.097,0.064c-0.021,0-0.086,0.021-0.193,0.064c-0.494,0.215-1.01,0.312-1.547,0.29h-0.064
					c0.043,0,0-0.011-0.129-0.032c-0.279-0.021-0.559-0.075-0.838-0.161c-0.107-0.021-0.15-0.032-0.129-0.032
					c0.043,0.021,0,0.011-0.129-0.032c-0.107-0.043-0.183-0.075-0.226-0.097c0.021,0,0-0.021-0.064-0.064
					c-0.107-0.043-0.193-0.086-0.258-0.129h-0.032l-0.032-0.032l-0.032-0.032c-0.086-0.043-0.161-0.097-0.226-0.161
					c0,0.021-0.032,0-0.097-0.064c-0.086-0.064-0.15-0.118-0.193-0.161c-0.021-0.021-0.064-0.064-0.129-0.129
					s-0.107-0.107-0.129-0.129c-0.021-0.043-0.075-0.097-0.161-0.161c-0.043-0.064-0.064-0.107-0.064-0.129
					c-0.043-0.043-0.097-0.118-0.161-0.226l-0.032-0.032c0-0.021-0.011-0.032-0.032-0.032v-0.032c0-0.021-0.011-0.032-0.032-0.032
					l-11.988-19.852V108.1c0,1.053-0.376,1.944-1.128,2.675c-0.752,0.752-1.654,1.128-2.707,1.128s-1.944-0.376-2.675-1.128
					c-0.752-0.73-1.128-1.622-1.128-2.675V69.363c0-0.859,0.258-1.622,0.773-2.288c0.516-0.688,1.192-1.149,2.03-1.386
					c0.816-0.215,1.622-0.172,2.417,0.129c0.795,0.322,1.418,0.849,1.869,1.579l15.855,26.2l15.855-26.2
					c0.43-0.73,1.042-1.257,1.837-1.579c0.795-0.301,1.192-0.451,1.192-0.451S479.87,65.475,480.708,65.689z"/>
				<path fill="#E8862D" d="M522.348,65.689c1.031,0,1.912,0.365,2.643,1.096s1.096,1.611,1.096,2.643v25.975
					c0,4.555-1.611,8.443-4.834,11.666s-7.101,4.834-11.634,4.834c-4.555,0-8.443-1.611-11.666-4.834s-4.834-7.111-4.834-11.666
					V69.428c0-1.031,0.365-1.912,1.096-2.643s1.611-1.096,2.643-1.096s1.912,0.365,2.643,1.096s1.096,1.611,1.096,2.643v25.975
					c0,2.492,0.881,4.619,2.643,6.381s3.889,2.643,6.381,2.643c2.471,0,4.587-0.881,6.349-2.643s2.643-3.889,2.643-6.381V69.428
					c0-1.031,0.365-1.912,1.096-2.643S521.316,65.689,522.348,65.689z"/>
				<path fill="#E8862D" d="M556.671,111.773c-6.359,0-11.795-2.256-16.307-6.768s-6.768-9.947-6.768-16.307
					s2.256-11.784,6.768-16.274c4.512-4.512,9.947-6.768,16.307-6.768c5.221,0,9.894,1.59,14.019,4.77
					c0.838,0.645,1.332,1.493,1.482,2.546c0.129,1.031-0.129,1.966-0.773,2.804s-1.482,1.321-2.514,1.45
					c-1.053,0.15-1.998-0.097-2.836-0.741c-2.771-2.127-5.897-3.19-9.378-3.19c-4.254,0-7.896,1.504-10.925,4.512
					c-3.008,3.029-4.512,6.66-4.512,10.893c0,4.254,1.504,7.896,4.512,10.925c3.029,3.008,6.671,4.512,10.925,4.512
					c3.975,0,7.434-1.343,10.377-4.028c0.043-0.043,0.118-0.107,0.226-0.193l0.032-8.443h-12.601c-1.074,0-1.977-0.365-2.707-1.096
					c-0.752-0.752-1.128-1.654-1.128-2.707s0.376-1.955,1.128-2.707c0.73-0.752,1.633-1.128,2.707-1.128h16.436
					c1.053,0,1.955,0.376,2.707,1.128s1.128,1.654,1.128,2.707l-0.097,20.432c0,1.053-0.376,1.944-1.128,2.675
					c-0.73,0.752-1.622,1.128-2.675,1.128h-0.032c-0.859,0-1.633-0.269-2.32-0.806c-0.666-0.516-1.106-1.171-1.321-1.966
					C564.029,110.893,560.452,111.773,556.671,111.773z"/>
				<path fill="#E8862D" d="M604.691,111.773c-6.359,0-11.795-2.256-16.307-6.768s-6.768-9.947-6.768-16.307
					s2.256-11.784,6.768-16.274c4.512-4.512,9.947-6.768,16.307-6.768c5.221,0,9.894,1.59,14.019,4.77
					c0.838,0.645,1.332,1.493,1.482,2.546c0.129,1.031-0.129,1.966-0.773,2.804s-1.482,1.321-2.514,1.45
					c-1.053,0.15-1.998-0.097-2.836-0.741c-2.771-2.127-5.897-3.19-9.378-3.19c-4.254,0-7.896,1.504-10.925,4.512
					c-3.008,3.029-4.512,6.66-4.512,10.893c0,4.254,1.504,7.896,4.512,10.925c3.029,3.008,6.671,4.512,10.925,4.512
					c3.975,0,7.434-1.343,10.377-4.028c0.043-0.043,0.118-0.107,0.226-0.193l0.032-8.443h-12.601c-1.074,0-1.977-0.365-2.707-1.096
					c-0.752-0.752-1.128-1.654-1.128-2.707s0.376-1.955,1.128-2.707c0.73-0.752,1.633-1.128,2.707-1.128h16.436
					c1.053,0,1.955,0.376,2.707,1.128s1.128,1.654,1.128,2.707l-0.097,20.432c0,1.053-0.376,1.944-1.128,2.675
					c-0.73,0.752-1.622,1.128-2.675,1.128h-0.032c-0.859,0-1.633-0.269-2.32-0.806c-0.666-0.516-1.106-1.171-1.321-1.966
					C612.05,110.893,608.473,111.773,604.691,111.773z"/>
				<path fill="#E8862D" d="M636.244,111.902c-1.053,0-1.944-0.376-2.675-1.128c-0.752-0.73-1.128-1.622-1.128-2.675V69.653
					c0-1.053,0.376-1.944,1.128-2.675c0.73-0.752,1.622-1.128,2.675-1.128s1.944,0.376,2.675,1.128
					c0.752,0.73,1.128,1.622,1.128,2.675V108.1c0,1.053-0.376,1.944-1.128,2.675C638.188,111.526,637.297,111.902,636.244,111.902z"
					/>
				<path fill="#E8862D" d="M682.137,110.452h-0.032v-0.032l-23.171-29.81V108.1c0,1.053-0.376,1.944-1.128,2.675
					c-0.73,0.752-1.622,1.128-2.675,1.128s-1.944-0.376-2.675-1.128c-0.752-0.73-1.128-1.622-1.128-2.675V69.492
					c0-0.816,0.236-1.547,0.709-2.191c0.473-0.666,1.096-1.128,1.869-1.386c0.752-0.279,1.525-0.301,2.32-0.064
					c0.773,0.236,1.407,0.677,1.901,1.321l23.171,29.842V69.492c0-1.053,0.365-1.944,1.096-2.675
					c0.752-0.752,1.654-1.128,2.707-1.128s1.944,0.376,2.675,1.128c0.752,0.73,1.128,1.622,1.128,2.675v38.672
					c0,0.043-0.011,0.107-0.032,0.193c0,0.086,0,0.14,0,0.161c0,0.043-0.011,0.107-0.032,0.193c0,0.086-0.011,0.15-0.032,0.193
					l-0.032,0.161c-0.021,0.107-0.043,0.172-0.064,0.193c0,0.021-0.021,0.075-0.064,0.161c-0.021,0.086-0.043,0.15-0.064,0.193
					l-0.064,0.161l-0.097,0.161c-0.021,0.043-0.054,0.107-0.097,0.193l-0.097,0.097c-0.021,0.043-0.064,0.107-0.129,0.193
					l-0.097,0.129c-0.021,0.021-0.064,0.064-0.129,0.129c-0.064,0.086-0.107,0.129-0.129,0.129c0,0.021-0.043,0.064-0.129,0.129
					c-0.064,0.064-0.118,0.107-0.161,0.129c0.064-0.043,0.054-0.032-0.032,0.032l-0.032,0.032c-0.172,0.129-0.333,0.236-0.483,0.322
					h-0.032c-0.172,0.086-0.344,0.161-0.516,0.226c-0.086,0.043-0.107,0.054-0.064,0.032c-0.172,0.064-0.354,0.107-0.548,0.129
					l-0.097,0.032c-0.193,0.021-0.376,0.032-0.548,0.032c-0.129,0-0.269-0.011-0.419-0.032c0.043,0.021,0.021,0.021-0.064,0
					c-0.129-0.021-0.236-0.043-0.322-0.064c0.021,0.021-0.021,0.011-0.129-0.032c-0.107-0.021-0.193-0.043-0.258-0.064
					c-0.021,0-0.064-0.021-0.129-0.064c-0.107-0.021-0.193-0.054-0.258-0.097c-0.043,0-0.086-0.021-0.129-0.064
					c-0.086-0.043-0.161-0.075-0.226-0.097c-0.064-0.043-0.107-0.075-0.129-0.097c-0.064-0.043-0.14-0.097-0.226-0.161
					c-0.064-0.043-0.107-0.075-0.129-0.097c-0.107-0.086-0.204-0.172-0.29-0.258l-0.032-0.032v-0.032
					c-0.086-0.086-0.129-0.129-0.129-0.129S682.201,110.538,682.137,110.452z"/>
				<path fill="#E8862D" d="M706.213,65.689c1.053,0,1.944,0.376,2.675,1.128c0.752,0.73,1.128,1.622,1.128,2.675v6.026
					c0,1.053-0.376,1.955-1.128,2.707c-0.73,0.73-1.622,1.096-2.675,1.096s-1.955-0.365-2.707-1.096
					c-0.73-0.752-1.096-1.654-1.096-2.707v-6.026c0-1.053,0.365-1.944,1.096-2.675C704.258,66.065,705.16,65.689,706.213,65.689z"/>
				<path fill="#E8862D" d="M752.235,98.142c-0.172,3.846-1.708,7.101-4.608,9.765c-2.922,2.664-6.402,3.996-10.441,3.996
					c-3.502,0-6.639-0.752-9.41-2.256c-3.33-1.805-5.446-4.426-6.349-7.863c-0.258-1.01-0.129-1.966,0.387-2.868
					c0.537-0.902,1.311-1.482,2.32-1.74s1.966-0.129,2.868,0.387c0.902,0.537,1.482,1.311,1.74,2.32
					c0.387,1.439,1.439,2.567,3.158,3.384c1.547,0.709,3.309,1.063,5.285,1.063c2.02,0,3.749-0.634,5.188-1.901
					c1.461-1.246,2.234-2.793,2.32-4.641c0.043-1.117-0.354-2.116-1.192-2.997c-1.332-1.418-3.566-2.148-6.703-2.191h-0.032
					c-0.086,0-0.107,0-0.064,0c-0.021,0-0.043,0-0.064,0c-5.264-0.086-9.292-1.601-12.085-4.544
					c-2.299-2.449-3.373-5.296-3.223-8.54c0.172-3.867,1.708-7.133,4.608-9.797s6.381-3.996,10.441-3.996
					c3.502,0,6.639,0.752,9.41,2.256c3.33,1.805,5.446,4.426,6.349,7.863c0.258,1.01,0.118,1.966-0.419,2.868
					c-0.516,0.902-1.278,1.482-2.288,1.74s-1.966,0.129-2.868-0.387c-0.902-0.537-1.482-1.311-1.74-2.32
					c-0.387-1.439-1.45-2.567-3.19-3.384c-1.525-0.709-3.276-1.063-5.253-1.063c-2.02,0-3.76,0.634-5.221,1.901
					c-1.439,1.268-2.202,2.814-2.288,4.641c-0.043,1.117,0.354,2.127,1.192,3.029c1.332,1.396,3.566,2.116,6.703,2.159h0.161
					c5.264,0.086,9.292,1.611,12.085,4.576C751.312,92.029,752.386,94.876,752.235,98.142z"/>
			</g>
		</g>
	</g>
	<g clip-path="url(#SVGID_2_)">
		<g>
			<path d="M72.494,287.8c-16.115,0-31.268-6.276-42.663-17.671c-11.396-11.396-17.671-26.547-17.671-42.663
				s6.275-31.268,17.671-42.662c11.396-11.396,26.548-17.672,42.663-17.672s31.268,6.275,42.663,17.672
				c11.396,11.395,17.671,26.546,17.671,42.662s-6.275,31.267-17.671,42.663C103.762,281.523,88.609,287.8,72.494,287.8z
				 M72.494,171.87c-30.656,0-55.596,24.939-55.596,55.596c0,30.655,24.939,55.597,55.596,55.597s55.596-24.941,55.596-55.597
				C128.09,196.81,103.15,171.87,72.494,171.87z"/>
			<g>
				<circle fill="#E2B774" cx="71.533" cy="238.158" r="34.971"/>
				<path fill="#0F0E05" d="M80.082,224.22c0,0,4.976,7.349,15.169,3.476c2.747-1.277,2.747-1.277,2.747-1.277
					S86.643,221.175,80.082,224.22z"/>
				<path fill="#0F0E05" d="M65.961,224.22c0,0-4.976,7.349-15.168,3.476c-2.747-1.277-2.747-1.277-2.747-1.277
					S59.401,221.175,65.961,224.22z"/>
				<path fill="#E8862D" d="M85.813,173.409c0,0,6.091-5.754,6.204-7.446c-2.369,0.677-4.851,0.902-4.851,0.902
					s2.82-5.753,3.385-6.542c-5.076,0.112-8.35,3.497-9.702,2.03c-1.354-1.467-0.45-5.866-0.45-5.866s-5.527,1.241-7.559,4.061
					c-1.806-2.256-4.398-6.316-4.398-6.316s-4.175,7.671-4.175,8.912c-1.354-1.129-2.595-3.159-2.595-3.159
					s-3.609,2.256-4.061,8.122c-1.805,1.015-8.348,1.354-10.039,1.806c0.676,2.368,7.896,5.865,5.302,6.429
					c-2.482,0.339-2.257,0.79-2.257,0.79s-1.354,0.451,0,1.241c0.451,1.128-1.804,3.609-3.384,3.609
					c2.144,0.339,2.595,0.677,4.173,1.354C55.693,182.658,83.105,181.869,85.813,173.409z"/>
				<path fill="#D63E3E" d="M113.45,226.652c-3.384-2.256-3.384-2.256-3.384-2.256s2.369-8.121,1.917-9.476
					c-0.678-1.354-1.354-1.918-1.354-1.918s-0.563-14.552-6.43-16.47c-3.723-2.481-4.962-8.686-4.737-13.311
					c-1.015-4.399-6.065-12.973-15.431-13.537c-1.35-0.618-7.031-2.078-12.031-2.128v-0.002v0.001c0,0,0,0,0-0.001v0.002
					c-5,0.05-10.625,1.51-11.975,2.128c-9.365,0.564-14.344,9.138-15.359,13.537c0.227,4.625-1.023,10.829-4.744,13.311
					c-5.867,1.918-6.435,16.47-6.435,16.47s-0.678,0.564-1.356,1.918c-0.451,1.354,1.917,9.476,1.917,9.476s0,0-3.385,2.256
					c-2.143,4.174,3.835,8.911,3.835,8.911c8.122-12.407,27.038-10.94,32.903-11.618c1.576-0.014,7.729-0.014,9.302,0
					c5.867,0.678,24.803-0.789,32.925,11.618C109.629,235.563,115.594,230.826,113.45,226.652z"/>
				<path fill="#E8862D" d="M110.066,224.396c0,0,0,0,3.384,2.256c2.144,4.174-3.821,8.911-3.821,8.911
					c-8.122-12.407-27.059-10.94-32.925-11.618c-1.574-0.014-7.728-0.014-9.302,0c-5.866,0.678-24.781-0.789-32.903,11.618
					c0,0-5.979-4.737-3.836-8.911c3.385-2.256,3.385-2.256,3.385-2.256S69.907,207.25,110.066,224.396z"/>
				<ellipse fill="#F45D5D" cx="50.018" cy="235.015" rx="4.701" ry="3.145"/>
				<ellipse fill="#F45D5D" cx="95.365" cy="235.465" rx="4.702" ry="3.145"/>
				<path fill="#3D3D3D" d="M115.029,241.995c-0.451,2.706-3.836,4.285-6.994,5.188c8.799-7.444,5.866-12.408,4.737-15.565
					c-0.193,1.939-1.057,1.877-4.596,2.539c2.832-1.144,4.782-4.521,4.596-6.376c-0.45,1.805-4.962,2.256-6.767,3.16
					c-1.13,2.03-9.252,5.864-9.252,5.864s-2.781-0.301-2.781,4.889c0,5.188-12.636,13.01-12.636,13.01L72.616,255l-8.679-0.297
					c0,0-12.587-7.821-12.587-13.01c0-5.189-2.782-4.889-2.782-4.889s-8.122-3.834-9.25-5.864c-1.805-0.904-6.318-1.355-6.768-3.16
					c-0.188,1.855,1.764,5.232,4.596,6.376c-3.538-0.662-4.402-0.6-4.596-2.539c-1.129,3.157-4.063,8.121,4.736,15.565
					c-3.158-0.902-6.544-2.481-6.994-5.188c-0.227,5.188-2.708,14.211,10.829,18.499c-3.386,0.451-8.123,0.676-9.702,1.354
					c2.255,2.933,11.728,10.604,17.593,11.506c-1.804,2.708-1.81,2.708-1.81,2.708s8.561,4.286,16.684-0.902
					c0.677-1.129,0.653-2.653,0.653-2.653S65.296,277,71.938,278h1.354c6.646-1,7.444-5.494,7.444-5.494s0,1.326,0.677,2.454
					c8.122,5.189,16.694,1.002,16.694,1.002s0,0.05-1.805-2.657c5.866-0.902,15.342-8.549,17.599-11.481
					c-1.579-0.678-6.317-0.892-9.702-1.341C117.736,256.195,115.255,247.183,115.029,241.995z"/>
				<g>
					<defs>
						<path id="SVGID_5_" d="M95.391,237.137c0,0-1.871-1.902-3.742-0.967C89.249,247.19,78.82,251,72.645,252h-0.039l0,0h0.09
							c-6.177-1-16.553-4.81-18.953-15.83c-1.87-0.936-3.745,1.11-3.745,1.11s0.328,22.712,22.69,22.712
							C95.051,259.992,95.391,237.137,95.391,237.137z"/>
					</defs>
					<clipPath id="SVGID_6_">
						<use xlink:href="#SVGID_5_"  overflow="visible"/>
					</clipPath>
					<g clip-path="url(#SVGID_6_)">
						<path fill="#FFFFFF" d="M95.615,237.137c0,0-1.87-1.902-3.741-0.967C89.473,247.19,79.047,251,72.869,252h-0.038l0,0h0.089
							c-6.175-1-16.552-4.81-18.952-15.83c-1.87-0.936-3.746,1.11-3.746,1.11s0.329,22.712,22.692,22.712
							C95.275,259.992,95.615,237.137,95.615,237.137z"/>
						<path fill="#FFFFFF" d="M72.914,260.053c-11.609,0-17.249-6.223-19.888-11.443C50.171,242.961,50,237.234,50,237.179v-0.043
							l0.083-0.032c0.054-0.062,1.342-1.49,2.865-1.49c0.363,0,0.727,0.082,1.055,0.247l0.056,0.024l0.015,0.053
							c2.472,11.354,13.386,15.122,18.818,15.53c5.451-0.409,16.399-4.18,18.872-15.53l0.01-0.053l0.05-0.024
							c0.332-0.167,0.688-0.251,1.058-0.251c1.515,0,2.766,1.394,2.817,1.453l0.03,0.032l-0.002,0.043
							c-0.001,0.058-0.118,5.793-2.977,11.452C90.109,253.819,84.523,260.053,72.914,260.053z M50.336,237.219
							c0.016,0.544,0.247,5.955,2.949,11.296c2.612,5.161,8.138,11.313,19.629,11.313c11.49,0,17.018-6.163,19.633-11.334
							c2.704-5.349,2.938-10.77,2.955-11.315c-0.196-0.206-1.331-1.344-2.62-1.344c-0.315,0-0.622,0.069-0.909,0.204
							c-1.072,4.859-3.836,8.933-8.067,11.78C80.711,249.969,77,251.415,73,251.691v0.004l-0.131-0.006
							c-3.646-0.285-7.726-1.729-10.899-3.87c-4.213-2.848-7.019-6.919-8.089-11.78c-0.284-0.133-0.589-0.2-0.899-0.2
							C51.682,235.839,50.529,237.01,50.336,237.219z"/>
					</g>
					
						<rect x="67.566" y="255.216" transform="matrix(0.0218 0.9998 -0.9998 0.0218 326.83 177.5262)" clip-path="url(#SVGID_6_)" fill="#A0A0A0" width="10.258" height="1.128"/>
					
						<rect x="74.475" y="253.469" transform="matrix(0.0108 0.9999 -0.9999 0.0108 333.5155 170.9355)" clip-path="url(#SVGID_6_)" fill="#A0A0A0" width="11.778" height="1.128"/>
					
						<rect x="81.268" y="249.921" transform="matrix(0.0622 0.9981 -0.9981 0.0622 331.4974 148.1806)" clip-path="url(#SVGID_6_)" fill="#A0A0A0" width="11.262" height="1.128"/>
					
						<rect x="85.957" y="244.557" transform="matrix(0.3266 0.9452 -0.9452 0.3266 293.0397 78.926)" clip-path="url(#SVGID_6_)" fill="#A0A0A0" width="10.345" height="1.128"/>
					
						<rect x="89.929" y="238.705" transform="matrix(0.7621 0.6475 -0.6475 0.7621 177.2384 -3.782)" clip-path="url(#SVGID_6_)" fill="#A0A0A0" width="7.672" height="1.129"/>
					
						<rect x="64.132" y="248.383" transform="matrix(0.9996 0.0286 -0.0286 0.9996 7.2735 -1.7457)" clip-path="url(#SVGID_6_)" fill="#A0A0A0" width="1.127" height="10.293"/>
					
						<rect x="57.711" y="244.411" transform="matrix(0.9972 0.0753 -0.0753 0.9972 18.9964 -3.6784)" clip-path="url(#SVGID_6_)" fill="#A0A0A0" width="1.128" height="11.292"/>
					
						<rect x="53.51" y="238.76" transform="matrix(0.9546 0.2977 -0.2977 0.9546 75.3239 -4.9998)" clip-path="url(#SVGID_6_)" fill="#A0A0A0" width="1.128" height="11.989"/>
					
						<rect x="50.869" y="235.421" transform="matrix(0.6707 0.7417 -0.7417 0.6707 194.566 40.7085)" clip-path="url(#SVGID_6_)" fill="#A0A0A0" width="1.128" height="8.14"/>
				</g>
				<path fill="#3D3D3D" d="M92.017,232.894c0.15,2.106-3.685,3.084-4.963,3.535c-3.46,1.881-8.046-4.362-8.874-4.587
					c-2.639-0.337-4.288,0.457-5.319,1.643c-1.03-1.186-2.683-1.979-5.319-1.643c-0.828,0.225-5.414,6.468-8.875,4.587
					c-1.278-0.451-5.113-1.429-4.964-3.535c-0.301,0.979-0.978,14.063,9.927,13.914c1.178-0.372,6.134-0.392,9.231-4.3
					c3.097,3.908,8.052,3.928,9.229,4.3C92.994,246.957,92.318,233.872,92.017,232.894z"/>
				<g>
					<path fill="none" d="M110.066,224.396c0,0,2.369-8.121,1.917-9.476c-0.678-1.354-1.354-1.911-1.354-1.911
						s-0.014-0.01-0.062-1.01h-9.429l6.742-11.686c-0.024-0.049-0.049-0.1-0.072-0.147l-6.768,11.508L92.113,196h11.928
						c-3.598-2-4.801-8.43-4.579-12.988c-1.015-4.398-6.065-12.868-15.431-13.432c-1.35-0.618-7.031-1.973-12.031-2.022v-0.002
						v0.001c0,0,0,0,0-0.001v0.002c-5,0.05-10.625,1.51-11.975,2.128c-9.365,0.564-14.344,8.928-15.359,13.326
						C44.889,187.57,43.671,194,40.071,196h15.752l-8.929,15.674l-8.409-14.462c-0.037,0.028-0.072,0.114-0.107,0.146L46.799,212
						H33.547c-0.049,1-0.063,1.01-0.063,1.01s-0.677,0.561-1.354,1.914c-0.451,1.354,1.918,9.475,1.918,9.475s0-0.002-3.385,2.256
						c-2.143,4.174,3.836,8.91,3.836,8.91c8.122-12.408,27.037-10.942,32.903-11.618c1.574-0.014,7.728-0.015,9.302-0.001
						c5.866,0.678,24.803-0.79,32.925,11.618c0,0,5.965-4.737,3.821-8.911C110.066,224.396,110.066,224.396,110.066,224.396z
						 M46.99,212l8.929-15.464L64.847,212H46.99z M56.016,196h17.855l-8.928,15.464L56.016,196z M65.041,212l8.927-15.464
						L82.896,212H65.041z M74.064,196H91.92l-8.927,15.464L74.064,196z M83.09,212l8.927-15.464L100.944,212H83.09z"/>
					<path fill="#E8862D" d="M55.823,196H40.071c-0.052,0-0.104,0.287-0.157,0.322c-0.518,0.17-0.992,0.543-1.429,0.89l8.409,14.409
						L55.823,196z"/>
					<polygon fill="#E8862D" points="56.016,196 64.943,211.464 73.871,196 					"/>
					<polygon fill="#E8862D" points="74.064,196 82.993,211.464 91.92,196 					"/>
					<path fill="#E8862D" d="M101.041,211.674l6.768-11.616c-0.896-1.752-2.07-3.284-3.609-3.786
						c-0.053-0.037-0.105-0.271-0.158-0.271H92.113L101.041,211.674z"/>
					<path fill="#891F38" d="M33.483,211.875c0,0,77.3,3.165,77.146,1.128c-0.151-2.037-0.062-1.017-0.062-1.017l-76.905-1.271
						L33.483,211.875z"/>
					<path fill="#891F38" d="M38.378,197.414C34.732,200.449,33.772,209,33.547,212h13.252L38.378,197.414z"/>
					<polygon fill="#891F38" points="46.99,212 64.847,212 55.919,196.536 					"/>
					<polygon fill="#891F38" points="65.041,212 82.896,212 73.968,196.536 					"/>
					<polygon fill="#891F38" points="83.09,212 100.944,212 92.017,196.536 					"/>
					<path fill="#891F38" d="M110.567,212c-0.174-3-0.777-7.831-2.687-11.679L101.139,212H110.567z"/>
				</g>
			</g>
		</g>
		<g>
			<g>
				<path fill="#3D3D3D" d="M187.102,249.425c0.752,0.73,1.128,1.622,1.128,2.675s-0.376,1.944-1.128,2.675
					c-0.73,0.752-1.622,1.128-2.675,1.128s-1.955-0.376-2.707-1.128l-3.48-3.48c-4.104,3.072-8.723,4.608-13.857,4.608
					c-6.359,0-11.806-2.256-16.339-6.768c-4.512-4.533-6.768-9.979-6.768-16.339c0-6.381,2.256-11.827,6.768-16.339
					c4.533-4.512,9.979-6.768,16.339-6.768c6.381,0,11.827,2.256,16.339,6.768s6.768,9.958,6.768,16.339
					c0,4.748-1.332,9.077-3.996,12.987L187.102,249.425z M164.382,248.297c3.029,0,5.822-0.827,8.379-2.481l-2.739-2.739
					c-0.73-0.73-1.096-1.622-1.096-2.675s0.365-1.955,1.096-2.707c0.752-0.73,1.654-1.096,2.707-1.096s1.944,0.365,2.675,1.096
					l2.546,2.578c1.289-2.32,1.934-4.813,1.934-7.477c0-4.275-1.515-7.928-4.544-10.957s-6.682-4.544-10.957-4.544
					s-7.928,1.515-10.957,4.544s-4.544,6.682-4.544,10.957s1.515,7.928,4.544,10.957S160.106,248.297,164.382,248.297z"/>
				<path fill="#3D3D3D" d="M216.237,255.902c-6.338,0-11.763-2.245-16.274-6.735c-4.49-4.512-6.735-9.937-6.735-16.274
					c0-6.359,2.245-11.784,6.735-16.274c4.512-4.512,9.937-6.768,16.274-6.768c5.221,0,9.904,1.59,14.051,4.77
					c0.816,0.645,1.3,1.482,1.45,2.514c0.129,1.053-0.129,1.998-0.773,2.836s-1.482,1.321-2.514,1.45
					c-1.053,0.129-1.998-0.118-2.836-0.741c-2.75-2.127-5.876-3.19-9.378-3.19c-4.232,0-7.853,1.504-10.86,4.512
					s-4.512,6.639-4.512,10.893c0,4.232,1.504,7.853,4.512,10.86s6.628,4.512,10.86,4.512c3.996,0,7.455-1.332,10.377-3.996
					c0.773-0.709,1.687-1.042,2.739-0.999s1.934,0.462,2.643,1.257c0.709,0.773,1.042,1.687,0.999,2.739s-0.451,1.934-1.225,2.643
					C227.366,253.904,222.188,255.902,216.237,255.902z"/>
				<path fill="#3D3D3D" d="M244.921,255.612c-1.031,0-1.923-0.376-2.675-1.128c-0.73-0.73-1.096-1.611-1.096-2.643v-38.285
					c0-1.031,0.365-1.912,1.096-2.643c0.752-0.752,1.644-1.128,2.675-1.128s1.923,0.376,2.675,1.128
					c0.73,0.73,1.096,1.611,1.096,2.643v16.951l18.434-19.368c0.709-0.752,1.59-1.149,2.643-1.192
					c1.031-0.021,1.923,0.333,2.675,1.063c0.752,0.709,1.139,1.579,1.16,2.61c0.043,1.053-0.301,1.955-1.031,2.707l-15.469,16.274
					l16.081,16.919c0.709,0.773,1.053,1.676,1.031,2.707s-0.408,1.912-1.16,2.643c-0.73,0.688-1.601,1.031-2.61,1.031
					c-1.074,0-1.987-0.387-2.739-1.16l-15.823-16.661l-3.19,3.384v10.377c0,1.031-0.365,1.912-1.096,2.643
					C246.844,255.236,245.952,255.612,244.921,255.612z"/>
				<path fill="#3D3D3D" d="M287.656,209.689c1.053,0,1.944,0.376,2.675,1.128c0.752,0.73,1.128,1.622,1.128,2.675v6.026
					c0,1.053-0.376,1.955-1.128,2.707c-0.73,0.73-1.622,1.096-2.675,1.096s-1.955-0.365-2.707-1.096
					c-0.73-0.752-1.096-1.654-1.096-2.707v-6.026c0-1.053,0.365-1.944,1.096-2.675C285.701,210.065,286.604,209.689,287.656,209.689
					z"/>
				<path fill="#3D3D3D" d="M335.677,254.452h-0.032v-0.032l-23.171-29.81V252.1c0,1.053-0.376,1.944-1.128,2.675
					c-0.73,0.752-1.622,1.128-2.675,1.128s-1.944-0.376-2.675-1.128c-0.752-0.73-1.128-1.622-1.128-2.675v-38.607
					c0-0.816,0.236-1.547,0.709-2.191c0.473-0.666,1.096-1.128,1.869-1.386c0.752-0.279,1.525-0.301,2.32-0.064
					c0.773,0.236,1.407,0.677,1.901,1.321l23.171,29.842v-27.521c0-1.053,0.365-1.944,1.096-2.675
					c0.752-0.752,1.654-1.128,2.707-1.128s1.944,0.376,2.675,1.128c0.752,0.73,1.128,1.622,1.128,2.675v38.672
					c0,0.043-0.011,0.107-0.032,0.193c0,0.086,0,0.14,0,0.161c0,0.043-0.011,0.107-0.032,0.193c0,0.086-0.011,0.15-0.032,0.193
					l-0.032,0.161c-0.021,0.107-0.043,0.172-0.064,0.193c0,0.021-0.021,0.075-0.064,0.161c-0.021,0.086-0.043,0.15-0.064,0.193
					l-0.064,0.161l-0.097,0.161c-0.021,0.043-0.054,0.107-0.097,0.193l-0.097,0.097c-0.021,0.043-0.064,0.107-0.129,0.193
					l-0.097,0.129c-0.021,0.021-0.064,0.064-0.129,0.129c-0.064,0.086-0.107,0.129-0.129,0.129c0,0.021-0.043,0.064-0.129,0.129
					c-0.064,0.064-0.118,0.107-0.161,0.129c0.064-0.043,0.054-0.032-0.032,0.032l-0.032,0.032c-0.172,0.129-0.333,0.236-0.483,0.322
					h-0.032c-0.172,0.086-0.344,0.161-0.516,0.226c-0.086,0.043-0.107,0.054-0.064,0.032c-0.172,0.064-0.354,0.107-0.548,0.129
					l-0.097,0.032c-0.193,0.021-0.376,0.032-0.548,0.032c-0.129,0-0.269-0.011-0.419-0.032c0.043,0.021,0.021,0.021-0.064,0
					c-0.129-0.021-0.236-0.043-0.322-0.064c0.021,0.021-0.021,0.011-0.129-0.032c-0.107-0.021-0.193-0.043-0.258-0.064
					c-0.021,0-0.064-0.021-0.129-0.064c-0.107-0.021-0.193-0.054-0.258-0.097c-0.043,0-0.086-0.021-0.129-0.064
					c-0.086-0.043-0.161-0.075-0.226-0.097c-0.064-0.043-0.107-0.075-0.129-0.097c-0.064-0.043-0.14-0.097-0.226-0.161
					c-0.064-0.043-0.107-0.075-0.129-0.097c-0.107-0.086-0.204-0.172-0.29-0.258l-0.032-0.032v-0.032
					c-0.086-0.086-0.129-0.129-0.129-0.129S335.741,254.538,335.677,254.452z"/>
				<path fill="#3D3D3D" d="M359.752,209.689c1.053,0,1.944,0.376,2.675,1.128c0.752,0.73,1.128,1.622,1.128,2.675v6.026
					c0,1.053-0.376,1.955-1.128,2.707c-0.73,0.73-1.622,1.096-2.675,1.096s-1.955-0.365-2.707-1.096
					c-0.73-0.752-1.096-1.654-1.096-2.707v-6.026c0-1.053,0.365-1.944,1.096-2.675C357.797,210.065,358.699,209.689,359.752,209.689
					z"/>
				<path fill="#E8862D" d="M417.763,209.689c0.816,0.236,1.482,0.698,1.998,1.386c0.516,0.666,0.773,1.429,0.773,2.288V252.1
					c0,1.053-0.365,1.944-1.096,2.675c-0.752,0.752-1.654,1.128-2.707,1.128s-1.955-0.376-2.707-1.128
					c-0.73-0.73-1.096-1.622-1.096-2.675v-25.072l-12.021,19.852v0.032l-0.032,0.032l-0.032,0.032l-0.032,0.032
					c-0.064,0.107-0.107,0.183-0.129,0.226l-0.097,0.129c-0.086,0.086-0.14,0.14-0.161,0.161s-0.064,0.064-0.129,0.129
					s-0.107,0.107-0.129,0.129c-0.043,0.043-0.107,0.097-0.193,0.161l-0.097,0.097c-0.064,0.043-0.14,0.086-0.226,0.129
					c0,0.021-0.011,0.032-0.032,0.032l-0.032,0.032h-0.032c-0.043,0.043-0.118,0.086-0.226,0.129
					c-0.086,0.043-0.118,0.064-0.097,0.064c-0.021,0-0.086,0.021-0.193,0.064c-0.494,0.215-1.01,0.312-1.547,0.29h-0.064
					c0.043,0,0-0.011-0.129-0.032c-0.279-0.021-0.559-0.075-0.838-0.161c-0.107-0.021-0.15-0.032-0.129-0.032
					c0.043,0.021,0,0.011-0.129-0.032c-0.107-0.043-0.183-0.075-0.226-0.097c0.021,0,0-0.021-0.064-0.064
					c-0.107-0.043-0.193-0.086-0.258-0.129h-0.032l-0.032-0.032l-0.032-0.032c-0.086-0.043-0.161-0.097-0.226-0.161
					c0,0.021-0.032,0-0.097-0.064c-0.086-0.064-0.15-0.118-0.193-0.161c-0.021-0.021-0.064-0.064-0.129-0.129
					s-0.107-0.107-0.129-0.129c-0.021-0.043-0.075-0.097-0.161-0.161c-0.043-0.064-0.064-0.107-0.064-0.129
					c-0.043-0.043-0.097-0.118-0.161-0.226l-0.032-0.032c0-0.021-0.011-0.032-0.032-0.032v-0.032c0-0.021-0.011-0.032-0.032-0.032
					l-11.988-19.852V252.1c0,1.053-0.376,1.944-1.128,2.675c-0.752,0.752-1.654,1.128-2.707,1.128s-1.944-0.376-2.675-1.128
					c-0.752-0.73-1.128-1.622-1.128-2.675v-38.736c0-0.859,0.258-1.622,0.773-2.288c0.516-0.688,1.192-1.149,2.03-1.386
					c0.816-0.215,1.622-0.172,2.417,0.129c0.795,0.322,1.418,0.849,1.869,1.579l15.855,26.2l15.855-26.2
					c0.43-0.73,1.042-1.257,1.837-1.579c0.795-0.301,1.192-0.451,1.192-0.451S416.925,209.475,417.763,209.689z"/>
				<path fill="#E8862D" d="M451.248,255.773c-6.359,0-11.795-2.256-16.307-6.768s-6.768-9.947-6.768-16.307
					s2.256-11.784,6.768-16.274c4.512-4.512,9.947-6.768,16.307-6.768c5.221,0,9.894,1.59,14.019,4.77
					c0.838,0.645,1.332,1.493,1.482,2.546c0.129,1.031-0.129,1.966-0.773,2.804s-1.482,1.321-2.514,1.45
					c-1.053,0.15-1.998-0.097-2.836-0.741c-2.771-2.127-5.897-3.19-9.378-3.19c-4.254,0-7.896,1.504-10.925,4.512
					c-3.008,3.029-4.512,6.66-4.512,10.893c0,4.254,1.504,7.896,4.512,10.925c3.029,3.008,6.671,4.512,10.925,4.512
					c3.975,0,7.434-1.343,10.377-4.028c0.043-0.043,0.118-0.107,0.226-0.193l0.032-8.443h-12.601c-1.074,0-1.977-0.365-2.707-1.096
					c-0.752-0.752-1.128-1.654-1.128-2.707s0.376-1.955,1.128-2.707c0.73-0.752,1.633-1.128,2.707-1.128h16.436
					c1.053,0,1.955,0.376,2.707,1.128s1.128,1.654,1.128,2.707l-0.097,20.432c0,1.053-0.376,1.944-1.128,2.675
					c-0.73,0.752-1.622,1.128-2.675,1.128h-0.032c-0.859,0-1.633-0.269-2.32-0.806c-0.666-0.516-1.106-1.171-1.321-1.966
					C458.606,254.893,455.029,255.773,451.248,255.773z"/>
				<path fill="#E8862D" d="M499.269,255.773c-6.359,0-11.795-2.256-16.307-6.768s-6.768-9.947-6.768-16.307
					s2.256-11.784,6.768-16.274c4.512-4.512,9.947-6.768,16.307-6.768c5.221,0,9.894,1.59,14.019,4.77
					c0.838,0.645,1.332,1.493,1.482,2.546c0.129,1.031-0.129,1.966-0.773,2.804s-1.482,1.321-2.514,1.45
					c-1.053,0.15-1.998-0.097-2.836-0.741c-2.771-2.127-5.897-3.19-9.378-3.19c-4.254,0-7.896,1.504-10.925,4.512
					c-3.008,3.029-4.512,6.66-4.512,10.893c0,4.254,1.504,7.896,4.512,10.925c3.029,3.008,6.671,4.512,10.925,4.512
					c3.975,0,7.434-1.343,10.377-4.028c0.043-0.043,0.118-0.107,0.226-0.193l0.032-8.443h-12.601c-1.074,0-1.977-0.365-2.707-1.096
					c-0.752-0.752-1.128-1.654-1.128-2.707s0.376-1.955,1.128-2.707c0.73-0.752,1.633-1.128,2.707-1.128h16.436
					c1.053,0,1.955,0.376,2.707,1.128s1.128,1.654,1.128,2.707l-0.097,20.432c0,1.053-0.376,1.944-1.128,2.675
					c-0.73,0.752-1.622,1.128-2.675,1.128h-0.032c-0.859,0-1.633-0.269-2.32-0.806c-0.666-0.516-1.106-1.171-1.321-1.966
					C506.627,254.893,503.05,255.773,499.269,255.773z"/>
				<path fill="#E8862D" d="M557.827,254.452h-0.032v-0.032l-23.171-29.81V252.1c0,1.053-0.376,1.944-1.128,2.675
					c-0.73,0.752-1.622,1.128-2.675,1.128s-1.944-0.376-2.675-1.128c-0.752-0.73-1.128-1.622-1.128-2.675v-38.607
					c0-0.816,0.236-1.547,0.709-2.191c0.473-0.666,1.096-1.128,1.869-1.386c0.752-0.279,1.525-0.301,2.32-0.064
					c0.773,0.236,1.407,0.677,1.901,1.321l23.171,29.842v-27.521c0-1.053,0.365-1.944,1.096-2.675
					c0.752-0.752,1.654-1.128,2.707-1.128s1.944,0.376,2.675,1.128c0.752,0.73,1.128,1.622,1.128,2.675v38.672
					c0,0.043-0.011,0.107-0.032,0.193c0,0.086,0,0.14,0,0.161c0,0.043-0.011,0.107-0.032,0.193c0,0.086-0.011,0.15-0.032,0.193
					l-0.032,0.161c-0.021,0.107-0.043,0.172-0.064,0.193c0,0.021-0.021,0.075-0.064,0.161c-0.021,0.086-0.043,0.15-0.064,0.193
					l-0.064,0.161l-0.097,0.161c-0.021,0.043-0.054,0.107-0.097,0.193l-0.097,0.097c-0.021,0.043-0.064,0.107-0.129,0.193
					l-0.097,0.129c-0.021,0.021-0.064,0.064-0.129,0.129c-0.064,0.086-0.107,0.129-0.129,0.129c0,0.021-0.043,0.064-0.129,0.129
					c-0.064,0.064-0.118,0.107-0.161,0.129c0.064-0.043,0.054-0.032-0.032,0.032l-0.032,0.032c-0.172,0.129-0.333,0.236-0.483,0.322
					h-0.032c-0.172,0.086-0.344,0.161-0.516,0.226c-0.086,0.043-0.107,0.054-0.064,0.032c-0.172,0.064-0.354,0.107-0.548,0.129
					l-0.097,0.032c-0.193,0.021-0.376,0.032-0.548,0.032c-0.129,0-0.269-0.011-0.419-0.032c0.043,0.021,0.021,0.021-0.064,0
					c-0.129-0.021-0.236-0.043-0.322-0.064c0.021,0.021-0.021,0.011-0.129-0.032c-0.107-0.021-0.193-0.043-0.258-0.064
					c-0.021,0-0.064-0.021-0.129-0.064c-0.107-0.021-0.193-0.054-0.258-0.097c-0.043,0-0.086-0.021-0.129-0.064
					c-0.086-0.043-0.161-0.075-0.226-0.097c-0.064-0.043-0.107-0.075-0.129-0.097c-0.064-0.043-0.14-0.097-0.226-0.161
					c-0.064-0.043-0.107-0.075-0.129-0.097c-0.107-0.086-0.204-0.172-0.29-0.258l-0.032-0.032v-0.032
					c-0.086-0.086-0.129-0.129-0.129-0.129S557.892,254.538,557.827,254.452z"/>
				<path fill="#E8862D" d="M581.902,209.689c1.053,0,1.944,0.376,2.675,1.128c0.752,0.73,1.128,1.622,1.128,2.675v6.026
					c0,1.053-0.376,1.955-1.128,2.707c-0.73,0.73-1.622,1.096-2.675,1.096s-1.955-0.365-2.707-1.096
					c-0.73-0.752-1.096-1.654-1.096-2.707v-6.026c0-1.053,0.365-1.944,1.096-2.675C579.947,210.065,580.85,209.689,581.902,209.689z
					"/>
				<path fill="#E8862D" d="M627.925,242.142c-0.172,3.846-1.708,7.101-4.608,9.765c-2.922,2.664-6.402,3.996-10.441,3.996
					c-3.502,0-6.639-0.752-9.41-2.256c-3.33-1.805-5.446-4.426-6.349-7.863c-0.258-1.01-0.129-1.966,0.387-2.868
					c0.537-0.902,1.311-1.482,2.32-1.74s1.966-0.129,2.868,0.387c0.902,0.537,1.482,1.311,1.74,2.32
					c0.387,1.439,1.439,2.567,3.158,3.384c1.547,0.709,3.309,1.063,5.285,1.063c2.02,0,3.749-0.634,5.188-1.901
					c1.461-1.246,2.234-2.793,2.32-4.641c0.043-1.117-0.354-2.116-1.192-2.997c-1.332-1.418-3.566-2.148-6.703-2.191h-0.032
					c-0.086,0-0.107,0-0.064,0c-0.021,0-0.043,0-0.064,0c-5.264-0.086-9.292-1.601-12.085-4.544
					c-2.299-2.449-3.373-5.296-3.223-8.54c0.172-3.867,1.708-7.133,4.608-9.797s6.381-3.996,10.441-3.996
					c3.502,0,6.639,0.752,9.41,2.256c3.33,1.805,5.446,4.426,6.349,7.863c0.258,1.01,0.118,1.966-0.419,2.868
					c-0.516,0.902-1.278,1.482-2.288,1.74s-1.966,0.129-2.868-0.387c-0.902-0.537-1.482-1.311-1.74-2.32
					c-0.387-1.439-1.45-2.567-3.19-3.384c-1.525-0.709-3.276-1.063-5.253-1.063c-2.02,0-3.76,0.634-5.221,1.901
					c-1.439,1.268-2.202,2.814-2.288,4.641c-0.043,1.117,0.354,2.127,1.192,3.029c1.332,1.396,3.566,2.116,6.703,2.159h0.161
					c5.264,0.086,9.292,1.611,12.085,4.576C627.001,236.029,628.075,238.876,627.925,242.142z"/>
			</g>
		</g>
	</g>
	<g clip-path="url(#SVGID_2_)">
		<g>
			<path d="M72.494,437.8c-16.115,0-31.268-6.276-42.663-17.671c-11.396-11.396-17.671-26.547-17.671-42.663
				s6.275-31.268,17.671-42.662c11.396-11.396,26.548-17.672,42.663-17.672s31.268,6.275,42.663,17.672
				c11.396,11.395,17.671,26.546,17.671,42.662s-6.275,31.267-17.671,42.663C103.762,431.523,88.609,437.8,72.494,437.8z
				 M72.494,321.87c-30.656,0-55.596,24.939-55.596,55.596c0,30.655,24.939,55.597,55.596,55.597s55.596-24.941,55.596-55.597
				C128.09,346.81,103.15,321.87,72.494,321.87z"/>
			<g>
				<circle fill="#E2B774" cx="71.533" cy="388.158" r="34.971"/>
				<path fill="#0F0E05" d="M80.082,374.22c0,0,4.976,7.349,15.169,3.476c2.747-1.277,2.747-1.277,2.747-1.277
					S86.643,371.175,80.082,374.22z"/>
				<path fill="#0F0E05" d="M65.961,374.22c0,0-4.976,7.349-15.168,3.476c-2.747-1.277-2.747-1.277-2.747-1.277
					S59.401,371.175,65.961,374.22z"/>
				<path fill="#E8862D" d="M85.813,323.409c0,0,6.091-5.754,6.204-7.446c-2.369,0.677-4.851,0.902-4.851,0.902
					s2.82-5.753,3.385-6.542c-5.076,0.112-8.35,3.497-9.702,2.03c-1.354-1.467-0.45-5.866-0.45-5.866s-5.527,1.241-7.559,4.061
					c-1.806-2.256-4.398-6.316-4.398-6.316s-4.175,7.671-4.175,8.912c-1.354-1.129-2.595-3.159-2.595-3.159
					s-3.609,2.256-4.061,8.122c-1.805,1.015-8.348,1.354-10.039,1.806c0.676,2.368,7.896,5.865,5.302,6.429
					c-2.482,0.339-2.257,0.79-2.257,0.79s-1.354,0.451,0,1.241c0.451,1.128-1.804,3.609-3.384,3.609
					c2.144,0.339,2.595,0.677,4.173,1.354C55.693,332.658,83.105,331.869,85.813,323.409z"/>
				<path fill="#D63E3E" d="M113.45,376.652c-3.384-2.256-3.384-2.256-3.384-2.256s2.369-8.121,1.917-9.476
					c-0.678-1.354-1.354-1.918-1.354-1.918s-0.563-14.552-6.43-16.47c-3.723-2.481-4.962-8.686-4.737-13.311
					c-1.015-4.399-6.065-12.973-15.431-13.537c-1.35-0.618-7.031-2.078-12.031-2.128v-0.002v0.001c0,0,0,0,0-0.001v0.002
					c-5,0.05-10.625,1.51-11.975,2.128c-9.365,0.564-14.344,9.138-15.359,13.537c0.227,4.625-1.023,10.829-4.744,13.311
					c-5.867,1.918-6.435,16.47-6.435,16.47s-0.678,0.564-1.356,1.918c-0.451,1.354,1.917,9.476,1.917,9.476s-0.001,0-3.386,2.256
					c-2.143,4.174,3.836,8.911,3.836,8.911c8.122-12.407,27.037-10.94,32.902-11.618c1.576-0.014,7.729-0.014,9.302,0
					c5.867,0.678,24.803-0.789,32.925,11.618C109.629,385.563,115.594,380.826,113.45,376.652z"/>
				<path fill="#E8862D" d="M110.066,374.396c0,0,0,0,3.384,2.256c2.144,4.174-3.821,8.911-3.821,8.911
					c-8.122-12.407-27.059-10.94-32.925-11.618c-1.574-0.014-7.728-0.014-9.302,0c-5.866,0.678-24.781-0.789-32.903,11.618
					c0,0-5.979-4.737-3.836-8.911c3.385-2.256,3.385-2.256,3.385-2.256S69.907,357.25,110.066,374.396z"/>
				<ellipse fill="#F45D5D" cx="50.018" cy="385.015" rx="4.701" ry="3.145"/>
				<ellipse fill="#F45D5D" cx="95.365" cy="385.465" rx="4.702" ry="3.145"/>
				<path fill="#3D3D3D" d="M115.029,391.995c-0.451,2.706-3.836,4.285-6.994,5.188c8.799-7.444,5.866-12.408,4.737-15.565
					c-0.193,1.939-1.057,1.877-4.596,2.539c2.832-1.144,4.782-4.521,4.596-6.376c-0.45,1.805-4.962,2.256-6.767,3.16
					c-1.13,2.03-9.252,5.864-9.252,5.864s-2.781-0.301-2.781,4.889c0,5.188-12.636,13.01-12.636,13.01L72.616,405l-8.679-0.297
					c0,0-12.587-7.821-12.587-13.01c0-5.189-2.782-4.889-2.782-4.889s-8.122-3.834-9.25-5.864c-1.805-0.904-6.318-1.355-6.768-3.16
					c-0.188,1.855,1.764,5.232,4.596,6.376c-3.538-0.662-4.402-0.6-4.596-2.539c-1.129,3.157-4.063,8.121,4.736,15.565
					c-3.158-0.902-6.544-2.481-6.994-5.188c-0.227,5.188-2.708,14.211,10.829,18.499c-3.386,0.451-8.123,0.676-9.702,1.354
					c2.255,2.933,11.728,10.604,17.593,11.506c-1.804,2.708-1.81,2.708-1.81,2.708s8.561,4.286,16.684-0.902
					c0.677-1.129,0.653-2.653,0.653-2.653S65.296,427,71.938,428h1.354c6.646-1,7.444-5.494,7.444-5.494s0,1.326,0.677,2.454
					c8.122,5.189,16.694,1.002,16.694,1.002s0,0.05-1.805-2.657c5.866-0.902,15.342-8.549,17.599-11.481
					c-1.579-0.678-6.317-0.892-9.702-1.341C117.736,406.195,115.255,397.183,115.029,391.995z"/>
				<g>
					<defs>
						<path id="SVGID_7_" d="M95.391,387.137c0,0-1.871-1.902-3.742-0.967C89.249,397.19,78.82,401,72.645,402h-0.039l0,0h0.09
							c-6.177-1-16.553-4.81-18.953-15.83c-1.87-0.936-3.745,1.11-3.745,1.11s0.328,22.712,22.69,22.712
							C95.051,409.992,95.391,387.137,95.391,387.137z"/>
					</defs>
					<clipPath id="SVGID_8_">
						<use xlink:href="#SVGID_7_"  overflow="visible"/>
					</clipPath>
					<g clip-path="url(#SVGID_8_)">
						<path fill="#FFFFFF" d="M95.615,387.137c0,0-1.87-1.902-3.741-0.967C89.473,397.19,79.047,401,72.869,402h-0.038l0,0h0.089
							c-6.175-1-16.552-4.81-18.952-15.83c-1.87-0.936-3.746,1.11-3.746,1.11s0.329,22.712,22.692,22.712
							C95.275,409.992,95.615,387.137,95.615,387.137z"/>
						<path fill="#FFFFFF" d="M72.914,410.053c-11.609,0-17.249-6.223-19.888-11.443C50.171,392.961,50,387.234,50,387.179v-0.043
							l0.083-0.032c0.054-0.062,1.342-1.49,2.865-1.49c0.363,0,0.727,0.082,1.055,0.247l0.056,0.024l0.015,0.053
							c2.472,11.354,13.386,15.122,18.818,15.53c5.451-0.409,16.398-4.18,18.871-15.53l0.011-0.053l0.05-0.024
							c0.332-0.167,0.688-0.251,1.058-0.251c1.515,0,2.766,1.394,2.817,1.453l0.03,0.032l-0.002,0.043
							c-0.001,0.058-0.118,5.793-2.977,11.452C90.109,403.819,84.523,410.053,72.914,410.053z M50.336,387.219
							c0.016,0.544,0.247,5.955,2.949,11.296c2.612,5.161,8.138,11.313,19.629,11.313c11.49,0,17.018-6.163,19.633-11.334
							c2.704-5.349,2.938-10.77,2.955-11.315c-0.196-0.206-1.331-1.344-2.62-1.344c-0.315,0-0.622,0.069-0.909,0.204
							c-1.072,4.859-3.836,8.933-8.067,11.78C80.711,399.969,77,401.415,73,401.691v0.004l-0.131-0.006
							c-3.646-0.285-7.726-1.729-10.899-3.87c-4.213-2.848-7.019-6.919-8.089-11.78c-0.284-0.133-0.589-0.2-0.899-0.2
							C51.682,385.839,50.529,387.01,50.336,387.219z"/>
					</g>
					
						<rect x="67.566" y="405.216" transform="matrix(0.0218 0.9998 -0.9998 0.0218 476.7944 324.2562)" clip-path="url(#SVGID_8_)" fill="#A0A0A0" width="10.258" height="1.128"/>
					
						<rect x="74.475" y="403.469" transform="matrix(0.0108 0.9999 -0.9999 0.0108 483.5068 319.3186)" clip-path="url(#SVGID_8_)" fill="#A0A0A0" width="11.778" height="1.128"/>
					
						<rect x="81.268" y="399.921" transform="matrix(0.0622 0.9981 -0.9981 0.0622 481.2072 288.8546)" clip-path="url(#SVGID_8_)" fill="#A0A0A0" width="11.262" height="1.128"/>
					
						<rect x="85.957" y="394.557" transform="matrix(0.3266 0.9452 -0.9452 0.3266 434.8125 179.9314)" clip-path="url(#SVGID_8_)" fill="#A0A0A0" width="10.345" height="1.128"/>
					
						<rect x="89.929" y="388.705" transform="matrix(0.7621 0.6475 -0.6475 0.7621 274.364 31.9088)" clip-path="url(#SVGID_8_)" fill="#A0A0A0" width="7.672" height="1.129"/>
					
						<rect x="64.132" y="398.383" transform="matrix(0.9996 0.0286 -0.0286 0.9996 11.5611 -1.6844)" clip-path="url(#SVGID_8_)" fill="#A0A0A0" width="1.127" height="10.293"/>
					
						<rect x="57.711" y="394.411" transform="matrix(0.9972 0.0753 -0.0753 0.9972 30.2924 -3.2525)" clip-path="url(#SVGID_8_)" fill="#A0A0A0" width="1.128" height="11.292"/>
					
						<rect x="53.51" y="388.76" transform="matrix(0.9546 0.2977 -0.2977 0.9546 119.9838 1.8028)" clip-path="url(#SVGID_8_)" fill="#A0A0A0" width="1.128" height="11.989"/>
					
						<rect x="50.869" y="385.421" transform="matrix(0.6707 0.7417 -0.7417 0.6707 305.821 90.0987)" clip-path="url(#SVGID_8_)" fill="#A0A0A0" width="1.128" height="8.14"/>
				</g>
				<path fill="#3D3D3D" d="M92.017,382.894c0.15,2.106-3.685,3.084-4.963,3.535c-3.46,1.881-8.046-4.362-8.874-4.587
					c-2.639-0.337-4.288,0.457-5.319,1.643c-1.03-1.186-2.683-1.979-5.319-1.643c-0.828,0.225-5.414,6.468-8.875,4.587
					c-1.278-0.451-5.113-1.429-4.964-3.535c-0.301,0.979-0.978,14.063,9.927,13.914c1.178-0.372,6.134-0.392,9.231-4.3
					c3.097,3.908,8.052,3.928,9.229,4.3C92.994,396.957,92.318,383.872,92.017,382.894z"/>
				<g>
					<path fill="none" d="M110.066,374.396c0,0,2.369-8.121,1.917-9.476c-0.678-1.354-1.354-1.911-1.354-1.911
						s-0.014-0.01-0.062-1.01h-9.429l6.742-11.686c-0.024-0.049-0.049-0.1-0.072-0.147l-6.768,11.508L92.113,346h11.928
						c-3.598-2-4.801-8.43-4.579-12.988c-1.015-4.398-6.065-12.868-15.431-13.432c-1.35-0.618-7.031-1.973-12.031-2.022v-0.002
						v0.001c0,0,0,0,0-0.001v0.002c-5,0.05-10.625,1.51-11.975,2.128c-9.365,0.564-14.344,8.928-15.359,13.326
						C44.889,337.57,43.671,344,40.071,346h15.752l-8.929,15.674l-8.409-14.462c-0.037,0.028-0.072,0.114-0.107,0.146L46.799,362
						H33.547c-0.049,1-0.063,1.01-0.063,1.01s-0.677,0.561-1.354,1.914c-0.451,1.354,1.918,9.475,1.918,9.475s0-0.002-3.385,2.256
						c-2.143,4.174,3.836,8.91,3.836,8.91c8.122-12.408,27.037-10.942,32.903-11.618c1.574-0.014,7.728-0.015,9.302-0.001
						c5.866,0.678,24.803-0.79,32.925,11.618c0,0,5.965-4.737,3.821-8.911C110.066,374.396,110.066,374.396,110.066,374.396z
						 M46.99,362l8.929-15.464L64.847,362H46.99z M56.016,346h17.855l-8.928,15.464L56.016,346z M65.041,362l8.927-15.464
						L82.896,362H65.041z M74.064,346H91.92l-8.927,15.464L74.064,346z M83.09,362l8.927-15.464L100.944,362H83.09z"/>
					<path fill="#E8862D" d="M55.823,346H40.071c-0.052,0-0.104,0.287-0.157,0.322c-0.518,0.17-0.992,0.543-1.429,0.89l8.409,14.409
						L55.823,346z"/>
					<polygon fill="#E8862D" points="56.016,346 64.943,361.464 73.871,346 					"/>
					<polygon fill="#E8862D" points="74.064,346 82.993,361.464 91.92,346 					"/>
					<path fill="#E8862D" d="M101.041,361.674l6.768-11.616c-0.896-1.752-2.07-3.284-3.609-3.786
						c-0.053-0.037-0.105-0.271-0.158-0.271H92.113L101.041,361.674z"/>
					<path fill="#891F38" d="M33.483,361.875c0,0,77.3,3.165,77.146,1.128c-0.151-2.037-0.062-1.017-0.062-1.017l-76.905-1.271
						L33.483,361.875z"/>
					<path fill="#891F38" d="M38.378,347.414C34.732,350.449,33.772,359,33.547,362h13.252L38.378,347.414z"/>
					<polygon fill="#891F38" points="46.99,362 64.847,362 55.919,346.536 					"/>
					<polygon fill="#891F38" points="65.041,362 82.896,362 73.968,346.536 					"/>
					<polygon fill="#891F38" points="83.09,362 100.944,362 92.017,346.536 					"/>
					<path fill="#891F38" d="M110.567,362c-0.174-3-0.777-7.831-2.687-11.679L101.139,362H110.567z"/>
				</g>
			</g>
		</g>
		<g>
			<g>
				<path fill="#3D3D3D" d="M190.318,399.425c0.752,0.73,1.128,1.622,1.128,2.675s-0.376,1.944-1.128,2.675
					c-0.73,0.752-1.622,1.128-2.675,1.128s-1.955-0.376-2.707-1.128l-3.48-3.48c-4.104,3.072-8.723,4.608-13.857,4.608
					c-6.359,0-11.806-2.256-16.339-6.768c-4.512-4.533-6.768-9.979-6.768-16.339c0-6.381,2.256-11.827,6.768-16.339
					c4.533-4.512,9.979-6.768,16.339-6.768c6.381,0,11.827,2.256,16.339,6.768s6.768,9.958,6.768,16.339
					c0,4.748-1.332,9.077-3.996,12.987L190.318,399.425z M167.599,398.297c3.029,0,5.822-0.827,8.379-2.481l-2.739-2.739
					c-0.73-0.73-1.096-1.622-1.096-2.675s0.365-1.955,1.096-2.707c0.752-0.73,1.654-1.096,2.707-1.096s1.944,0.365,2.675,1.096
					l2.546,2.578c1.289-2.32,1.934-4.813,1.934-7.477c0-4.275-1.515-7.928-4.544-10.957s-6.682-4.544-10.957-4.544
					s-7.928,1.515-10.957,4.544s-4.544,6.682-4.544,10.957s1.515,7.928,4.544,10.957S163.323,398.297,167.599,398.297z"/>
				<path fill="#3D3D3D" d="M205.403,359.689c1.053,0,1.944,0.376,2.675,1.128c0.752,0.73,1.128,1.622,1.128,2.675v6.026
					c0,1.053-0.376,1.955-1.128,2.707c-0.73,0.73-1.622,1.096-2.675,1.096s-1.955-0.365-2.707-1.096
					c-0.73-0.752-1.096-1.654-1.096-2.707v-6.026c0-1.053,0.365-1.944,1.096-2.675C203.448,360.065,204.351,359.689,205.403,359.689
					z"/>
				<path fill="#3D3D3D" d="M253.423,404.452h-0.032v-0.032l-23.171-29.81V402.1c0,1.053-0.376,1.944-1.128,2.675
					c-0.73,0.752-1.622,1.128-2.675,1.128s-1.944-0.376-2.675-1.128c-0.752-0.73-1.128-1.622-1.128-2.675v-38.607
					c0-0.816,0.236-1.547,0.709-2.191c0.473-0.666,1.096-1.128,1.869-1.386c0.752-0.279,1.525-0.301,2.32-0.064
					c0.773,0.236,1.407,0.677,1.901,1.321l23.171,29.842v-27.521c0-1.053,0.365-1.944,1.096-2.675
					c0.752-0.752,1.654-1.128,2.707-1.128s1.944,0.376,2.675,1.128c0.752,0.73,1.128,1.622,1.128,2.675v38.672
					c0,0.043-0.011,0.107-0.032,0.193c0,0.086,0,0.14,0,0.161c0,0.043-0.011,0.107-0.032,0.193c0,0.086-0.011,0.15-0.032,0.193
					l-0.032,0.161c-0.021,0.107-0.043,0.172-0.064,0.193c0,0.021-0.021,0.075-0.064,0.161c-0.021,0.086-0.043,0.15-0.064,0.193
					l-0.064,0.161l-0.097,0.161c-0.021,0.043-0.054,0.107-0.097,0.193l-0.097,0.097c-0.021,0.043-0.064,0.107-0.129,0.193
					l-0.097,0.129c-0.021,0.021-0.064,0.064-0.129,0.129c-0.064,0.086-0.107,0.129-0.129,0.129c0,0.021-0.043,0.064-0.129,0.129
					c-0.064,0.064-0.118,0.107-0.161,0.129c0.064-0.043,0.054-0.032-0.032,0.032l-0.032,0.032c-0.172,0.129-0.333,0.236-0.483,0.322
					h-0.032c-0.172,0.086-0.344,0.161-0.516,0.226c-0.086,0.043-0.107,0.054-0.064,0.032c-0.172,0.064-0.354,0.107-0.548,0.129
					l-0.097,0.032c-0.193,0.021-0.376,0.032-0.548,0.032c-0.129,0-0.269-0.011-0.419-0.032c0.043,0.021,0.021,0.021-0.064,0
					c-0.129-0.021-0.236-0.043-0.322-0.064c0.021,0.021-0.021,0.011-0.129-0.032c-0.107-0.021-0.193-0.043-0.258-0.064
					c-0.021,0-0.064-0.021-0.129-0.064c-0.107-0.021-0.193-0.054-0.258-0.097c-0.043,0-0.086-0.021-0.129-0.064
					c-0.086-0.043-0.161-0.075-0.226-0.097c-0.064-0.043-0.107-0.075-0.129-0.097c-0.064-0.043-0.14-0.097-0.226-0.161
					c-0.064-0.043-0.107-0.075-0.129-0.097c-0.107-0.086-0.204-0.172-0.29-0.258l-0.032-0.032v-0.032
					c-0.086-0.086-0.129-0.129-0.129-0.129S253.487,404.538,253.423,404.452z"/>
				<path fill="#3D3D3D" d="M277.499,359.689c1.053,0,1.944,0.376,2.675,1.128c0.752,0.73,1.128,1.622,1.128,2.675v6.026
					c0,1.053-0.376,1.955-1.128,2.707c-0.73,0.73-1.622,1.096-2.675,1.096s-1.955-0.365-2.707-1.096
					c-0.73-0.752-1.096-1.654-1.096-2.707v-6.026c0-1.053,0.365-1.944,1.096-2.675C275.544,360.065,276.446,359.689,277.499,359.689
					z"/>
				<path fill="#E8862D" d="M335.509,359.689c0.816,0.236,1.482,0.698,1.998,1.386c0.516,0.666,0.773,1.429,0.773,2.288V402.1
					c0,1.053-0.365,1.944-1.096,2.675c-0.752,0.752-1.654,1.128-2.707,1.128s-1.955-0.376-2.707-1.128
					c-0.73-0.73-1.096-1.622-1.096-2.675v-25.072l-12.021,19.852v0.032l-0.032,0.032l-0.032,0.032l-0.032,0.032
					c-0.064,0.107-0.107,0.183-0.129,0.226l-0.097,0.129c-0.086,0.086-0.14,0.14-0.161,0.161s-0.064,0.064-0.129,0.129
					s-0.107,0.107-0.129,0.129c-0.043,0.043-0.107,0.097-0.193,0.161l-0.097,0.097c-0.064,0.043-0.14,0.086-0.226,0.129
					c0,0.021-0.011,0.032-0.032,0.032l-0.032,0.032h-0.032c-0.043,0.043-0.118,0.086-0.226,0.129
					c-0.086,0.043-0.118,0.064-0.097,0.064c-0.021,0-0.086,0.021-0.193,0.064c-0.494,0.215-1.01,0.312-1.547,0.29h-0.064
					c0.043,0,0-0.011-0.129-0.032c-0.279-0.021-0.559-0.075-0.838-0.161c-0.107-0.021-0.15-0.032-0.129-0.032
					c0.043,0.021,0,0.011-0.129-0.032c-0.107-0.043-0.183-0.075-0.226-0.097c0.021,0,0-0.021-0.064-0.064
					c-0.107-0.043-0.193-0.086-0.258-0.129h-0.032l-0.032-0.032l-0.032-0.032c-0.086-0.043-0.161-0.097-0.226-0.161
					c0,0.021-0.032,0-0.097-0.064c-0.086-0.064-0.15-0.118-0.193-0.161c-0.021-0.021-0.064-0.064-0.129-0.129
					s-0.107-0.107-0.129-0.129c-0.021-0.043-0.075-0.097-0.161-0.161c-0.043-0.064-0.064-0.107-0.064-0.129
					c-0.043-0.043-0.097-0.118-0.161-0.226l-0.032-0.032c0-0.021-0.011-0.032-0.032-0.032v-0.032c0-0.021-0.011-0.032-0.032-0.032
					l-11.988-19.852V402.1c0,1.053-0.376,1.944-1.128,2.675c-0.752,0.752-1.654,1.128-2.707,1.128s-1.944-0.376-2.675-1.128
					c-0.752-0.73-1.128-1.622-1.128-2.675v-38.736c0-0.859,0.258-1.622,0.773-2.288c0.516-0.688,1.192-1.149,2.03-1.386
					c0.816-0.215,1.622-0.172,2.417,0.129c0.795,0.322,1.418,0.849,1.869,1.579l15.855,26.2l15.855-26.2
					c0.43-0.73,1.042-1.257,1.837-1.579c0.795-0.301,1.192-0.451,1.192-0.451S334.671,359.475,335.509,359.689z"/>
				<path fill="#E8862D" d="M354.686,359.689c1.053,0,1.944,0.376,2.675,1.128c0.752,0.73,1.128,1.622,1.128,2.675v6.026
					c0,1.053-0.376,1.955-1.128,2.707c-0.73,0.73-1.622,1.096-2.675,1.096s-1.955-0.365-2.707-1.096
					c-0.73-0.752-1.096-1.654-1.096-2.707v-6.026c0-1.053,0.365-1.944,1.096-2.675C352.731,360.065,353.633,359.689,354.686,359.689
					z"/>
				<path fill="#E8862D" d="M400.708,392.142c-0.172,3.846-1.708,7.101-4.608,9.765c-2.922,2.664-6.402,3.996-10.441,3.996
					c-3.502,0-6.639-0.752-9.41-2.256c-3.33-1.805-5.446-4.426-6.349-7.863c-0.258-1.01-0.129-1.966,0.387-2.868
					c0.537-0.902,1.311-1.482,2.32-1.74s1.966-0.129,2.868,0.387c0.902,0.537,1.482,1.311,1.74,2.32
					c0.387,1.439,1.439,2.567,3.158,3.384c1.547,0.709,3.309,1.063,5.285,1.063c2.02,0,3.749-0.634,5.188-1.901
					c1.461-1.246,2.234-2.793,2.32-4.641c0.043-1.117-0.354-2.116-1.192-2.997c-1.332-1.418-3.566-2.148-6.703-2.191h-0.032
					c-0.086,0-0.107,0-0.064,0c-0.021,0-0.043,0-0.064,0c-5.264-0.086-9.292-1.601-12.085-4.544
					c-2.299-2.449-3.373-5.296-3.223-8.54c0.172-3.867,1.708-7.133,4.608-9.797s6.381-3.996,10.441-3.996
					c3.502,0,6.639,0.752,9.41,2.256c3.33,1.805,5.446,4.426,6.349,7.863c0.258,1.01,0.118,1.966-0.419,2.868
					c-0.516,0.902-1.278,1.482-2.288,1.74s-1.966,0.129-2.868-0.387c-0.902-0.537-1.482-1.311-1.74-2.32
					c-0.387-1.439-1.45-2.567-3.19-3.384c-1.525-0.709-3.276-1.063-5.253-1.063c-2.02,0-3.76,0.634-5.221,1.901
					c-1.439,1.268-2.202,2.814-2.288,4.641c-0.043,1.117,0.354,2.127,1.192,3.029c1.332,1.396,3.566,2.116,6.703,2.159h0.161
					c5.264,0.086,9.292,1.611,12.085,4.576C399.785,386.029,400.859,388.876,400.708,392.142z"/>
			</g>
		</g>
	</g>
</g>
</svg>
