<?xml version="1.0" encoding="utf-8"?>
<!-- Generator: Adobe Illustrator 16.0.0, SVG Export Plug-In . SVG Version: 6.00 Build 0)  -->
<!DOCTYPE svg PUBLIC "-//W3C//DTD SVG 1.1//EN" "http://www.w3.org/Graphics/SVG/1.1/DTD/svg11.dtd">
<svg version="1.1" id="Calque_1" xmlns="http://www.w3.org/2000/svg" xmlns:xlink="http://www.w3.org/1999/xlink" x="0px" y="0px"
	 width="1422.147px" height="869.501px" viewBox="0 0 1422.147 869.501" enable-background="new 0 0 1422.147 869.501"
	 xml:space="preserve">
<g>
	<path fill="#E8862D" d="M880.954,678.72c-1.313,45.56-41.601,81.385-89.983,80.021c-48.384-1.36-86.542-39.397-85.228-84.954
		c1.313-45.558,41.6-81.385,89.983-80.022C844.109,595.128,882.267,633.163,880.954,678.72z"/>
	<path fill="#D37529" d="M815.713,643.976c0,0,11.965,17.687,37.765,9.27c6.968-2.819,6.968-2.819,6.968-2.819
		S832.356,637.26,815.713,643.976z"/>
	<path fill="#D37529" d="M780.339,642.979c0,0-12.966,16.985-38.239,7.131c-6.794-3.207-6.794-3.207-6.794-3.207
		S764.109,635.336,780.339,642.979z"/>
	<path fill="#D37529" d="M833.525,524.525c0,0,15.651-13.143,16.048-17.125c-5.98,1.43-12.214,1.787-12.214,1.787
		s7.458-13.373,8.925-15.195c-12.725-0.092-21.151,7.66-24.443,4.104c-3.291-3.554-0.73-13.868-0.73-13.868
		s-13.933,2.537-19.21,9.045c-4.369-5.447-10.592-15.21-10.592-15.21s-10.979,17.8-11.063,20.727
		c-3.315-2.757-6.286-7.634-6.286-7.634s-9.195,5.067-10.726,18.872c-4.59,2.268-21.003,2.604-25.273,3.55
		c1.533,5.635,19.383,14.394,12.845,15.54c-6.241,0.624-5.707,1.704-5.707,1.704s-3.42,0.97-0.083,2.928
		c1.053,2.691-4.767,8.387-8.723,8.275c5.346,0.95,6.453,1.78,10.363,3.487C757.442,544.22,826.167,544.29,833.525,524.525z"/>
	<path fill="#D37529" d="M899.141,652.069c-8.326-5.561-8.326-5.561-8.326-5.561s6.486-18.991,5.449-22.216
		c-1.604-3.241-3.261-4.619-3.261-4.619s-0.424-34.365-14.989-39.303c-9.156-6.117-11.844-20.84-10.965-31.734
		c-2.243-10.449-14.09-31.021-37.507-33.012c-3.342-1.557-15.772-5.354-29.772-5.861v-0.006c0,0-0.4,0.028-0.502,0.026
		c-0.098-0.005-0.498,0.019-0.498,0.019v0.005c-14-0.313-26.447,2.78-29.871,4.145c-23.494,0.671-36.415,20.527-39.258,30.834
		c0.251,10.926-3.23,25.465-12.724,31.056c-14.826,4.111-17.202,38.393-17.202,38.393s-1.724,1.281-3.511,4.427
		c-1.223,3.161,4.167,22.485,4.167,22.485s0.002,0-8.628,5.082c-5.655,9.694,9.003,21.293,9.003,21.293
		c21.189-28.697,68.479-23.903,83.22-25.087c3.945,0.081,19.359,0.515,23.303,0.656c14.649,2.011,62.189-0.113,81.693,29.731
		C888.962,672.822,904.225,662.065,899.141,652.069z"/>
	<path fill="#E8862D" d="M890.815,646.509c0,0,0,0,8.326,5.561c5.084,9.996-10.179,20.753-10.179,20.753
		c-19.504-29.845-67.043-27.72-81.693-29.731c-3.943-0.142-19.356-0.575-23.302-0.656c-14.743,1.184-62.029-3.61-83.22,25.087
		c0,0-14.657-11.6-9.002-21.293c8.632-5.084,8.632-5.084,8.632-5.084S791.375,603.229,890.815,646.509z"/>
	<path fill="#D37529" d="M751.442,667.649c0.118-4.096-5.062-7.565-11.567-7.748c-6.505-0.184-11.875,2.989-11.992,7.085
		c-0.119,4.097,5.062,7.566,11.563,7.749C745.953,674.918,751.323,671.747,751.442,667.649z"/>
	<path fill="#D37529" d="M866.442,668.649c0.118-4.096-5.062-7.565-11.567-7.748c-6.505-0.184-11.875,2.989-11.992,7.085
		c-0.119,4.097,5.062,7.566,11.563,7.749C860.953,675.918,866.323,672.747,866.442,668.649z"/>
	<path fill="#D37529" d="M902.053,688.369c-1.315,6.355-9.899,9.841-17.874,11.747c22.55-16.941,15.538-28.856,12.928-36.386
		c-0.617,4.562-2.777,4.357-11.687,5.67c7.17-2.498,12.285-10.328,11.948-14.718c-1.253,4.226-12.589,4.972-17.172,6.973
		c-2.966,4.71-23.571,13.185-23.571,13.185s-6.95-0.904-7.303,11.335c-0.354,12.241-32.539,29.797-32.539,29.797l-21.868,0.085
		l-21.719-1.313c0,0-31.004-19.336-30.649-31.575c0.352-12.24-6.641-11.729-6.641-11.729s-20.084-9.619-22.772-14.49
		c-4.461-2.254-15.732-3.638-16.742-7.926c-0.592,4.362,4.066,12.468,11.081,15.366c-8.817-1.813-10.987-1.729-11.341-6.319
		c-3.041,7.371-10.728,18.871,10.809,37.055c-7.851-2.352-16.221-6.315-17.169-12.733c-0.918,12.224-7.75,33.337,25.871,44.403
		c-8.51,0.824-20.396,1.022-24.399,2.508c5.452,7.078,28.662,25.841,43.296,28.383c-4.706,6.259-4.721,6.259-4.721,6.259
		s21.157,10.715,41.857-0.951c1.771-2.613,1.791-5.309,1.791-5.309s1.558,11.713,18.133,14.378l3.392,0.096
		c16.715-1.728,19.05-13.332,19.05-13.332s-0.077,2.679,1.542,5.388c19.994,12.812,41.764,3.314,41.764,3.314s0,0.003-4.338-6.511
		c14.757-1.715,39.017-19.138,44.867-25.897c-3.909-1.708-15.763-2.574-24.209-3.876
		C907.869,722.088,902.266,700.626,902.053,688.369z"/>
	<g>
		<defs>
			<path id="SVGID_1_" d="M853.182,675.527c0,0-4.535-5.345-9.285-3.269c-6.763,25.828-33.164,34.706-48.665,35.276l-0.101-0.004
				l0,0l0.229-0.027c-15.442-1.378-41.159-11.771-46.426-37.936c-4.622-2.342-9.47,2.727-9.47,2.727s-0.725,53.781,55.298,55.358
				C850.784,729.23,853.182,675.527,853.182,675.527z"/>
		</defs>
		<clipPath id="SVGID_2_">
			<use xlink:href="#SVGID_1_"  overflow="visible"/>
		</clipPath>
		<path clip-path="url(#SVGID_2_)" fill="#E8862D" d="M853.748,675.542c0,0-4.546-5.118-9.296-3.042
			c-6.762,25.828-33.166,34.5-48.675,35.5h-0.102l0,0l0.23,0.139c-15.437-1.691-41.153-12.08-46.417-38.245
			c-4.622-2.341-9.465,2.573-9.465,2.573s-0.722,53.703,55.302,55.28C851.346,729.325,853.748,675.542,853.748,675.542z"/>
		
			<line clip-path="url(#SVGID_2_)" fill="none" stroke="#D37529" stroke-width="5" stroke-miterlimit="10" x1="795.13" y1="705.8" x2="794.992" y2="730.007"/>
		
			<line clip-path="url(#SVGID_2_)" fill="none" stroke="#D37529" stroke-width="5" stroke-miterlimit="10" x1="814.63" y1="700.425" x2="814.151" y2="728.217"/>
		
			<line clip-path="url(#SVGID_2_)" fill="none" stroke="#D37529" stroke-width="5" stroke-miterlimit="10" x1="830.509" y1="693.134" x2="831.504" y2="719.699"/>
		
			<line clip-path="url(#SVGID_2_)" fill="none" stroke="#D37529" stroke-width="5" stroke-miterlimit="10" x1="838.065" y1="682.408" x2="845.866" y2="705.708"/>
		
			<line clip-path="url(#SVGID_2_)" fill="none" stroke="#D37529" stroke-width="5" stroke-miterlimit="10" x1="841.814" y1="674.377" x2="856.122" y2="686.51"/>
		
			<line clip-path="url(#SVGID_2_)" fill="none" stroke="#D37529" stroke-width="5" stroke-miterlimit="10" x1="775.889" y1="699.901" x2="774.458" y2="724.153"/>
		
			<line clip-path="url(#SVGID_2_)" fill="none" stroke="#D37529" stroke-width="5" stroke-miterlimit="10" x1="760.762" y1="690.135" x2="757.885" y2="716.638"/>
		
			<line clip-path="url(#SVGID_2_)" fill="none" stroke="#D37529" stroke-width="5" stroke-miterlimit="10" x1="754.03" y1="677.212" x2="744.292" y2="703.954"/>
		
			<line clip-path="url(#SVGID_2_)" fill="none" stroke="#D37529" stroke-width="5" stroke-miterlimit="10" x1="750.652" y1="671.749" x2="735.157" y2="684.208"/>
	</g>
	<path fill="#D37529" d="M845.023,665.282c0.232,4.977-9.443,7.013-12.676,7.987c-8.795,4.189-19.861-10.857-21.919-11.448
		c-6.588-0.979-10.776,0.777-13.439,3.501c-2.499-2.869-6.582-4.858-13.215-4.251c-2.086,0.473-14.004,14.874-22.543,10.194
		c-3.171-1.154-12.712-3.731-12.193-8.688c-0.819,2.284-3.405,33.104,23.922,33.52c2.978-0.795,15.393-0.489,23.417-9.491
		c7.49,9.44,19.906,9.833,22.829,10.793C846.514,698.523,845.708,667.609,845.023,665.282z"/>
	<g>
		<path fill="none" d="M890.815,646.509c0,0,6.486-18.991,5.449-22.216c-1.604-3.241-3.266-4.473-3.266-4.473
			s-0.008-0.994-0.094-2.253l-23.621-0.663l17.691-27.222c-0.058-0.116-0.112-0.308-0.17-0.421l-17.747,27.124l-21.313-37.15
			l29.882,0.842c-8.843-6.216-11.442-20.711-10.575-31.448c-2.244-10.449-14.09-31.017-37.509-33.009
			c-3.342-1.555-15.772-5.35-29.772-5.856v-0.006c0,0-0.4,0.028-0.502,0.026c-0.098-0.005-0.498,0.019-0.498,0.019v0.005
			c-14-0.313-26.447,2.78-29.871,4.145c-23.494,0.671-36.413,20.519-39.256,30.826c0.247,10.768-3.146,25.085-12.331,30.794
			l39.487,1.108l-23.402,35.852l-20.072-34.952c-0.092,0.065-0.185,0.274-0.273,0.342l20.1,35.147l-33.197-0.935
			c-0.158,1.252-0.221,2.243-0.221,2.243s-1.732,1.21-3.52,4.354c-1.223,3.162,4.162,22.449,4.162,22.449s0-0.017-8.632,5.066
			c-5.653,9.694,9.003,21.281,9.003,21.281c21.191-28.696,68.477-23.908,83.218-25.09c3.946,0.081,19.36,0.514,23.305,0.653
			c14.649,2.012,62.189-0.114,81.692,29.729c0,0,15.263-10.755,10.179-20.753C890.815,646.51,890.815,646.509,890.815,646.509z
			 M733.638,613.082l23.417-35.846l21.313,37.105L733.638,613.082z M757.312,576.689l44.732,1.26l-23.417,35.848L757.312,576.689z
			 M778.854,614.355l23.417-35.847l21.313,37.107L778.854,614.355z M802.528,577.962l44.732,1.26l-23.417,35.848L802.528,577.962z
			 M824.07,615.63l23.418-35.848l21.313,37.107L824.07,615.63z"/>
		<path fill="#E8862D" d="M756.829,576.676l-39.458-1.111c-0.133-0.004-0.266,0.182-0.404,0.263
			c-1.306,0.362-2.515,0.966-3.634,1.752l20.079,34.95L756.829,576.676z"/>
		<polygon fill="#E8862D" points="757.312,576.689 778.627,613.797 802.044,577.949 		"/>
		<polygon fill="#E8862D" points="802.528,577.962 823.843,615.069 847.26,579.222 		"/>
		<path fill="#E8862D" d="M869.06,616.351l17.747-27.165c-2.122-4.196-4.969-7.528-8.79-8.825c-0.135-0.088-0.259-0.279-0.391-0.283
			l-29.882-0.842L869.06,616.351z"/>
		<path fill="#D37529" d="M699.814,611.57c0,0,193.434,12.918,193.189,8.104c-0.245-4.816-0.09-2.4-0.09-2.4l-192.574-8.428
			L699.814,611.57z"/>
		<path fill="#D37529" d="M713.049,578.07c-9.337,6.901-12.319,26.862-13.093,34.063l33.198,0.935L713.049,578.07z"/>
		<polygon fill="#D37529" points="733.638,613.082 778.369,614.342 757.055,577.236 		"/>
		<polygon fill="#D37529" points="778.854,614.355 823.584,615.616 802.271,578.509 		"/>
		<polygon fill="#D37529" points="824.07,615.63 868.801,616.89 847.488,579.782 		"/>
		<path fill="#D37529" d="M892.905,617.567c-0.271-5.661-1.412-18.526-5.936-27.738l-17.686,27.075L892.905,617.567z"/>
	</g>
</g>
<g>
	<path fill="#E8862D" d="M570.952,620.133c-24.26,131.063-156.773,216.501-295.982,190.831
		c-139.206-25.67-232.392-152.727-208.132-283.79c24.256-131.062,156.772-216.5,295.979-190.831
		C502.022,362.012,595.21,489.069,570.952,620.133z"/>
	<path fill="#D37529" d="M398.025,490.423c0,0,26.631,56.484,104.969,43.75c21.404-5.018,21.404-5.018,21.404-5.018
		S449.134,478.484,398.025,490.423z"/>
	<path fill="#D37529" d="M296.243,471.652c0,0-45.095,43.26-113.704,3.43c-18.19-12.319-18.19-12.319-18.19-12.319
		S252.778,442.277,296.243,471.652z"/>
	<path fill="#D37529" d="M503.147,153.229c0,0,51.133-30.947,54.07-42.279c-17.924,1.445-36.097-0.324-36.097-0.324
		s27.557-35.294,32.612-39.903c-36.729-5.979-64.563,12.636-72.479,0.886c-7.915-11.749,4.117-40.406,4.117-40.406
		s-41.401,1.075-59.575,17.512C415.617,31.006,402.019,0,402.019,0s-39.721,46.508-41.279,54.929
		c-8.341-9.457-14.736-24.883-14.736-24.883s-28.85,10.512-39.471,49.72c-14.283,4.49-61.866-1.909-74.631-1.094
		c1.902,16.971,49.547,50.297,30.14,50.679c-18.315-1.003-17.255,2.358-17.255,2.358s-10.322,1.266-1.559,8.421
		c1.837,8.254-17.542,22.099-28.926,20c15.023,5.146,17.851,8.042,28.385,14.731C274.434,175.967,473.008,207.042,503.147,153.229z"
		/>
	<path fill="#D37529" d="M635.478,551.283c-21.559-19.807-21.559-19.807-21.559-19.807s27.275-51.971,25.724-61.756
		c-3.179-10.086-7.349-14.811-7.349-14.811s14.212-99.502-25.659-120.314c-23.716-21.789-24.868-65.541-17.434-96.629
		c-1.791-31.204-26.765-95.971-93.544-112.245c-8.956-5.996-43.267-22.569-83.384-30.308l0.002-0.016c0,0-0.484-0.083-0.776-0.136
		c-0.286-0.055-0.769-0.154-0.769-0.154l-0.002,0.013c-41.79-7.356-78.381-3.861-88.89-1.457
		c-68.194-8.616-114.802,42.957-127.646,71.464c-4.185,31.686-20.948,72.135-50.897,84.027
		C98.607,254.375,76.25,352.371,76.25,352.371s-5.593,2.929-12.176,11.217c-4.951,8.585,1.92,66.851,1.92,66.851
		s-0.002,0-27.23,10.811c-20.692,25.476,16.451,65.574,16.451,65.574c74.13-73.412,208.63-38.318,251.761-35.114
		c11.363,2.006,55.71,10.182,67.044,12.362c41.431,12.391,179.768,27.607,222.723,122.608
		C596.743,606.681,645.682,582.455,635.478,551.283z"/>
	<path fill="#E8862D" d="M613.919,531.477c0,0,0,0,21.559,19.807c10.204,31.172-38.735,55.397-38.735,55.397
		c-42.955-95.001-181.292-110.218-222.723-122.608c-11.334-2.179-55.681-10.355-67.048-12.364
		c-43.131-3.202-177.628-38.295-251.758,35.116c0,0-37.146-40.099-16.451-65.574c27.227-10.812,27.227-10.812,27.227-10.812
		S345.994,361.741,613.919,531.477z"/>
	<path fill="#D37529" d="M201.656,529.968c2.18-11.786-11.228-24.138-29.948-27.591c-18.716-3.449-35.658,3.307-37.837,15.091
		c-2.183,11.784,11.225,24.139,29.938,27.59C182.531,548.507,199.472,541.752,201.656,529.968z"/>
	<path fill="#D37529" d="M529.656,591.968c2.18-11.786-11.228-24.138-29.948-27.591c-18.716-3.449-35.658,3.307-37.837,15.091
		c-2.183,11.784,11.225,24.139,29.938,27.59C510.531,610.507,527.472,603.752,529.656,591.968z"/>
	<path fill="#D37529" d="M627.593,657.492c-6.654,17.773-33.031,23.993-56.932,25.918c72.774-38.829,57.868-76.409,53.702-99.342
		c-3.831,12.907-9.983,11.344-36.315,11.135c21.84-3.996,40.141-24.328,41.133-37.165c-5.518,11.649-38.608,8.714-52.752,12.439
		c-10.683,12.281-74.04,27.513-74.04,27.513s-19.678-5.736-26.197,29.475c-6.518,35.215-107.412,71.494-107.412,71.494
		l-63.234-9.576l-62.175-13.549c0,0-80.908-69.803-74.391-105.017c6.516-35.213-13.917-36.876-13.917-36.876
		s-53.725-36.82-59.304-52.101c-11.876-8.52-43.833-17.581-44.82-30.428c-3.667,12.343,6.15,37.859,25.118,49.381
		c-24.668-9.197-30.975-9.932-29.934-23.353C34.024,497.375,6.65,527.158,60.719,589.379
		c-21.631-10.324-44.043-25.538-43.898-44.509c-8.144,34.912-37.372,92.854,54.817,139.936c-24.962-1.438-59.403-6.205-71.637-3.711
		c12.577,22.902,71.224,87.549,112.369,101.467c-16.408,15.976-16.451,15.968-16.451,15.968s56.327,40.468,121.387,16.051
		c6.293-6.756,7.563-14.536,7.563-14.536s-0.762,34.549,45.94,49.697l9.758,1.798c49.08,2.515,61.037-29.971,61.037-29.971
		s-1.425,7.706,2.039,16.261c52.022,46.007,119.198,28.337,119.198,28.337s0,0.012-9.61-20.761
		c43.415,1.673,121.346-37.783,141.293-54.688c-10.531-6.691-44.397-14.518-68.224-22.076
		C629.252,757.545,622.703,693.009,627.593,657.492z"/>
	<g>
		<defs>
			<path id="SVGID_3_" d="M492.131,598.429c0,0-10.705-17.482-25.365-13.614c-31.146,71.598-111.426,85.396-156.477,80.084
				l-0.291-0.057l0,0l0.673,0.024c-44.011-10.916-113.661-52.505-117.125-130.483c-12.305-8.841-28.59,3.629-28.59,3.629
				s-26.249,155.093,134.938,184.814C461.08,752.55,492.131,598.429,492.131,598.429z"/>
		</defs>
		<clipPath id="SVGID_4_">
			<use xlink:href="#SVGID_3_"  overflow="visible"/>
		</clipPath>
		<path clip-path="url(#SVGID_4_)" fill="#E8862D" d="M493.758,598.729c0,0-10.897-16.451-25.556-12.581
			c-31.143,71.597-111.484,85.708-156.669,81.111l-0.289-0.053l0,0l0.656,0.122c-43.847-11.819-113.466-53.586-116.926-131.562
			c-12.305-8.845-28.494,3.086-28.494,3.086s-26.198,154.822,134.987,184.545C462.656,753.119,493.758,598.729,493.758,598.729z"/>
		
			<line clip-path="url(#SVGID_4_)" fill="none" stroke="#D37529" stroke-width="5" stroke-miterlimit="10" x1="310.773" y1="659.839" x2="299.5" y2="729.731"/>
		
			<line clip-path="url(#SVGID_4_)" fill="none" stroke="#D37529" stroke-width="5" stroke-miterlimit="10" x1="369.54" y1="653.066" x2="355.669" y2="733.159"/>
		
			<line clip-path="url(#SVGID_4_)" fill="none" stroke="#D37529" stroke-width="5" stroke-miterlimit="10" x1="418.705" y1="639.126" x2="409.644" y2="716.34"/>
		
			<line clip-path="url(#SVGID_4_)" fill="none" stroke="#D37529" stroke-width="5" stroke-miterlimit="10" x1="445.354" y1="611.523" x2="457.434" y2="682.36"/>
		
			<line clip-path="url(#SVGID_4_)" fill="none" stroke="#D37529" stroke-width="5" stroke-miterlimit="10" x1="459.793" y1="590" x2="495.694" y2="631.488"/>
		
			<line clip-path="url(#SVGID_4_)" fill="none" stroke="#D37529" stroke-width="5" stroke-miterlimit="10" x1="257.819" y1="634.151" x2="242.787" y2="703.592"/>
		
			<line clip-path="url(#SVGID_4_)" fill="none" stroke="#D37529" stroke-width="5" stroke-miterlimit="10" x1="218.494" y1="599.133" x2="198.275" y2="674.43"/>
		
			<line clip-path="url(#SVGID_4_)" fill="none" stroke="#D37529" stroke-width="5" stroke-miterlimit="10" x1="204.841" y1="558.762" x2="164.687" y2="631.669"/>
		
			<line clip-path="url(#SVGID_4_)" fill="none" stroke="#D37529" stroke-width="5" stroke-miterlimit="10" x1="197.532" y1="541.461" x2="147.158" y2="570.504"/>
	</g>
	<path fill="#D37529" d="M473.153,565.155c-1.562,14.489-30.438,16.025-40.218,17.392c-27.296,8.157-52.521-40.298-58.201-42.927
		c-18.595-5.791-31.489-2.598-40.407,4.078c-5.939-9.413-16.841-16.995-36.279-18.22c-6.245,0.43-47.152,36.693-69.725,19.337
		c-8.646-4.761-35.063-16.495-31.335-30.584c-3.396,6.232-24.712,94.137,54.074,107.608c8.958-0.959,44.699,5.503,71.934-16.909
		c17.406,30.644,53.108,37.356,61.126,41.445C462.534,661.891,474.092,572.189,473.153,565.155z"/>
	<g>
		<path fill="none" d="M613.919,531.477c0,0,27.275-51.971,25.724-61.756c-3.179-10.086-7.429-14.389-7.429-14.389
			s0.425-2.879,0.743-6.555l-67.961-12.53l63.35-70.717c-0.111-0.362-0.186-0.934-0.301-1.29l-63.472,70.414l-44.905-116.932
			l85.977,15.853c-22.765-21.935-23.764-64.991-16.437-95.63c-1.79-31.205-26.767-95.96-93.547-112.233
			c-8.958-5.994-43.27-22.558-83.386-30.296l0.002-0.016c0,0-0.484-0.083-0.776-0.136c-0.286-0.055-0.769-0.154-0.769-0.154
			l-0.002,0.013c-41.79-7.356-78.381-3.861-88.89-1.457c-68.194-8.616-114.797,42.933-127.642,71.441
			c-4.122,31.227-20.53,71.075-49.637,83.445l113.528,20.936l-83.78,93.095l-42.327-110.021c-0.292,0.144-0.666,0.711-0.957,0.863
			l42.298,110.597l-95.517-17.612c-1.017,3.549-1.651,6.385-1.651,6.385s-5.549,2.719-12.13,11.004
			c-4.951,8.586,1.943,66.746,1.943,66.746s0.01-0.052-27.216,10.762C18.061,466.779,55.21,506.85,55.21,506.85
			c74.129-73.41,208.628-38.331,251.759-35.129c11.367,2.01,55.719,10.18,67.051,12.358
			c41.431,12.391,179.768,27.605,222.723,122.605c0,0,48.938-24.226,38.735-55.4C613.919,531.479,613.919,531.477,613.919,531.477z
			 M174.714,364.28l83.773-93.074l44.929,116.807L174.714,364.28z M259.476,269.744l128.707,23.733l-83.775,93.073L259.476,269.744z
			 M304.809,388.268l83.773-93.074l44.927,116.808L304.809,388.268z M389.573,293.733l128.702,23.731l-83.773,93.072
			L389.573,293.733z M434.901,412.257l83.777-93.072l44.928,116.807L434.901,412.257z"/>
		<path fill="#E8862D" d="M258.087,269.485l-113.53-20.933c-0.382-0.071-0.854,0.405-1.286,0.579
			c-3.938,0.458-7.699,1.662-11.287,3.431l42.328,110.017L258.087,269.485z"/>
		<polygon fill="#E8862D" points="259.476,269.744 304.407,386.55 388.182,293.477 		"/>
		<polygon fill="#E8862D" points="389.573,293.733 434.502,410.536 518.275,317.464 		"/>
		<path fill="#E8862D" d="M564.591,434.551l63.494-70.533c-4.25-13.081-10.98-23.987-21.443-29.449
			c-0.345-0.315-0.621-0.923-0.998-0.994l-85.977-15.853L564.591,434.551z"/>
		<path fill="#D37529" d="M77.649,344.718c0,0,553.19,124.217,554.645,110.192c1.457-14.027,0.818-6.978,0.818-6.978L80.394,337.079
			L77.649,344.718z"/>
		<path fill="#D37529" d="M130.944,253.853c-30.081,15.75-47.665,72.094-53.135,92.556l95.515,17.612L130.944,253.853z"/>
		<polygon fill="#D37529" points="174.714,364.28 303.417,388.013 258.488,271.206 		"/>
		<polygon fill="#D37529" points="304.809,388.268 433.509,412.001 388.582,295.194 		"/>
		<polygon fill="#D37529" points="434.901,412.257 563.606,435.992 518.679,319.185 		"/>
		<path fill="#D37529" d="M632.957,448.777c1.761-16.479,4.238-54.176-4.69-82.824l-63.271,70.294L632.957,448.777z"/>
	</g>
</g>
<g>
	<path fill="#E8862D" d="M1356.324,535.425c25.491,84.963-26.979,175.833-117.192,202.965
		c-90.213,27.131-184.012-19.752-209.501-104.716c-25.491-84.963,26.979-175.834,117.193-202.965
		C1237.036,403.579,1330.834,450.461,1356.324,535.425z"/>
	<path fill="#D37529" d="M1214.514,511.218c0,0,32.942,25.341,75.444-6.017c11.144-9.479,11.144-9.479,11.144-9.479
		S1241.142,488.61,1214.514,511.218z"/>
	<path fill="#D37529" d="M1148.552,531.054c0,0-13.54,39.32-66.267,36.603c-14.515-1.762-14.515-1.762-14.515-1.762
		S1113.892,526.88,1148.552,531.054z"/>
	<path fill="#D37529" d="M1174.22,279.64c0,0,20.859-33.868,19.153-41.469c-10.172,6.305-21.469,10.785-21.469,10.785
		s5.582-29.272,7.175-33.539c-23.563,7.628-34.378,27.11-42.638,22.562c-8.257-4.55-9.847-25.171-9.847-25.171
		s-24.184,13.224-29.945,28.482c-11.409-7.39-28.888-21.61-28.888-21.61s-9.372,39.609-7.734,45.066
		c-7.812-3.061-16.291-10.248-16.291-10.248s-13.881,14.995-8.247,41.434c-7.09,7.001-37.205,17.681-44.514,22.045
		c6.288,9.469,44.626,14.71,33.252,20.838c-11.147,4.975-9.498,6.642-9.498,6.642s-5.727,3.888,1.638,5.46
		c3.597,4.329-3.665,18.417-11.042,20.635c10.458-1.522,13.012-0.667,21.28,0.09C1045.739,362.642,1172.74,320.661,1174.22,279.64z"
		/>
	<path fill="#D37529" d="M1373.589,475.046c-18.785-5.169-18.785-5.169-18.785-5.169s0.346-39.058-3.549-44.381
		c-4.949-5.003-8.854-6.533-8.854-6.533s-21.843-63.224-51.773-63.421c-20.663-5.69-34.647-31.238-39.7-51.904
		c-10.547-17.927-45.021-48.677-89.501-38.006c-7.126-0.827-32.68-0.145-58.574,7.411l-0.003-0.01c0,0-0.16,0.052-0.35,0.11
		c-0.186,0.053-0.349,0.098-0.349,0.096l0.004,0.011c-27.163,8.407-47.73,21.593-53.221,26.211
		c-42.991,15.634-54.979,60.359-53.914,81.139c7.158,20.031,9.492,49.084-4.621,65.231c-24.87,16.677-8.327,81.493-8.327,81.493
		s-2.432,3.438-3.807,10.345c-0.321,6.588,21.459,38.993,21.459,38.993s-0.006,0-12.837,14.681
		c-4.502,21.373,29.676,33.816,29.676,33.816c21.563-65.998,111.854-86.119,138.363-97.337c7.337-2.269,36.075-10.911,43.447-13.067
		c28.294-5.261,114.813-38.315,169.129,4.862C1367.503,519.618,1389.108,490.398,1373.589,475.046z"/>
	<path fill="#E8862D" d="M1354.804,469.877c0,0,0,0,18.785,5.169c15.519,15.353-6.086,44.572-6.086,44.572
		c-54.316-43.178-140.835-10.123-169.129-4.861c-7.37,2.155-36.111,10.799-43.451,13.066
		c-26.507,11.219-116.799,31.339-138.359,97.337c0,0-34.182-12.442-29.679-33.815c12.831-14.682,12.831-14.682,12.831-14.682
		S1144.587,450.859,1354.804,469.877z"/>
	<path fill="#D37529" d="M1110.292,594.334c-2.292-7.639-13.985-10.875-26.118-7.227c-12.129,3.647-20.104,12.8-17.81,20.438
		c2.289,7.641,13.984,10.877,26.11,7.229C1104.606,611.125,1112.582,601.975,1110.292,594.334z"/>
	<path fill="#D37529" d="M1323.292,529.334c-2.292-7.639-13.985-10.875-26.118-7.227c-12.129,3.647-20.104,12.8-17.81,20.438
		c2.289,7.641,13.984,10.877,26.11,7.229C1317.606,546.125,1325.582,536.975,1323.292,529.334z"/>
	<path fill="#D37529" d="M1401.215,540.317c1.466,12.546-12.259,24.248-25.822,32.656c31.275-45.115,11.024-62.829,1.585-75.139
		c1.657,8.805-2.461,9.75-18.112,17.633c11.714-9.006,16.366-26.607,13.051-34.508c0.276,8.573-20.207,16.897-27.448,23.404
		c-2.588,10.518-35.464,38.798-35.464,38.798s-13.394,2.59-6.547,25.416c6.85,22.828-41.849,74.981-41.849,74.981l-40.343,13.558
		l-40.929,10.886c0,0-69.12-16.723-75.968-39.55c-6.851-22.828-19.452-17.599-19.452-17.599s-42.999-5.462-50.948-12.812
		c-9.62-1.433-31.295,2.92-35.786-4.387c1.583,8.423,15.153,20.544,29.884,21.596c-17.397,2.057-21.354,3.54-24.82-4.722
		c-1.103,15.48-8.252,41.435,42.675,61.829c-15.942,0.466-33.837-1.728-39.521-13.003c5.796,23.145,6.112,66.333,75.001,66.173
		c-15.216,6.738-37.052,14.391-43.536,19.586c14.409,9.732,68.781,30.172,97.372,25.9c-4.857,14.445-4.883,14.454-4.883,14.454
		s45.648,6.83,76.739-27.407c1.671-5.913,0.057-10.903,0.057-10.903s10.054,20.683,42.308,15.45l6.323-1.902
		c29.818-13.433,27.021-36.301,27.021-36.301s1.499,4.996,6.151,9.007c44.785,11.416,79.179-19.468,79.179-19.468
		s0.004,0.005-12-9.369c26.21-12.209,60.347-59.264,67.015-75.337c-8.27-0.757-30.695,4.906-47.1,7.677
		C1432.62,599.043,1409.118,562.831,1401.215,540.317z"/>
	<g>
		<defs>
			<path id="SVGID_5_" d="M1303.066,546.542c0,0-11.693-7.229-19.195-0.483c3.331,51.856-39.857,84.908-68.322,94.854l-0.189,0.056
				l0,0l0.445-0.057c-29.372,6.919-83.23,3.545-108.989-41.563c-9.974-1.493-15.814,10.874-15.814,10.874
				s31.624,99.812,136.082,68.396C1331.54,647.205,1303.066,546.542,1303.066,546.542z"/>
		</defs>
		<clipPath id="SVGID_6_">
			<use xlink:href="#SVGID_5_"  overflow="visible"/>
		</clipPath>
		<path clip-path="url(#SVGID_6_)" fill="#E8862D" d="M1304.119,546.224c0,0-11.452-6.425-18.954,0.324
			c3.333,51.853-39.938,84.636-68.082,95.652l-0.187,0.058l0,0l0.425-0.13c-29.552,6.336-83.464,2.779-109.222-42.329
			c-9.973-1.494-15.929,10.49-15.929,10.49s31.564,99.618,136.021,68.205C1332.651,647.078,1304.119,546.224,1304.119,546.224z"/>
		
			<line clip-path="url(#SVGID_6_)" fill="none" stroke="#D37529" stroke-width="5" stroke-miterlimit="10" x1="1214.376" y1="638.038" x2="1228.953" y2="682.842"/>
		
			<line clip-path="url(#SVGID_6_)" fill="none" stroke="#D37529" stroke-width="5" stroke-miterlimit="10" x1="1247.105" y1="616.161" x2="1263.248" y2="667.793"/>
		
			<line clip-path="url(#SVGID_6_)" fill="none" stroke="#D37529" stroke-width="5" stroke-miterlimit="10" x1="1271.97" y1="592.959" x2="1290.084" y2="641.424"/>
		
			<line clip-path="url(#SVGID_6_)" fill="none" stroke="#D37529" stroke-width="5" stroke-miterlimit="10" x1="1279.355" y1="568.516" x2="1308.046" y2="606.778"/>
		
			<line clip-path="url(#SVGID_6_)" fill="none" stroke="#D37529" stroke-width="5" stroke-miterlimit="10" x1="1281.36" y1="551.385" x2="1315.225" y2="565.029"/>
		
			<line clip-path="url(#SVGID_6_)" fill="none" stroke="#D37529" stroke-width="5" stroke-miterlimit="10" x1="1175.219" y1="638.935" x2="1187.431" y2="684.611"/>
		
			<line clip-path="url(#SVGID_6_)" fill="none" stroke="#D37529" stroke-width="5" stroke-miterlimit="10" x1="1141.29" y1="630.16" x2="1152.213" y2="680.881"/>
		
			<line clip-path="url(#SVGID_6_)" fill="none" stroke="#D37529" stroke-width="5" stroke-miterlimit="10" x1="1120.93" y1="610.412" x2="1119.329" y2="665.782"/>
		
			<line clip-path="url(#SVGID_6_)" fill="none" stroke="#D37529" stroke-width="5" stroke-miterlimit="10" x1="1111.344" y1="602.393" x2="1090.355" y2="634.901"/>
	</g>
	<path fill="#D37529" d="M1281.712,532.615c3.481,9.051-13.146,18.741-18.52,22.523c-13.679,13.128-43.344-7.885-47.506-7.716
		c-12.771,2.226-19.432,8.036-22.682,14.701c-6.378-3.768-15.137-4.942-27.016,0.243c-3.568,2.154-16.757,36.06-35.397,32.648
		c-6.567-0.189-25.772,0.897-27.85-8.577c-0.115,4.723,13.995,63.241,64.73,47.261c5.012-3.291,28.135-10.333,37.443-31.882
		c19.621,12.849,42.798,5.968,48.788,5.948C1304.841,593.108,1284.408,536.492,1281.712,532.615z"/>
	<g>
		<path fill="none" d="M1354.804,469.877c0,0,0.346-39.058-3.549-44.381c-4.949-5.003-8.772-6.259-8.772-6.259
			s-0.624-1.833-1.553-4.105l-44.042,13.246l16-61.125c-0.177-0.18-0.395-0.497-0.571-0.672l-16.165,60.983l-62.139-55.569
			l55.719-16.756c-20.146-6.065-33.828-31.25-38.807-51.613c-10.549-17.929-45.02-48.67-89.5-37.999
			c-7.124-0.827-32.678-0.138-58.572,7.418l-0.003-0.01c0,0-0.16,0.052-0.35,0.11c-0.186,0.053-0.349,0.098-0.349,0.096l0.004,0.011
			c-27.163,8.407-47.73,21.593-53.221,26.211c-42.991,15.634-54.984,60.342-53.921,81.125c7.056,19.739,9.42,48.329-4.05,64.503
			l73.551-22.119l-21.298,80.588l-58.515-52.262c-0.128,0.175-0.182,0.626-0.306,0.804l58.667,52.611l-61.9,18.617
			c0.476,2.409,0.964,4.281,0.964,4.281s-2.459,3.296-3.836,10.203c-0.32,6.588,21.443,38.921,21.443,38.921
			s-0.008-0.034-12.839,14.647c-4.503,21.37,29.673,33.796,29.673,33.796c21.561-65.997,111.85-86.127,138.356-97.346
			c7.341-2.267,36.08-10.915,43.451-13.071c28.294-5.262,114.811-38.316,169.128,4.861c0,0,21.604-29.222,6.087-44.573
			C1354.804,469.878,1354.804,469.877,1354.804,469.877z M1043.963,504.441l21.293-80.57l62.114,55.487L1043.963,504.441z
			 M1065.398,422.706l83.408-25.085l-21.296,80.571L1065.398,422.706z M1128.272,479.085l21.293-80.569l62.113,55.488
			L1128.272,479.085z M1149.705,397.349l83.408-25.083l-21.294,80.568L1149.705,397.349z M1212.58,453.731l21.295-80.57
			l62.112,55.488L1212.58,453.731z"/>
		<path fill="#E8862D" d="M1064.497,422.974l-73.574,22.127c-0.247,0.074-0.382,0.5-0.585,0.733
			c-2.191,1.47-4.054,3.324-5.639,5.463l58.508,52.26L1064.497,422.974z"/>
		<polygon fill="#E8862D" points="1065.398,422.706 1127.51,478.191 1148.806,397.621 		"/>
		<polygon fill="#E8862D" points="1149.705,397.349 1211.819,452.834 1233.113,372.266 		"/>
		<path fill="#E8862D" d="M1296.13,427.497l16.144-61.063c-6.495-6.452-13.793-10.86-21.649-10.911
			c-0.3-0.084-0.648-0.359-0.893-0.286l-55.719,16.756L1296.13,427.497z"/>
		<path fill="#D37529" d="M980.554,522.375c0,0,365.249-94.668,361.848-103.413c-3.403-8.747-1.638-4.378-1.638-4.378
			L979.855,517.018L980.554,522.375z"/>
		<path fill="#D37529" d="M984.476,452.379c-13.02,18.47-6.296,57.171-3.313,70.949l61.898-18.617L984.476,452.379z"/>
		<polygon fill="#D37529" points="1043.963,504.441 1127.371,479.358 1065.256,423.871 		"/>
		<polygon fill="#D37529" points="1128.272,479.085 1211.678,454.004 1149.565,398.516 		"/>
		<polygon fill="#D37529" points="1212.58,453.731 1295.987,428.649 1233.875,373.161 		"/>
		<path fill="#D37529" d="M1340.93,415.131c-3.971-10.292-13.964-33.36-27.961-47.605l-16.081,60.851L1340.93,415.131z"/>
	</g>
</g>
</svg>
