<?xml version="1.0" encoding="utf-8"?>
<!-- Generator: Adobe Illustrator 16.0.0, SVG Export Plug-In . SVG Version: 6.00 Build 0)  -->
<!DOCTYPE svg PUBLIC "-//W3C//DTD SVG 1.1//EN" "http://www.w3.org/Graphics/SVG/1.1/DTD/svg11.dtd">
<svg version="1.1" id="Calque_1" xmlns="http://www.w3.org/2000/svg" xmlns:xlink="http://www.w3.org/1999/xlink" x="0px" y="0px"
	 width="856px" height="602px" viewBox="0 0 856 602" enable-background="new 0 0 856 602" xml:space="preserve">
<g>
	<defs>
		<rect id="SVGID_1_" width="856" height="602"/>
	</defs>
	<clipPath id="SVGID_2_">
		<use xlink:href="#SVGID_1_"  overflow="visible"/>
	</clipPath>
	<g clip-path="url(#SVGID_2_)">
		<rect y="104" fill="none" width="856" height="269"/>
		<g>
			<path fill="#E8862D" d="M409.688,187.649c0.725,195.594-167.077,354.887-374.8,355.794
				c-207.718,0.908-376.697-156.913-377.421-352.507c-0.728-195.59,167.079-354.886,374.798-355.794
				C239.982-165.766,408.964-7.943,409.688,187.649z"/>
			<path fill="#D37529" d="M125.005,47.723c0,0,53.79,74.195,163.276,34.493c29.496-13.067,29.496-13.067,29.496-13.067
				S195.449,16.588,125.005,47.723z"/>
			<path fill="#D37529" d="M-26.873,48.387c0,0-53.238,74.661-163.017,35.92c-29.588-12.812-29.588-12.812-29.588-12.812
				S-97.544,17.867-26.873,48.387z"/>
			<path fill="#D37529" d="M184.729-467.123c0,0,65.301-58.553,66.449-75.693c-25.453,6.967-52.139,9.368-52.139,9.368
				s30.121-58.397,36.155-66.422c-54.593,1.384-89.651,35.809-104.267,21.021c-14.613-14.786-5.071-59.384-5.071-59.384
				s-59.406,12.827-81.136,41.48c-19.499-22.761-47.556-63.767-47.556-63.767s-44.602,77.88-44.555,90.448
				c-14.602-11.363-28.026-31.866-28.026-31.866s-38.737,23.017-43.371,82.444c-19.372,10.366-89.729,14.102-107.911,18.752
				c7.367,23.957,85.145,59.031,57.264,64.869c-26.681,3.542-24.238,8.101-24.238,8.101s-14.538,4.636,0.045,12.567
				c4.897,11.402-19.271,36.643-36.26,36.717c23.063,3.327,27.932,6.731,44.941,13.509
				C-138.864-372.031,155.93-381.316,184.729-467.123z"/>
			<path fill="#D37529" d="M483.977,70.796c-36.483-22.687-36.483-22.687-36.483-22.687s25.171-82.367,20.269-96.054
				c-7.33-13.679-14.631-19.358-14.631-19.358s-6.611-147.344-69.773-166.491c-40.131-24.958-53.711-87.73-51.46-134.583
				c-11.082-44.506-64.71-131.094-165.435-136.366C151.916-510.948,97-525.501,38-525.729v-0.023c0,0-0.57,0.009-1.005,0.013
				c-0.426-0.002-0.995-0.01-0.995-0.014v0.021c-63,0.778-114.252,15.787-128.748,22.116
				c-100.68,6.151-153.925,93.21-164.68,137.813c2.6,46.831-10.602,109.721-50.546,135.029
				c-63.017,19.697-68.581,167.093-68.581,167.093s-7.28,5.746-14.513,19.489c-4.8,13.729,20.975,95.871,20.975,95.871
				s-0.007,0.001-36.321,23.008c-22.896,42.371,41.582,90.069,41.582,90.069C-277.943,38.712-74.444,52.676-11.377,45.545
				c16.931-0.204,83.104-0.494,100.042-0.438c63.114,6.58,266.729-9.163,354.55,116.12
				C443.215,161.227,507.182,112.966,483.977,70.796z"/>
			<path fill="#E8862D" d="M447.493,48.109c0,0,0,0,36.483,22.687c23.205,42.17-40.762,90.431-40.762,90.431
				c-87.82-125.283-291.436-109.54-354.55-116.12c-16.938-0.056-83.113,0.236-100.049,0.437
				c-63.064,7.133-266.56-6.831-353.452,119.215c0,0-64.483-47.698-41.583-90.069c36.313-23.008,36.313-23.008,36.313-23.008
				S14.928-123.652,447.493,48.109z"/>
			<path fill="#D37529" d="M-147.372,158.238c-0.066-17.588-22.764-31.747-50.698-31.623c-27.927,0.121-50.516,14.479-50.451,32.065
				c0.065,17.587,22.762,31.748,50.686,31.625C-169.898,190.181-147.311,175.826-147.372,158.238z"/>
			<path fill="#D37529" d="M343.313,154.75c-0.066-17.588-22.765-31.747-50.698-31.623c-27.927,0.121-50.516,14.479-50.45,32.065
				c0.065,17.587,22.762,31.748,50.686,31.625C320.787,186.692,343.374,172.338,343.313,154.75z"/>
			<path fill="#D37529" d="M501.537,226.091c-4.749,27.439-41.091,43.593-75.029,52.882
				c94.357-75.814,62.626-125.942,50.372-157.876c-2.01,19.654-11.305,19.076-49.331,25.947
				c30.402-11.709,51.254-46.012,49.188-64.791c-4.784,18.299-53.298,23.081-72.679,32.307
				c-12.056,20.618-99.265,59.839-99.265,59.839s-29.937-2.909-29.745,49.639c0.194,52.552-135.403,132.35-135.403,132.35
				l-93.787,3.417l-93.344-2.597c0,0-135.68-78.615-135.874-131.165c-0.195-52.551-30.113-49.38-30.113-49.38
				s-87.496-38.458-99.706-58.97c-19.444-9.051-67.993-13.411-72.916-31.668c-1.926,18.797,19.181,52.915,49.67,64.36
				c-38.075-6.54-47.368-5.881-49.524-25.518c-12.018,32.042-43.377,82.443,51.537,157.432
				c-34.002-8.994-70.464-24.826-75.422-52.223c-2.232,52.562-28.593,144.071,117.162,186.847
				c-36.385,4.727-87.346,7.235-104.307,14.165c24.376,29.597,126.547,106.837,189.668,115.698
				c-19.308,27.503-19.37,27.504-19.37,27.504s92.244,43.009,179.403-9.925c7.236-11.455,6.946-23.019,6.946-23.019
				s8.314,50.024,79.781,59.144l14.56-0.064c71.454-9.742,79.847-59.842,79.847-59.842s0.045,11.499,7.369,22.891
				c87.546,52.165,179.597,8.39,179.597,8.39s0.002,0.017-19.513-27.316c63.057-9.416,164.681-87.538,188.836-117.349
				c-17.009-6.779-67.972-8.838-104.389-13.249C531.188,369.906,504.161,278.633,501.537,226.091z"/>
			<g>
				<defs>
					<path id="SVGID_3_" d="M290.123,177.825c0,0-20.197-22.394-40.283-12.823C224.434,276.725,112.433,318,46.026,323h-0.434l0,0
						l0.978-0.047c-66.435-3.752-178.196-44.692-204.431-156.189c-20.151-9.396-40.239,13.044-40.239,13.044
						s4.4,230.799,244.919,229.746C287.332,408.502,290.123,177.825,290.123,177.825z"/>
				</defs>
				<clipPath id="SVGID_4_">
					<use xlink:href="#SVGID_3_"  overflow="visible"/>
				</clipPath>
				<path clip-path="url(#SVGID_4_)" fill="#E8862D" d="M292.551,177.814c0,0-20.193-20.753-40.279-11.178
					c-25.4,111.72-137.403,153.954-203.808,159.634l-0.432,0.004l0,0l0.979-0.006c-66.442-5.097-178.206-46.354-204.438-157.85
					c-20.149-9.399-40.242,12.213-40.242,12.213s4.398,230.379,244.914,229.328C289.761,408.908,292.551,177.814,292.551,177.814z"
					/>
				
					<line clip-path="url(#SVGID_4_)" fill="none" stroke="#D37529" stroke-width="5" stroke-miterlimit="10" x1="45.345" y1="315.778" x2="48.129" y2="419.63"/>
				
					<line clip-path="url(#SVGID_4_)" fill="none" stroke="#D37529" stroke-width="5" stroke-miterlimit="10" x1="128.238" y1="290.004" x2="130.056" y2="409.271"/>
				
					<line clip-path="url(#SVGID_4_)" fill="none" stroke="#D37529" stroke-width="5" stroke-miterlimit="10" x1="195.333" y1="256.509" x2="203.301" y2="370.315"/>
				
					<line clip-path="url(#SVGID_4_)" fill="none" stroke="#D37529" stroke-width="5" stroke-miterlimit="10" x1="226.24" y1="209.449" x2="262.954" y2="308.302"/>
				
					<line clip-path="url(#SVGID_4_)" fill="none" stroke="#D37529" stroke-width="5" stroke-miterlimit="10" x1="241.198" y1="174.482" x2="304.264" y2="224.523"/>
				
					<line clip-path="url(#SVGID_4_)" fill="none" stroke="#D37529" stroke-width="5" stroke-miterlimit="10" x1="-38.004" y1="293.167" x2="-40.767" y2="397.387"/>
				
					<line clip-path="url(#SVGID_4_)" fill="none" stroke="#D37529" stroke-width="5" stroke-miterlimit="10" x1="-104.251" y1="253.383" x2="-112.893" y2="367.463"/>
				
					<line clip-path="url(#SVGID_4_)" fill="none" stroke="#D37529" stroke-width="5" stroke-miterlimit="10" x1="-134.938" y1="198.89" x2="-172.977" y2="314.957"/>
				
					<line clip-path="url(#SVGID_4_)" fill="none" stroke="#D37529" stroke-width="5" stroke-miterlimit="10" x1="-150.188" y1="175.935" x2="-214.912" y2="231.533"/>
			</g>
			<path fill="#D37529" d="M253.693,135.02c1.694,21.314-39.522,31.398-53.253,36.031c-37.137,19.198-86.709-43.797-95.616-46.043
				c-28.392-3.284-46.112,4.834-57.154,16.889c-11.126-11.956-28.912-19.92-57.274-16.39c-8.89,2.322-57.993,65.754-95.271,46.876
				c-13.766-4.51-55.053-14.232-53.515-35.563c-3.199,9.913-9.988,142.468,107.286,140.433c12.657-3.822,65.954-4.241,99.119-43.977
				c33.444,39.443,86.753,39.399,99.428,43.108C264.734,277.395,256.963,144.905,253.693,135.02z"/>
			<g>
				<path fill="none" d="M447.493,48.109c0,0,25.171-82.367,20.269-96.054c-7.33-13.679-14.63-18.728-14.63-18.728
					s-0.172-4.264-0.716-9.651l-101.408,0.446l72.083-119.228c-0.261-0.492-0.523-1.296-0.788-1.777L349.963-78.06l-96.604-156.376
					l128.292-0.561c-38.798-25.43-51.97-87.241-49.751-133.416c-11.082-44.506-64.71-131.075-165.437-136.348
					C151.918-510.964,97-525.501,38-525.729v-0.023c0,0-0.57,0.009-1.005,0.013c-0.426-0.002-0.995-0.01-0.995-0.014v0.021
					c-63,0.778-114.252,15.787-128.748,22.116c-100.68,6.151-153.925,93.175-164.681,137.779
					c2.563,46.152-10.285,108.079-48.888,133.847l169.38-0.739l-95.454,157.06l-91.01-147.114c-0.379,0.288-0.768,1.209-1.145,1.508
					l91.116,147.951L-375.955-72.7c-0.501,5.392-0.644,9.654-0.644,9.654s-7.259,5.431-14.493,19.173
					c-4.799,13.727,20.983,95.712,20.983,95.712s0.003-0.077-36.313,22.932c-22.895,42.368,41.586,90.027,41.586,90.027
					C-277.945,38.752-74.447,52.693-11.384,45.563c16.936-0.201,83.115-0.501,100.049-0.446
					c63.116,6.581,266.729-9.166,354.551,116.116c0,0,63.966-48.262,40.761-90.435C447.493,48.112,447.493,48.109,447.493,48.109z
					 M-231.354-73.332l95.44-157.028L-39.31-74.172L-231.354-73.332z M-134.889-232.737l192.053-0.839L-38.281-76.551
					L-134.889-232.737z M-37.233-74.183L58.208-231.21L154.81-75.021L-37.233-74.183z M59.237-233.587l192.045-0.839L155.84-77.401
					L59.237-233.587z M156.889-75.03l95.443-157.025l96.604,156.188L156.889-75.03z"/>
				<path fill="#E8862D" d="M-136.961-232.73l-169.405,0.743c-0.569,0.002-1.121,0.816-1.698,1.184
					c-5.552,1.733-10.648,4.493-15.34,8.021L-232.4-75.677L-136.961-232.73z"/>
				<polygon fill="#E8862D" points="-134.889,-232.737 -38.281,-76.551 57.164,-233.576 				"/>
				<polygon fill="#E8862D" points="59.237,-233.587 155.84,-77.401 251.282,-234.426 				"/>
				<path fill="#E8862D" d="M349.961-78.214l72.341-119.001c-9.69-17.705-22.366-31.597-38.942-36.62
					c-0.581-0.362-1.146-1.163-1.709-1.161l-128.292,0.561L349.961-78.214z"/>
				<path fill="#D37529" d="M-376.646-75.099c0,0,831.5,28.417,829.777,7.796c-1.72-20.622-0.72-10.279-0.72-10.279l-827.181-9.279
					L-376.646-75.099z"/>
				<path fill="#D37529" d="M-324.549-220.637c-39.086,30.906-49.09,116.938-51.404,147.937l142.523-0.624L-324.549-220.637z"/>
				<polygon fill="#D37529" points="-231.354,-73.332 -39.31,-74.172 -135.915,-230.36 				"/>
				<polygon fill="#D37529" points="-37.233,-74.183 154.81,-75.021 58.208,-231.21 				"/>
				<polygon fill="#D37529" points="156.889,-75.03 348.936,-75.868 252.332,-232.056 				"/>
				<path fill="#D37529" d="M452.416-76.323c-1.949-24.241-8.646-79.272-29.325-118.149L351.008-75.877L452.416-76.323z"/>
			</g>
		</g>
	</g>
</g>
</svg>
